<?xml version="1.0" encoding="UTF-8"?>
<!--Generator: Apple Native CoreSVG 149-->
<!DOCTYPE svg
PUBLIC "-//W3C//DTD SVG 1.1//EN"
       "http://www.w3.org/Graphics/SVG/1.1/DTD/svg11.dtd">
<svg version="1.1" xmlns="http://www.w3.org/2000/svg" xmlns:xlink="http://www.w3.org/1999/xlink" width="3300" height="2200">
 <!--glyph: "uni100384.medium", point size: 100.0, font version: "17.0d9e1", template writer version: "59"-->
 <g id="Notes">
  <rect height="2200" id="artboard" style="fill:white;opacity:1" width="3300" x="0" y="0"/>
  <line style="fill:none;stroke:black;opacity:1;stroke-width:0.5;" x1="263" x2="3036" y1="292" y2="292"/>
  <text style="stroke:none;fill:black;font-family:sans-serif;font-size:13;font-weight:bold;" transform="matrix(1 0 0 1 263 322)">Weight/Scale Variations</text>
  <text style="stroke:none;fill:black;font-family:sans-serif;font-size:13;text-anchor:middle;" transform="matrix(1 0 0 1 559.711 322)">Ultralight</text>
  <text style="stroke:none;fill:black;font-family:sans-serif;font-size:13;text-anchor:middle;" transform="matrix(1 0 0 1 856.422 322)">Thin</text>
  <text style="stroke:none;fill:black;font-family:sans-serif;font-size:13;text-anchor:middle;" transform="matrix(1 0 0 1 1153.13 322)">Light</text>
  <text style="stroke:none;fill:black;font-family:sans-serif;font-size:13;text-anchor:middle;" transform="matrix(1 0 0 1 1449.84 322)">Regular</text>
  <text style="stroke:none;fill:black;font-family:sans-serif;font-size:13;text-anchor:middle;" transform="matrix(1 0 0 1 1746.56 322)">Medium</text>
  <text style="stroke:none;fill:black;font-family:sans-serif;font-size:13;text-anchor:middle;" transform="matrix(1 0 0 1 2043.27 322)">Semibold</text>
  <text style="stroke:none;fill:black;font-family:sans-serif;font-size:13;text-anchor:middle;" transform="matrix(1 0 0 1 2339.98 322)">Bold</text>
  <text style="stroke:none;fill:black;font-family:sans-serif;font-size:13;text-anchor:middle;" transform="matrix(1 0 0 1 2636.69 322)">Heavy</text>
  <text style="stroke:none;fill:black;font-family:sans-serif;font-size:13;text-anchor:middle;" transform="matrix(1 0 0 1 2933.4 322)">Black</text>
  <line style="fill:none;stroke:black;opacity:1;stroke-width:0.5;" x1="263" x2="3036" y1="1903" y2="1903"/>
  <g transform="matrix(1 0 0 1 263 1933)">
   <path d="M9.24805 0.830078Q10.8691 0.830078 12.2949 0.214844Q13.7207-0.400391 14.8096-1.49414Q15.8984-2.58789 16.5186-4.01367Q17.1387-5.43945 17.1387-7.05078Q17.1387-8.66211 16.5186-10.0879Q15.8984-11.5137 14.8047-12.6074Q13.7109-13.7012 12.2852-14.3164Q10.8594-14.9316 9.23828-14.9316Q7.62695-14.9316 6.20117-14.3164Q4.77539-13.7012 3.69141-12.6074Q2.60742-11.5137 1.9873-10.0879Q1.36719-8.66211 1.36719-7.05078Q1.36719-5.43945 1.9873-4.01367Q2.60742-2.58789 3.69629-1.49414Q4.78516-0.400391 6.21094 0.214844Q7.63672 0.830078 9.24805 0.830078ZM9.24805-0.654297Q7.91992-0.654297 6.7627-1.14746Q5.60547-1.64062 4.73145-2.51953Q3.85742-3.39844 3.36426-4.56055Q2.87109-5.72266 2.87109-7.05078Q2.87109-8.37891 3.35938-9.54102Q3.84766-10.7031 4.72168-11.582Q5.5957-12.4609 6.75293-12.9541Q7.91016-13.4473 9.23828-13.4473Q10.5762-13.4473 11.7334-12.9541Q12.8906-12.4609 13.7695-11.582Q14.6484-10.7031 15.1465-9.54102Q15.6445-8.37891 15.6445-7.05078Q15.6445-5.72266 15.1514-4.56055Q14.6582-3.39844 13.7842-2.51953Q12.9102-1.64062 11.748-1.14746Q10.5859-0.654297 9.24805-0.654297ZM5.83984-7.04102Q5.83984-6.71875 6.04492-6.51855Q6.25-6.31836 6.5918-6.31836L8.50586-6.31836L8.50586-4.39453Q8.50586-4.0625 8.70605-3.85742Q8.90625-3.65234 9.22852-3.65234Q9.56055-3.65234 9.76562-3.85742Q9.9707-4.0625 9.9707-4.39453L9.9707-6.31836L11.8945-6.31836Q12.2266-6.31836 12.4316-6.51855Q12.6367-6.71875 12.6367-7.04102Q12.6367-7.37305 12.4316-7.57812Q12.2266-7.7832 11.8945-7.7832L9.9707-7.7832L9.9707-9.69727Q9.9707-10.0391 9.76562-10.2441Q9.56055-10.4492 9.22852-10.4492Q8.90625-10.4492 8.70605-10.2441Q8.50586-10.0391 8.50586-9.69727L8.50586-7.7832L6.5918-7.7832Q6.25-7.7832 6.04492-7.57812Q5.83984-7.37305 5.83984-7.04102Z"/>
  </g>
  <g transform="matrix(1 0 0 1 281.867 1933)">
   <path d="M11.709 2.91016Q13.75 2.91016 15.5518 2.12891Q17.3535 1.34766 18.7305-0.0292969Q20.1074-1.40625 20.8887-3.20801Q21.6699-5.00977 21.6699-7.05078Q21.6699-9.0918 20.8887-10.8936Q20.1074-12.6953 18.7305-14.0723Q17.3535-15.4492 15.5469-16.2305Q13.7402-17.0117 11.6992-17.0117Q9.6582-17.0117 7.85645-16.2305Q6.05469-15.4492 4.68262-14.0723Q3.31055-12.6953 2.5293-10.8936Q1.74805-9.0918 1.74805-7.05078Q1.74805-5.00977 2.5293-3.20801Q3.31055-1.40625 4.6875-0.0292969Q6.06445 1.34766 7.86621 2.12891Q9.66797 2.91016 11.709 2.91016ZM11.709 1.25Q9.98047 1.25 8.47656 0.605469Q6.97266-0.0390625 5.83496-1.17676Q4.69727-2.31445 4.05762-3.81836Q3.41797-5.32227 3.41797-7.05078Q3.41797-8.7793 4.05762-10.2832Q4.69727-11.7871 5.83008-12.9297Q6.96289-14.0723 8.4668-14.7119Q9.9707-15.3516 11.6992-15.3516Q13.4277-15.3516 14.9316-14.7119Q16.4355-14.0723 17.5781-12.9297Q18.7207-11.7871 19.3652-10.2832Q20.0098-8.7793 20.0098-7.05078Q20.0098-5.32227 19.3701-3.81836Q18.7305-2.31445 17.5928-1.17676Q16.4551-0.0390625 14.9463 0.605469Q13.4375 1.25 11.709 1.25ZM7.39258-7.04102Q7.39258-6.68945 7.62695-6.46484Q7.86133-6.24023 8.23242-6.24023L10.8789-6.24023L10.8789-3.57422Q10.8789-3.21289 11.1035-2.9834Q11.3281-2.75391 11.6797-2.75391Q12.0508-2.75391 12.2852-2.9834Q12.5195-3.21289 12.5195-3.57422L12.5195-6.24023L15.1758-6.24023Q15.5371-6.24023 15.7715-6.46484Q16.0059-6.68945 16.0059-7.04102Q16.0059-7.41211 15.7715-7.6416Q15.5371-7.87109 15.1758-7.87109L12.5195-7.87109L12.5195-10.5176Q12.5195-10.8984 12.2852-11.1279Q12.0508-11.3574 11.6797-11.3574Q11.3281-11.3574 11.1035-11.1279Q10.8789-10.8984 10.8789-10.5176L10.8789-7.87109L8.23242-7.87109Q7.85156-7.87109 7.62207-7.6416Q7.39258-7.41211 7.39258-7.04102Z"/>
  </g>
  <g transform="matrix(1 0 0 1 305.646 1933)">
   <path d="M14.9707 5.66406Q17.0605 5.66406 18.96 5.01465Q20.8594 4.36523 22.4512 3.19336Q24.043 2.02148 25.2197 0.429688Q26.3965-1.16211 27.0459-3.06641Q27.6953-4.9707 27.6953-7.05078Q27.6953-9.14062 27.0459-11.04Q26.3965-12.9395 25.2197-14.5312Q24.043-16.123 22.4512-17.2998Q20.8594-18.4766 18.9551-19.126Q17.0508-19.7754 14.9609-19.7754Q12.8711-19.7754 10.9717-19.126Q9.07227-18.4766 7.48535-17.2998Q5.89844-16.123 4.72168-14.5312Q3.54492-12.9395 2.90039-11.04Q2.25586-9.14062 2.25586-7.05078Q2.25586-4.9707 2.90527-3.06641Q3.55469-1.16211 4.72656 0.429688Q5.89844 2.02148 7.49023 3.19336Q9.08203 4.36523 10.9814 5.01465Q12.8809 5.66406 14.9707 5.66406ZM14.9707 3.84766Q13.1641 3.84766 11.5283 3.2959Q9.89258 2.74414 8.53516 1.74805Q7.17773 0.751953 6.17676-0.610352Q5.17578-1.97266 4.62891-3.6084Q4.08203-5.24414 4.08203-7.05078Q4.08203-8.86719 4.62891-10.5029Q5.17578-12.1387 6.17188-13.501Q7.16797-14.8633 8.52539-15.8594Q9.88281-16.8555 11.5186-17.4023Q13.1543-17.9492 14.9609-17.9492Q16.7773-17.9492 18.4131-17.4023Q20.0488-16.8555 21.4111-15.8594Q22.7734-14.8633 23.7695-13.501Q24.7656-12.1387 25.3174-10.5029Q25.8691-8.86719 25.8691-7.05078Q25.8789-5.24414 25.332-3.6084Q24.7852-1.97266 23.7842-0.610352Q22.7832 0.751953 21.4209 1.74805Q20.0586 2.74414 18.4229 3.2959Q16.7871 3.84766 14.9707 3.84766ZM9.45312-7.04102Q9.45312-6.66016 9.71191-6.41113Q9.9707-6.16211 10.3711-6.16211L14.0625-6.16211L14.0625-2.46094Q14.0625-2.06055 14.3115-1.80664Q14.5605-1.55273 14.9414-1.55273Q15.3516-1.55273 15.6055-1.80664Q15.8594-2.06055 15.8594-2.46094L15.8594-6.16211L19.5605-6.16211Q19.9609-6.16211 20.2148-6.41113Q20.4688-6.66016 20.4688-7.04102Q20.4688-7.45117 20.2148-7.70508Q19.9609-7.95898 19.5605-7.95898L15.8594-7.95898L15.8594-11.6504Q15.8594-12.0605 15.6055-12.3145Q15.3516-12.5684 14.9414-12.5684Q14.5605-12.5684 14.3115-12.3096Q14.0625-12.0508 14.0625-11.6504L14.0625-7.95898L10.3711-7.95898Q9.96094-7.95898 9.70703-7.70508Q9.45312-7.45117 9.45312-7.04102Z"/>
  </g>
  <text style="stroke:none;fill:black;font-family:sans-serif;font-size:13;font-weight:bold;" transform="matrix(1 0 0 1 263 1953)">Design Variations</text>
  <text style="stroke:none;fill:black;font-family:sans-serif;font-size:13;" transform="matrix(1 0 0 1 263 1971)">Symbols are supported in up to nine weights and three scales.</text>
  <text style="stroke:none;fill:black;font-family:sans-serif;font-size:13;" transform="matrix(1 0 0 1 263 1989)">For optimal layout with text and other symbols, vertically align</text>
  <text style="stroke:none;fill:black;font-family:sans-serif;font-size:13;" transform="matrix(1 0 0 1 263 2007)">symbols with the adjacent text.</text>
  <line style="fill:none;stroke:#00AEEF;stroke-width:0.5;opacity:1.0;" x1="776" x2="776" y1="1919" y2="1933"/>
  <g transform="matrix(1 0 0 1 776 1933)">
   <path d="M3.31055 0.15625Q3.70117 0.15625 3.91602-0.00976562Q4.13086-0.175781 4.26758-0.585938L5.52734-4.0332L11.2891-4.0332L12.5488-0.585938Q12.6855-0.175781 12.9004-0.00976562Q13.1152 0.15625 13.4961 0.15625Q13.8867 0.15625 14.1162-0.0585938Q14.3457-0.273438 14.3457-0.644531Q14.3457-0.869141 14.2383-1.17188L9.6582-13.3691Q9.48242-13.8184 9.17969-14.043Q8.87695-14.2676 8.4082-14.2676Q7.5-14.2676 7.17773-13.3789L2.59766-1.16211Q2.49023-0.859375 2.49023-0.634766Q2.49023-0.263672 2.70996-0.0537109Q2.92969 0.15625 3.31055 0.15625ZM6.00586-5.51758L8.37891-12.0898L8.42773-12.0898L10.8008-5.51758Z"/>
  </g>
  <line style="fill:none;stroke:#00AEEF;stroke-width:0.5;opacity:1.0;" x1="793.197" x2="793.197" y1="1919" y2="1933"/>
  <text style="stroke:none;fill:black;font-family:sans-serif;font-size:13;font-weight:bold;" transform="matrix(1 0 0 1 776 1953)">Margins</text>
  <text style="stroke:none;fill:black;font-family:sans-serif;font-size:13;" transform="matrix(1 0 0 1 776 1971)">Leading and trailing margins on the left and right side of each symbol</text>
  <text style="stroke:none;fill:black;font-family:sans-serif;font-size:13;" transform="matrix(1 0 0 1 776 1989)">can be adjusted by modifying the x-location of the margin guidelines.</text>
  <text style="stroke:none;fill:black;font-family:sans-serif;font-size:13;" transform="matrix(1 0 0 1 776 2007)">Modifications are automatically applied proportionally to all</text>
  <text style="stroke:none;fill:black;font-family:sans-serif;font-size:13;" transform="matrix(1 0 0 1 776 2025)">scales and weights.</text>
  <g transform="matrix(1 0 0 1 1289 1933)">
   <path d="M2.8418 1.86523L4.54102 3.57422Q5.18555 4.22852 5.90332 4.17969Q6.62109 4.13086 7.31445 3.35938L18.0078-8.42773L17.041-9.4043L6.42578 2.27539Q6.16211 2.57812 5.89355 2.61719Q5.625 2.65625 5.27344 2.30469L4.10156 1.14258Q3.75 0.791016 3.79395 0.522461Q3.83789 0.253906 4.14062-0.0195312L15.6152-10.8203L14.6387-11.7871L3.04688-0.898438Q2.30469-0.214844 2.25098 0.498047Q2.19727 1.21094 2.8418 1.86523ZM9.25781-16.3281Q8.94531-16.0254 8.90625-15.6348Q8.86719-15.2441 9.04297-14.9512Q9.21875-14.6777 9.55566-14.541Q9.89258-14.4043 10.3809-14.5215Q11.4746-14.7754 12.5977-14.7314Q13.7207-14.6875 14.7949-13.9844L14.209-12.5293Q13.9551-11.9043 14.0674-11.4404Q14.1797-10.9766 14.5801-10.5664L16.875-8.25195Q17.2363-7.88086 17.5781-7.82227Q17.9199-7.76367 18.3398-7.8418L19.4043-8.03711L20.0684-7.36328L20.0293-6.80664Q20-6.43555 20.1221-6.12305Q20.2441-5.81055 20.6055-5.44922L21.3672-4.70703Q21.7285-4.3457 22.1533-4.33105Q22.5781-4.31641 22.9297-4.66797L25.8398-7.58789Q26.1914-7.93945 26.1816-8.35449Q26.1719-8.76953 25.8105-9.13086L25.0391-9.89258Q24.6875-10.2539 24.3799-10.3857Q24.0723-10.5176 23.7109-10.4883L23.1348-10.4395L22.4902-11.0742L22.7344-12.1973Q22.832-12.6172 22.6953-12.9834Q22.5586-13.3496 22.1191-13.7891L19.9219-15.9766Q18.6719-17.2168 17.2607-17.8369Q15.8496-18.457 14.4189-18.4814Q12.9883-18.5059 11.665-17.959Q10.3418-17.4121 9.25781-16.3281ZM10.752-15.957Q11.6602-16.6211 12.7002-16.9043Q13.7402-17.1875 14.8047-17.085Q15.8691-16.9824 16.8701-16.5137Q17.8711-16.0449 18.7012-15.2051L21.1328-12.793Q21.3086-12.6172 21.3525-12.4512Q21.3965-12.2852 21.3379-12.0312L21.0156-10.5469L22.5195-9.0625L23.5059-9.12109Q23.6914-9.13086 23.7891-9.09668Q23.8867-9.0625 24.0332-8.91602L24.6094-8.33984L22.168-5.89844L21.5918-6.47461Q21.4453-6.62109 21.4062-6.71875Q21.3672-6.81641 21.377-7.01172L21.4453-7.98828L19.9512-9.47266L18.4277-9.21875Q18.1836-9.16992 18.042-9.2041Q17.9004-9.23828 17.7148-9.41406L15.7129-11.416Q15.5176-11.5918 15.4932-11.7529Q15.4688-11.9141 15.5859-12.1875L16.4648-14.2773Q15.293-15.3711 13.8281-15.791Q12.3633-16.2109 10.8398-15.7617Q10.7227-15.7324 10.6885-15.8057Q10.6543-15.8789 10.752-15.957Z"/>
  </g>
  <text style="stroke:none;fill:black;font-family:sans-serif;font-size:13;font-weight:bold;" transform="matrix(1 0 0 1 1289 1953)">Exporting</text>
  <text style="stroke:none;fill:black;font-family:sans-serif;font-size:13;" transform="matrix(1 0 0 1 1289 1971)">Symbols should be outlined when exporting to ensure the</text>
  <text style="stroke:none;fill:black;font-family:sans-serif;font-size:13;" transform="matrix(1 0 0 1 1289 1989)">design is preserved when submitting to Xcode.</text>
  <text id="template-version" style="stroke:none;fill:black;font-family:sans-serif;font-size:13;text-anchor:end;" transform="matrix(1 0 0 1 3036 1933)">Template v.2.0</text>
  <text style="stroke:none;fill:black;font-family:sans-serif;font-size:13;text-anchor:end;" transform="matrix(1 0 0 1 3036 1951)">Requires Xcode 13 or greater</text>
  <text id="descriptive-name" style="stroke:none;fill:black;font-family:sans-serif;font-size:13;text-anchor:end;" transform="matrix(1 0 0 1 3036 1969)">Generated from gobackward.15</text>
  <text style="stroke:none;fill:black;font-family:sans-serif;font-size:13;text-anchor:end;" transform="matrix(1 0 0 1 3036 1987)">Typeset at 100 points</text>
  <text style="stroke:none;fill:black;font-family:sans-serif;font-size:13;" transform="matrix(1 0 0 1 263 726)">Small</text>
  <text style="stroke:none;fill:black;font-family:sans-serif;font-size:13;" transform="matrix(1 0 0 1 263 1156)">Medium</text>
  <text style="stroke:none;fill:black;font-family:sans-serif;font-size:13;" transform="matrix(1 0 0 1 263 1586)">Large</text>
 </g>
 <g id="Guides">
  <g id="H-reference" style="fill:#27AAE1;stroke:none;" transform="matrix(1 0 0 1 339 696)">
   <path d="M0.976562 0L3.66211 0L29.3457-67.1387L30.0293-67.1387L30.0293-70.459L28.125-70.459ZM11.6699-24.4629L46.9727-24.4629L46.2402-26.709L12.4512-26.709ZM55.127 0L57.7637 0L30.6152-70.459L29.4434-70.459L29.4434-67.1387Z"/>
  </g>
  <line id="Baseline-S" style="fill:none;stroke:#27AAE1;opacity:1;stroke-width:0.5;" x1="263" x2="3036" y1="696" y2="696"/>
  <line id="Capline-S" style="fill:none;stroke:#27AAE1;opacity:1;stroke-width:0.5;" x1="263" x2="3036" y1="625.541" y2="625.541"/>
  <g id="H-reference" style="fill:#27AAE1;stroke:none;" transform="matrix(1 0 0 1 339 1126)">
   <path d="M0.976562 0L3.66211 0L29.3457-67.1387L30.0293-67.1387L30.0293-70.459L28.125-70.459ZM11.6699-24.4629L46.9727-24.4629L46.2402-26.709L12.4512-26.709ZM55.127 0L57.7637 0L30.6152-70.459L29.4434-70.459L29.4434-67.1387Z"/>
  </g>
  <line id="Baseline-M" style="fill:none;stroke:#27AAE1;opacity:1;stroke-width:0.5;" x1="263" x2="3036" y1="1126" y2="1126"/>
  <line id="Capline-M" style="fill:none;stroke:#27AAE1;opacity:1;stroke-width:0.5;" x1="263" x2="3036" y1="1055.54" y2="1055.54"/>
  <g id="H-reference" style="fill:#27AAE1;stroke:none;" transform="matrix(1 0 0 1 339 1556)">
   <path d="M0.976562 0L3.66211 0L29.3457-67.1387L30.0293-67.1387L30.0293-70.459L28.125-70.459ZM11.6699-24.4629L46.9727-24.4629L46.2402-26.709L12.4512-26.709ZM55.127 0L57.7637 0L30.6152-70.459L29.4434-70.459L29.4434-67.1387Z"/>
  </g>
  <line id="Baseline-L" style="fill:none;stroke:#27AAE1;opacity:1;stroke-width:0.5;" x1="263" x2="3036" y1="1556" y2="1556"/>
  <line id="Capline-L" style="fill:none;stroke:#27AAE1;opacity:1;stroke-width:0.5;" x1="263" x2="3036" y1="1485.54" y2="1485.54"/>
  <line id="left-margin" style="fill:none;stroke:#00AEEF;stroke-width:0.5;opacity:1.0;" x1="1391.3" x2="1391.3" y1="1030.79" y2="1150.12"/>
  <line id="right-margin" style="fill:none;stroke:#00AEEF;stroke-width:0.5;opacity:1.0;" x1="1508.39" x2="1508.39" y1="1030.79" y2="1150.12"/>
 </g>
 <g id="Symbols">
  <g id="Black-L" transform="matrix(1 0 0 1 2854.05 1556)">
   <path d="M11.2793-35.2539Q11.2793-24.0234 14.7217-13.8428Q18.1641-3.66211 24.4385 4.83398Q30.7129 13.3301 39.2334 19.6045Q47.7539 25.8789 57.9346 29.3457Q68.1152 32.8125 79.3457 32.8125Q90.5762 32.8125 100.757 29.3457Q110.938 25.8789 119.458 19.6045Q127.979 13.3301 134.229 4.83398Q140.479-3.66211 143.945-13.8428Q147.412-24.0234 147.412-35.2539Q147.412-47.2656 143.481-58.0811Q139.551-68.8965 132.446-77.7344Q125.342-86.5723 115.796-92.7002Q106.25-98.8281 95.0195-101.465L95.0195-111.572Q95.0195-114.551 93.457-116.113Q91.8945-117.676 89.4531-117.578Q87.0117-117.48 84.3262-115.479L59.5215-97.3145Q56.2988-94.9707 56.3477-91.6016Q56.3965-88.2324 59.5215-85.9375L84.3262-67.6758Q86.9629-65.7227 89.4287-65.5762Q91.8945-65.4297 93.457-66.9922Q95.0195-68.5547 95.0195-71.6309L95.0195-80.1758Q102.002-77.7832 107.837-73.4375Q113.672-69.0918 117.969-63.1836Q122.266-57.2754 124.609-50.1953Q126.953-43.1152 126.953-35.2539Q126.953-27.3438 124.561-20.2148Q122.168-13.0859 117.798-7.12891Q113.428-1.17188 107.471 3.19824Q101.514 7.56836 94.3848 9.96094Q87.2559 12.3535 79.3457 12.3535Q71.4355 12.3535 64.2822 9.96094Q57.1289 7.56836 51.1719 3.19824Q45.2148-1.17188 40.8691-7.12891Q36.5234-13.0859 34.1064-20.2148Q31.6895-27.3438 31.7383-35.2539Q31.7383-41.8945 33.4229-47.876Q35.1074-53.8574 38.2812-59.1309Q41.4551-64.4043 45.8984-68.9941Q49.0723-72.4121 49.8047-76.6357Q50.5371-80.8594 47.3145-84.3262Q44.4336-87.4512 40.21-87.4023Q35.9863-87.3535 31.8848-83.6914Q25.7324-78.418 21.0938-70.4346Q16.4551-62.4512 13.8672-53.2715Q11.2793-44.0918 11.2793-35.2539ZM63.4277-7.08008Q66.4551-7.08008 68.2373-8.91113Q70.0195-10.7422 70.0195-13.916L70.0195-50.4395Q70.0195-54.6387 67.749-56.7871Q65.4785-58.9355 61.8164-58.9355Q59.7168-58.9355 57.7637-58.1299Q55.8105-57.3242 53.4668-55.2246L47.168-49.6582Q45.3613-47.9492 44.5312-46.4844Q43.7012-45.0195 43.7012-43.2617Q43.7012-41.0156 45.2393-39.4775Q46.7773-37.9395 48.9746-37.9395Q50.4883-37.9395 51.6113-38.4766Q52.7344-39.0137 53.8086-40.4785L56.6406-43.9941L56.9336-43.9941L56.9336-13.916Q56.9336-10.7422 58.6914-8.91113Q60.4492-7.08008 63.4277-7.08008ZM93.75-6.93359Q102.051-6.93359 106.958-11.8652Q111.865-16.7969 111.865-25.2441Q111.865-30.1758 109.912-33.667Q107.959-37.1582 104.761-38.9893Q101.562-40.8203 97.8027-40.8203Q94.8242-40.8203 92.3584-39.5752Q89.8926-38.3301 88.5742-36.084L88.3789-36.084L89.1602-47.3145L104.541-47.3145Q107.178-47.3145 108.716-48.9014Q110.254-50.4883 110.254-52.9785Q110.254-55.4199 108.74-56.9336Q107.227-58.4473 104.541-58.4473L85.2051-58.4473Q78.7598-58.4473 78.3691-50.9766L77.4414-33.7891Q77.1973-30.6641 78.8818-28.9062Q80.5664-27.1484 83.4961-27.1484Q85.8398-27.1484 86.8408-27.6611Q87.8418-28.1738 88.916-29.0039Q90.1367-29.8828 91.2842-30.4932Q92.4316-31.1035 93.9941-31.1035Q96.8262-31.1035 98.3398-29.2725Q99.8535-27.4414 99.8535-24.7559Q99.8535-21.9238 98.1689-19.9951Q96.4844-18.0664 93.9453-18.0664Q91.6504-18.0664 90.1855-19.2139Q88.7207-20.3613 87.4512-21.9238Q86.6699-22.8516 85.6689-23.4619Q84.668-24.0723 82.959-24.0723Q80.6152-24.0723 79.0771-22.5342Q77.5391-20.9961 77.5391-18.6035Q77.5391-17.7246 77.6855-16.8945Q77.832-16.0645 78.2715-15.0391Q79.5898-12.2559 83.6426-9.59473Q87.6953-6.93359 93.75-6.93359Z"/>
  </g>
  <g id="Heavy-L" transform="matrix(1 0 0 1 2558.39 1556)">
   <path d="M11.2793-35.2539Q11.2793-24.2188 14.6729-14.1846Q18.0664-4.15039 24.2432 4.22363Q30.4199 12.5977 38.8184 18.7744Q47.2168 24.9512 57.2266 28.3691Q67.2363 31.7871 78.2715 31.7871Q89.3555 31.7871 99.3652 28.3691Q109.375 24.9512 117.749 18.7744Q126.123 12.5977 132.3 4.22363Q138.477-4.15039 141.895-14.1846Q145.312-24.2188 145.312-35.2539Q145.312-47.1191 141.382-57.8369Q137.451-68.5547 130.347-77.2949Q123.242-86.0352 113.721-92.041Q104.199-98.0469 93.0664-100.586L93.0664-110.498Q93.0664-113.232 91.6748-114.673Q90.2832-116.113 88.1104-116.016Q85.9375-115.918 83.4961-114.16L59.8633-97.0215Q56.9336-94.873 56.9824-91.8701Q57.0312-88.8672 59.8633-86.8164L83.4961-69.5801Q85.8887-67.8223 88.0859-67.7002Q90.2832-67.5781 91.6748-69.0186Q93.0664-70.459 93.0664-73.291L93.0664-82.1289Q100.537-79.834 106.836-75.3662Q113.135-70.8984 117.773-64.6973Q122.412-58.4961 124.951-51.0254Q127.49-43.5547 127.49-35.2539Q127.49-27.0508 125.024-19.6777Q122.559-12.3047 118.042-6.15234Q113.525 0 107.373 4.5166Q101.221 9.0332 93.8477 11.5234Q86.4746 14.0137 78.2715 14.0137Q70.1172 14.0137 62.7197 11.5234Q55.3223 9.0332 49.1699 4.5166Q43.0176 0 38.501-6.15234Q33.9844-12.3047 31.4941-19.6777Q29.0039-27.0508 29.0527-35.2539Q29.0527-42.5293 31.0547-49.0723Q33.0566-55.6152 36.7188-61.2793Q40.3809-66.9434 45.459-71.582Q48.291-74.5117 48.9502-78.1494Q49.6094-81.7871 46.9238-84.8145Q44.4824-87.5977 40.7959-87.6465Q37.1094-87.6953 33.5449-84.5703Q26.9043-79.1992 21.875-71.1914Q16.8457-63.1836 14.0625-53.8574Q11.2793-44.5312 11.2793-35.2539ZM61.7676-7.71484Q64.4531-7.71484 66.04-9.35059Q67.627-10.9863 67.627-13.8184L67.627-51.3672Q67.627-55.0781 65.6494-56.9824Q63.6719-58.8867 60.4492-58.8867Q58.5449-58.8867 56.8359-58.1787Q55.127-57.4707 52.9785-55.6152L45.9473-49.9023Q44.3359-48.4375 43.6035-47.1436Q42.8711-45.8496 42.8711-44.2383Q42.8711-42.2363 44.2627-40.8203Q45.6543-39.4043 47.6562-39.4043Q49.0234-39.4043 50-39.8682Q50.9766-40.332 51.9531-41.5527L55.8105-45.459L56.0059-45.459L56.0059-13.8184Q56.0059-10.9863 57.5684-9.35059Q59.1309-7.71484 61.7676-7.71484ZM92.5781-7.37305Q100.781-7.37305 105.64-12.2314Q110.498-17.0898 110.498-25.293Q110.498-30.1758 108.545-33.6914Q106.592-37.207 103.345-39.0869Q100.098-40.9668 96.1426-40.9668Q93.1641-40.9668 90.5762-39.6729Q87.9883-38.3789 86.6211-36.084L86.5234-36.084L87.4023-48.3398L103.857-48.3398Q106.152-48.3398 107.544-49.7559Q108.936-51.1719 108.936-53.3691Q108.936-55.6152 107.568-56.958Q106.201-58.3008 103.857-58.3008L84.1309-58.3008Q78.1738-58.3008 77.7832-51.5137L76.709-33.8867Q76.5137-31.0059 78.0273-29.4189Q79.541-27.832 82.2266-27.832Q84.3262-27.832 85.2783-28.3203Q86.2305-28.8086 87.3535-29.6387Q88.7207-30.7617 90.0391-31.4209Q91.3574-32.0801 93.0664-32.0801Q96.1914-32.0801 97.9492-30.0537Q99.707-28.0273 99.707-24.9023Q99.707-21.7285 97.7295-19.5557Q95.752-17.3828 92.8223-17.3828Q90.332-17.3828 88.5986-18.6523Q86.8652-19.9219 85.6445-21.7285Q84.9121-22.7051 83.96-23.3154Q83.0078-23.9258 81.4453-23.9258Q79.3457-23.9258 77.9785-22.5342Q76.6113-21.1426 76.6113-18.9941Q76.6113-18.1641 76.7334-17.4072Q76.8555-16.6504 77.2461-15.7227Q78.5645-12.7441 82.5928-10.0586Q86.6211-7.37305 92.5781-7.37305Z"/>
  </g>
  <g id="Bold-L" transform="matrix(1 0 0 1 2262.85 1556)">
   <path d="M11.2793-35.2539Q11.2793-24.4141 14.624-14.5752Q17.9688-4.73633 24.0479 3.51562Q30.127 11.7676 38.3545 17.8467Q46.582 23.9258 56.4209 27.2705Q66.2598 30.6152 77.0996 30.6152Q87.9395 30.6152 97.7783 27.2705Q107.617 23.9258 115.869 17.8467Q124.121 11.7676 130.176 3.51562Q136.23-4.73633 139.6-14.5752Q142.969-24.4141 142.969-35.2539Q142.969-47.0215 139.038-57.6172Q135.107-68.2129 128.027-76.8311Q120.947-85.4492 111.45-91.333Q101.953-97.2168 90.8691-99.5605L90.8691-109.326Q90.8691-111.768 89.6729-113.062Q88.4766-114.355 86.5967-114.282Q84.7168-114.209 82.6172-112.695L60.3027-96.6797Q57.7148-94.8242 57.7393-92.2363Q57.7637-89.6484 60.3027-87.793L82.5684-71.7285Q84.668-70.166 86.5723-70.0928Q88.4766-70.0195 89.6729-71.3135Q90.8691-72.6074 90.8691-75.0977L90.8691-84.2773Q98.9258-82.0801 105.737-77.4902Q112.549-72.9004 117.578-66.4062Q122.607-59.9121 125.366-52.002Q128.125-44.0918 128.125-35.2539Q128.125-26.7578 125.562-19.1162Q122.998-11.4746 118.335-5.07812Q113.672 1.31836 107.3 6.00586Q100.928 10.6934 93.2617 13.2568Q85.5957 15.8203 77.0996 15.8203Q68.6523 15.8203 60.9863 13.2568Q53.3203 10.6934 46.9238 6.00586Q40.5273 1.31836 35.8643-5.07812Q31.2012-11.4746 28.6133-19.1162Q26.0254-26.7578 26.0742-35.2539Q26.0742-43.2617 28.3936-50.4395Q30.7129-57.6172 34.9609-63.7207Q39.209-69.8242 45.0195-74.5117Q47.4121-76.8555 47.998-79.834Q48.584-82.8125 46.4844-85.4004Q44.5312-87.7441 41.4551-87.915Q38.3789-88.0859 35.4492-85.5469Q28.2227-80.0293 22.7783-71.9971Q17.334-63.9648 14.3066-54.4922Q11.2793-45.0195 11.2793-35.2539ZM60.0098-8.39844Q62.3047-8.39844 63.6719-9.81445Q65.0391-11.2305 65.0391-13.7207L65.0391-52.4414Q65.0391-55.6152 63.3789-57.2266Q61.7188-58.8379 58.9844-58.8379Q57.3242-58.8379 55.8594-58.2275Q54.3945-57.6172 52.4902-56.0547L44.6777-50.1465Q43.3105-48.9746 42.6514-47.8516Q41.9922-46.7285 41.9922-45.3613Q41.9922-43.5547 43.2373-42.3096Q44.4824-41.0645 46.2402-41.0645Q47.4121-41.0645 48.2178-41.4307Q49.0234-41.7969 49.9512-42.8223L54.8828-47.0703L55.0293-47.0703L55.0293-13.7207Q55.0293-11.2793 56.3721-9.83887Q57.7148-8.39844 60.0098-8.39844ZM91.3574-7.91016Q99.4141-7.91016 104.224-12.6709Q109.033-17.4316 109.033-25.3906Q109.033-30.1758 107.104-33.7158Q105.176-37.2559 101.831-39.1846Q98.4863-41.1133 94.3359-41.1133Q91.3086-41.1133 88.5986-39.7705Q85.8887-38.4277 84.5215-36.084L84.5215-36.084L85.5469-49.4629L103.125-49.4629Q105.078-49.4629 106.299-50.708Q107.52-51.9531 107.52-53.8574Q107.52-55.8105 106.299-56.9824Q105.078-58.1543 103.125-58.1543L82.959-58.1543Q77.5391-58.1543 77.1973-52.0996L75.9766-33.9844Q75.7812-31.3965 77.124-30.0049Q78.4668-28.6133 80.8594-28.6133Q82.7148-28.6133 83.6182-29.0527Q84.5215-29.4922 85.6445-30.3223Q87.2559-31.7383 88.7207-32.4707Q90.1855-33.2031 92.0898-33.2031Q95.5566-33.2031 97.5586-30.9326Q99.5605-28.6621 99.5605-25.0977Q99.5605-21.4844 97.29-19.043Q95.0195-16.6016 91.6016-16.6016Q88.916-16.6016 86.9141-17.9932Q84.9121-19.3848 83.6914-21.5332Q83.0078-22.5586 82.1045-23.1445Q81.2012-23.7305 79.834-23.7305Q77.9785-23.7305 76.7822-22.5342Q75.5859-21.3379 75.5859-19.4336Q75.5859-18.7012 75.708-18.0176Q75.8301-17.334 76.1719-16.5527Q77.4414-13.3301 81.4697-10.6201Q85.498-7.91016 91.3574-7.91016Z"/>
  </g>
  <g id="Semibold-L" transform="matrix(1 0 0 1 1966.97 1556)">
   <path d="M11.2793-35.2051Q11.2793-24.5117 14.5996-14.7949Q17.9199-5.07812 23.9014 3.05176Q29.8828 11.1816 38.0127 17.1875Q46.1426 23.1934 55.8594 26.4893Q65.5762 29.7852 76.2695 29.7852Q86.9629 29.7852 96.6797 26.4893Q106.396 23.1934 114.551 17.1875Q122.705 11.1816 128.687 3.05176Q134.668-5.07812 137.988-14.7949Q141.309-24.5117 141.309-35.2051Q141.309-46.875 137.378-57.3975Q133.447-67.9199 126.392-76.4648Q119.336-85.0098 109.863-90.7959Q100.391-96.582 89.3066-98.877L89.3066-108.496Q89.3066-110.742 88.2812-111.938Q87.2559-113.135 85.5713-113.086Q83.8867-113.037 81.9824-111.67L60.5469-96.4355Q58.2031-94.7266 58.2275-92.4316Q58.252-90.1367 60.5469-88.4277L81.9336-73.1934Q83.8379-71.7773 85.5469-71.7285Q87.2559-71.6797 88.2812-72.876Q89.3066-74.0723 89.3066-76.3672L89.3066-85.791Q97.8027-83.6426 104.98-78.9551Q112.158-74.2676 117.456-67.5537Q122.754-60.8398 125.659-52.6367Q128.564-44.4336 128.564-35.2051Q128.564-26.5625 125.928-18.7012Q123.291-10.8398 118.506-4.29688Q113.721 2.24609 107.202 7.03125Q100.684 11.8164 92.8467 14.4531Q85.0098 17.0898 76.2695 17.0898Q67.627 17.0898 59.7656 14.4531Q51.9043 11.8164 45.3613 7.03125Q38.8184 2.24609 34.0332-4.29688Q29.248-10.8398 26.6113-18.7012Q23.9746-26.5625 23.9746-35.2051Q24.0234-43.75 26.5625-51.3672Q29.1016-58.9844 33.7402-65.3809Q38.3789-71.7773 44.6777-76.5137Q46.7773-78.418 47.3145-80.9814Q47.8516-83.5449 46.1426-85.7422Q44.5801-87.8418 41.9189-88.0859Q39.2578-88.3301 36.7676-86.2305Q29.1016-80.6152 23.3887-72.5586Q17.6758-64.502 14.4775-54.9316Q11.2793-45.3613 11.2793-35.2051ZM58.7402-8.83789Q60.7422-8.83789 61.9629-10.1318Q63.1836-11.4258 63.1836-13.623L63.1836-53.1738Q63.1836-55.957 61.7676-57.373Q60.3516-58.7891 57.9102-58.7891Q56.4453-58.7891 55.1514-58.252Q53.8574-57.7148 52.0996-56.3477L43.7012-50.3418Q42.5293-49.3652 41.9434-48.3643Q41.3574-47.3633 41.3574-46.1426Q41.3574-44.4824 42.4805-43.335Q43.6035-42.1875 45.2148-42.1875Q46.2402-42.1875 46.9482-42.4805Q47.6562-42.7734 48.4863-43.6523L54.248-48.1934L54.3457-48.1934L54.3457-13.623Q54.3457-11.4258 55.5176-10.1318Q56.6895-8.83789 58.7402-8.83789ZM90.4297-8.25195Q98.3887-8.25195 103.198-12.9395Q108.008-17.627 108.008-25.4395Q108.008-30.127 106.055-33.6914Q104.102-37.2559 100.732-39.2334Q97.3633-41.2109 93.0664-41.2109Q90.0391-41.2109 87.207-39.8438Q84.375-38.4766 83.0566-36.084L83.1055-36.084L84.1797-50.1953L102.588-50.1953Q104.248-50.1953 105.371-51.3184Q106.494-52.4414 106.494-54.1992Q106.494-55.9082 105.396-56.9824Q104.297-58.0566 102.588-58.0566L82.1289-58.0566Q77.0996-58.0566 76.709-52.4902L75.4395-34.0332Q75.2441-31.6406 76.4404-30.3955Q77.6367-29.1504 79.834-29.1504Q81.543-29.1504 82.3975-29.541Q83.252-29.9316 84.4238-30.8105Q86.1816-32.4219 87.7686-33.1787Q89.3555-33.9355 91.3574-33.9355Q95.0684-33.9355 97.2656-31.5186Q99.4629-29.1016 99.4629-25.2441Q99.4629-21.2891 96.9727-18.6768Q94.4824-16.0645 90.7227-16.0645Q87.8906-16.0645 85.6934-17.5537Q83.4961-19.043 82.3242-21.3379Q81.6406-22.4121 80.7861-22.998Q79.9316-23.584 78.6621-23.584Q77.002-23.584 75.9277-22.5098Q74.8535-21.4355 74.8535-19.7266Q74.8535-19.043 74.9756-18.4082Q75.0977-17.7734 75.3418-17.0898Q76.6602-13.6719 80.6641-10.9619Q84.668-8.25195 90.4297-8.25195Z"/>
  </g>
  <g id="Medium-L" transform="matrix(1 0 0 1 1670.87 1556)">
   <path d="M11.2793-35.2051Q11.2793-24.6094 14.5508-14.9902Q17.8223-5.37109 23.7549 2.68555Q29.6875 10.7422 37.7686 16.6992Q45.8496 22.6562 55.4688 25.9033Q65.0879 29.1504 75.6836 29.1504Q86.2305 29.1504 95.8496 25.9033Q105.469 22.6562 113.55 16.6992Q121.631 10.7422 127.563 2.68555Q133.496-5.37109 136.792-14.9902Q140.088-24.6094 140.088-35.2051Q140.088-46.8262 136.157-57.2754Q132.227-67.7246 125.171-76.1963Q118.115-84.668 108.667-90.4053Q99.2188-96.1426 88.1836-98.3398L88.1836-107.861Q88.1836-110.01 87.2314-111.108Q86.2793-112.207 84.7656-112.158Q83.252-112.109 81.4941-110.889L60.7422-96.2402Q58.5938-94.6777 58.5938-92.6025Q58.5938-90.5273 60.7422-88.9648L81.4453-74.2676Q83.2031-72.998 84.7412-72.9492Q86.2793-72.9004 87.2314-74.0234Q88.1836-75.1465 88.1836-77.2949L88.1836-86.9141Q96.9727-84.8145 104.395-80.0537Q111.816-75.293 117.31-68.4326Q122.803-61.5723 125.83-53.125Q128.857-44.6777 128.857-35.2051Q128.857-26.3672 126.196-18.3838Q123.535-10.4004 118.652-3.73535Q113.77 2.92969 107.129 7.8125Q100.488 12.6953 92.5049 15.3564Q84.5215 18.0176 75.6836 18.0176Q66.8457 18.0176 58.8379 15.3564Q50.8301 12.6953 44.1895 7.8125Q37.5488 2.92969 32.6416-3.73535Q27.7344-10.4004 25.0732-18.3838Q22.4121-26.3672 22.4121-35.2051Q22.4609-44.0918 25.1709-52.0508Q27.8809-60.0098 32.8369-66.626Q37.793-73.2422 44.4336-78.0273Q46.2891-79.6387 46.8018-81.8604Q47.3145-84.082 45.8984-86.0352Q44.5801-87.9395 42.2363-88.2324Q39.8926-88.5254 37.7441-86.7188Q29.7852-81.0547 23.8525-72.998Q17.9199-64.9414 14.5996-55.2734Q11.2793-45.6055 11.2793-35.2051ZM57.7637-9.17969Q59.5703-9.17969 60.6689-10.3516Q61.7676-11.5234 61.7676-13.5742L61.7676-53.7109Q61.7676-56.2012 60.5225-57.4951Q59.2773-58.7891 57.0801-58.7891Q55.7617-58.7891 54.6143-58.3008Q53.4668-57.8125 51.8066-56.5918L43.0176-50.4395Q41.9434-49.6094 41.4062-48.7061Q40.8691-47.8027 40.8691-46.7285Q40.8691-45.166 41.8945-44.0918Q42.9199-43.0176 44.4824-43.0176Q45.3613-43.0176 45.9961-43.2861Q46.6309-43.5547 47.4121-44.2871L53.7109-49.0234L53.7598-49.0234L53.7598-13.5742Q53.7598-11.5723 54.8584-10.376Q55.957-9.17969 57.7637-9.17969ZM89.7461-8.49609Q97.6562-8.49609 102.417-13.1592Q107.178-17.8223 107.178-25.4883Q107.178-30.127 105.249-33.6914Q103.32-37.2559 99.9023-39.2822Q96.4844-41.3086 92.0898-41.3086Q89.0137-41.3086 86.1328-39.8926Q83.252-38.4766 81.8848-36.084L82.0312-36.084L83.1543-50.7812L102.148-50.7812Q103.662-50.7812 104.688-51.8066Q105.713-52.832 105.713-54.4434Q105.713-56.0059 104.688-56.9824Q103.662-57.959 102.148-57.959L81.4941-57.959Q76.709-57.959 76.3672-52.832L75-34.1309Q74.8535-31.8359 75.9521-30.6885Q77.0508-29.541 79.1016-29.541Q80.6641-29.541 81.4941-29.9072Q82.3242-30.2734 83.4961-31.1523Q85.3516-32.9102 87.0361-33.7158Q88.7207-34.5215 90.8203-34.5215Q94.6777-34.5215 97.0215-31.9824Q99.3652-29.4434 99.3652-25.293Q99.3652-21.1426 96.7041-18.4082Q94.043-15.6738 90.0879-15.6738Q87.1094-15.6738 84.7656-17.2119Q82.4219-18.75 81.25-21.2402Q80.6152-22.3145 79.7852-22.9248Q78.9551-23.5352 77.7832-23.5352Q76.2695-23.5352 75.293-22.5342Q74.3164-21.5332 74.3164-19.9219Q74.3164-19.2871 74.4141-18.7012Q74.5117-18.1152 74.7559-17.4805Q76.0254-13.9648 80.0293-11.2305Q84.0332-8.49609 89.7461-8.49609Z"/>
  </g>
  <g id="Regular-L" transform="matrix(1 0 0 1 1374.97 1556)">
   <path d="M11.2793-35.2051Q11.2793-24.7559 14.5264-15.2588Q17.7734-5.76172 23.6328 2.19727Q29.4922 10.1562 37.4512 16.04Q45.4102 21.9238 54.9072 25.1465Q64.4043 28.3691 74.8535 28.3691Q85.3027 28.3691 94.7998 25.1465Q104.297 21.9238 112.256 16.04Q120.215 10.1562 126.099 2.19727Q131.982-5.76172 135.229-15.2588Q138.477-24.7559 138.477-35.2051Q138.477-46.7285 134.546-57.1045Q130.615-67.4805 123.56-75.8789Q116.504-84.2773 107.08-89.917Q97.6562-95.5566 86.6699-97.6562L86.6699-107.031Q86.6699-108.984 85.8643-109.985Q85.0586-110.986 83.7402-110.962Q82.4219-110.938 80.8594-109.863L61.0352-95.9961Q59.082-94.6289 59.082-92.8223Q59.082-91.0156 61.0352-89.5996L80.8105-75.7324Q82.373-74.6094 83.7158-74.585Q85.0586-74.5605 85.8643-75.5859Q86.6699-76.6113 86.6699-78.5645L86.6699-88.3789Q95.8496-86.377 103.638-81.5186Q111.426-76.6602 117.188-69.5801Q122.949-62.5 126.123-53.7598Q129.297-45.0195 129.297-35.2051Q129.297-26.1719 126.562-17.9932Q123.828-9.81445 118.848-3.00293Q113.867 3.80859 107.08 8.81348Q100.293 13.8184 92.1143 16.5527Q83.9355 19.2871 74.8535 19.2871Q65.8203 19.2871 57.6416 16.5527Q49.4629 13.8184 42.6514 8.81348Q35.8398 3.80859 30.835-3.00293Q25.8301-9.81445 23.0957-17.9932Q20.3613-26.1719 20.3613-35.2051Q20.4102-44.5801 23.3643-52.9785Q26.3184-61.377 31.6406-68.2861Q36.9629-75.1953 44.0918-80.0293Q45.7031-81.25 46.167-83.0078Q46.6309-84.7656 45.6055-86.4258Q44.6289-88.0371 42.7002-88.4033Q40.7715-88.7695 39.0137-87.4023Q30.6641-81.6406 24.4385-73.5596Q18.2129-65.4785 14.7461-55.7129Q11.2793-45.9473 11.2793-35.2051ZM56.4941-9.66797Q58.0566-9.66797 59.0088-10.6934Q59.9609-11.7188 59.9609-13.4766L59.9609-54.4434Q59.9609-56.543 58.9355-57.6416Q57.9102-58.7402 56.0547-58.7402Q54.8828-58.7402 53.9062-58.3252Q52.9297-57.9102 51.416-56.8848L42.0898-50.6348Q41.1621-50 40.6982-49.2188Q40.2344-48.4375 40.2344-47.4609Q40.2344-46.0938 41.1621-45.1172Q42.0898-44.1406 43.457-44.1406Q44.2383-44.1406 44.751-44.3359Q45.2637-44.5312 45.9961-45.1172L53.0762-50.1465L53.0762-50.1465L53.0762-13.4766Q53.0762-11.7676 54.0039-10.7178Q54.9316-9.66797 56.4941-9.66797ZM88.8672-8.83789Q96.6797-8.83789 101.416-13.4277Q106.152-18.0176 106.152-25.5371Q106.152-30.127 104.224-33.7158Q102.295-37.3047 98.8281-39.3555Q95.3613-41.4062 90.8203-41.4062Q87.7441-41.4062 84.7656-39.9658Q81.7871-38.5254 80.4199-36.084L80.6152-36.084L81.8359-51.5625L101.611-51.5625Q102.881-51.5625 103.784-52.4658Q104.688-53.3691 104.688-54.7363Q104.688-56.1523 103.784-57.0068Q102.881-57.8613 101.611-57.8613L80.6641-57.8613Q76.2695-57.8613 75.9277-53.2227L74.4629-34.1797Q74.3164-32.0801 75.293-31.0791Q76.2695-30.0781 78.125-30.0781Q79.4922-30.0781 80.2979-30.4199Q81.1035-30.7617 82.2754-31.6406Q84.2773-33.5938 86.084-34.4238Q87.8906-35.2539 90.0879-35.2539Q94.1895-35.2539 96.7041-32.5684Q99.2188-29.8828 99.2188-25.4395Q99.2188-20.9961 96.3623-18.0664Q93.5059-15.1367 89.209-15.1367Q86.084-15.1367 83.5449-16.7725Q81.0059-18.4082 79.8828-21.0938Q79.248-22.2168 78.4668-22.8027Q77.6855-23.3887 76.6602-23.3887Q75.293-23.3887 74.4385-22.5098Q73.584-21.6309 73.584-20.2148Q73.584-19.6289 73.6816-19.0918Q73.7793-18.5547 73.9746-18.0176Q75.2441-14.3555 79.2236-11.5967Q83.2031-8.83789 88.8672-8.83789Z"/>
  </g>
  <g id="Light-L" transform="matrix(1 0 0 1 1079.18 1556)">
   <path d="M11.2793-35.1562Q11.2793-24.8535 14.4775-15.4785Q17.6758-6.10352 23.4375 1.7334Q29.1992 9.57031 37.0361 15.3564Q44.873 21.1426 54.248 24.3164Q63.623 27.4902 73.9258 27.4902Q84.2285 27.4902 93.6035 24.3164Q102.979 21.1426 110.815 15.3564Q118.652 9.57031 124.438 1.7334Q130.225-6.10352 133.423-15.4785Q136.621-24.8535 136.621-35.1562Q136.621-46.582 132.715-56.8359Q128.809-67.0898 121.826-75.3906Q114.844-83.6914 105.493-89.2334Q96.1426-94.7754 85.2539-96.7773L85.2539-106.641Q85.2539-108.252 84.5947-109.082Q83.9355-109.912 82.8125-109.912Q81.6895-109.912 80.3711-108.984L60.9863-95.4102Q59.3262-94.2383 59.3262-92.749Q59.3262-91.2598 60.9863-90.0391L80.3223-76.4648Q81.6895-75.5371 82.8125-75.5127Q83.9355-75.4883 84.5947-76.3428Q85.2539-77.1973 85.2539-78.8086L85.2539-89.7461Q94.7754-87.793 102.881-82.8369Q110.986-77.8809 117.017-70.6055Q123.047-63.3301 126.367-54.2969Q129.688-45.2637 129.688-35.1562Q129.688-25.9277 126.88-17.5781Q124.072-9.22852 118.945-2.24609Q113.818 4.73633 106.885 9.86328Q99.9512 14.9902 91.5771 17.7979Q83.2031 20.6055 73.9258 20.6055Q64.6973 20.6055 56.3232 17.7979Q47.9492 14.9902 40.9912 9.86328Q34.0332 4.73633 28.9062-2.24609Q23.7793-9.22852 20.9717-17.5781Q18.1641-25.9277 18.1641-35.1562Q18.2129-45.0684 21.4355-53.9062Q24.6582-62.7441 30.4443-69.9219Q36.2305-77.0996 43.9453-82.0312Q45.166-82.9102 45.5322-84.2529Q45.8984-85.5957 45.1172-86.8652Q44.3848-88.0859 42.9443-88.3789Q41.5039-88.6719 40.1855-87.6465Q31.4941-82.0801 25-73.999Q18.5059-65.918 14.8926-56.0059Q11.2793-46.0938 11.2793-35.1562ZM55.5664-10.0098Q56.7871-10.0098 57.5684-10.8398Q58.3496-11.6699 58.3496-13.0371L58.3496-55.7129Q58.3496-57.3242 57.5195-58.2031Q56.6895-59.082 55.1758-59.082Q54.1992-59.082 53.418-58.7646Q52.6367-58.4473 51.3672-57.6172L41.1621-50.8301Q40.3809-50.3418 40.0146-49.7314Q39.6484-49.1211 39.6484-48.291Q39.6484-47.2168 40.3809-46.4355Q41.1133-45.6543 42.2363-45.6543Q42.8223-45.6543 43.2129-45.8008Q43.6035-45.9473 44.1406-46.3867L52.6855-52.1973L52.832-52.1973L52.832-13.0371Q52.832-11.6699 53.5645-10.8398Q54.2969-10.0098 55.5664-10.0098ZM88.4766-9.0332Q96.1914-9.0332 100.928-13.5742Q105.664-18.1152 105.664-25.5371Q105.664-30.0781 103.711-33.6426Q101.758-37.207 98.2666-39.2578Q94.7754-41.3086 90.1855-41.3086Q86.9629-41.3086 83.8867-39.8193Q80.8105-38.3301 79.1992-35.791L79.1992-35.791L80.6152-53.0273L101.611-53.0273Q102.686-53.0273 103.418-53.7598Q104.15-54.4922 104.15-55.5664Q104.15-56.6895 103.418-57.373Q102.686-58.0566 101.611-58.0566L79.5898-58.0566Q75.9766-58.0566 75.6836-54.2969L74.1699-33.9355Q74.0723-32.2754 74.8535-31.4453Q75.6348-30.6152 77.1484-30.6152Q78.2715-30.6152 78.9062-30.9082Q79.541-31.2012 80.5176-31.9336Q82.7637-34.3262 84.8877-35.3271Q87.0117-36.3281 89.5996-36.3281Q94.2383-36.3281 97.1436-33.3252Q100.049-30.3223 100.049-25.4395Q100.049-20.5566 96.8506-17.334Q93.6523-14.1113 88.7695-14.1113Q85.1562-14.1113 82.2754-16.0156Q79.3945-17.9199 78.3691-20.8984Q77.8809-21.875 77.2461-22.3633Q76.6113-22.8516 75.7324-22.8516Q74.6094-22.8516 73.9258-22.1436Q73.2422-21.4355 73.2422-20.3125Q73.2422-19.8242 73.3154-19.4092Q73.3887-18.9941 73.5352-18.5547Q74.707-14.5996 78.8086-11.8164Q82.9102-9.0332 88.4766-9.0332Z"/>
  </g>
  <g id="Thin-L" transform="matrix(1 0 0 1 783.693 1556)">
   <path d="M11.2793-35.1562Q11.2793-25 14.4043-15.7959Q17.5293-6.5918 23.1689 1.09863Q28.8086 8.78906 36.5234 14.4531Q44.2383 20.1172 53.418 23.2178Q62.5977 26.3184 72.7051 26.3184Q82.8613 26.3184 92.041 23.2178Q101.221 20.1172 108.911 14.4531Q116.602 8.78906 122.266 1.09863Q127.93-6.5918 131.055-15.7959Q134.18-25 134.18-35.1562Q134.18-46.4355 130.322-56.5186Q126.465-66.6016 119.58-74.7314Q112.695-82.8613 103.442-88.3057Q94.1895-93.75 83.4473-95.6543L83.4473-106.152Q83.4473-107.275 82.959-107.91Q82.4707-108.545 81.6162-108.545Q80.7617-108.545 79.7363-107.812L60.9375-94.6777Q59.6191-93.75 59.6191-92.6514Q59.6191-91.5527 60.9375-90.625L79.7363-77.4414Q80.7617-76.709 81.6162-76.709Q82.4707-76.709 82.959-77.3438Q83.4473-77.9785 83.4473-79.1016L83.4473-91.6016Q93.4082-89.6973 101.929-84.5947Q110.449-79.4922 116.797-71.9482Q123.145-64.4043 126.66-55.0049Q130.176-45.6055 130.176-35.1562Q130.176-25.5859 127.271-16.9922Q124.365-8.39844 119.092-1.2207Q113.818 5.95703 106.641 11.2305Q99.4629 16.5039 90.8447 19.4336Q82.2266 22.3633 72.7051 22.3633Q63.2324 22.3633 54.6143 19.4336Q45.9961 16.5039 38.8184 11.2305Q31.6406 5.95703 26.3672-1.2207Q21.0938-8.39844 18.1885-16.9922Q15.2832-25.5859 15.2832-35.1562Q15.2832-45.6543 18.8477-55.1025Q22.4121-64.5508 28.833-72.0947Q35.2539-79.6387 43.75-84.668Q44.4824-85.1562 44.7021-85.9375Q44.9219-86.7188 44.4824-87.5Q44.0918-88.1348 43.2861-88.3545Q42.4805-88.5742 41.6992-87.9883Q32.6172-82.666 25.7568-74.5605Q18.8965-66.4551 15.0879-56.3965Q11.2793-46.3379 11.2793-35.1562ZM54.3945-10.4492Q55.1758-10.4492 55.7129-11.0107Q56.25-11.5723 56.25-12.5L56.25-57.4219Q56.25-58.3496 55.6641-58.96Q55.0781-59.5703 54.0527-59.5703Q53.3203-59.5703 52.7832-59.3506Q52.2461-59.1309 51.3672-58.5938L39.9414-51.123Q39.4043-50.7812 39.1602-50.3906Q38.916-50 38.916-49.4141Q38.916-48.6816 39.4043-48.1934Q39.8926-47.7051 40.6738-47.7051Q41.0156-47.7051 41.2354-47.7783Q41.4551-47.8516 41.748-48.0957L52.1973-54.8828L52.5391-54.8828L52.5391-12.5Q52.5391-11.5723 53.0518-11.0107Q53.5645-10.4492 54.3945-10.4492ZM87.9883-9.27734Q95.6055-9.27734 100.342-13.7695Q105.078-18.2617 105.078-25.5371Q105.078-30.0293 103.076-33.5693Q101.074-37.1094 97.5586-39.1602Q94.043-41.2109 89.4531-41.2109Q85.9375-41.2109 82.7393-39.6484Q79.541-38.0859 77.6367-35.4492L77.3926-35.4492L79.0527-54.9316L101.66-54.9316Q102.49-54.9316 102.979-55.4443Q103.467-55.957 103.467-56.6895Q103.467-57.4707 102.979-57.9102Q102.49-58.3496 101.66-58.3496L78.2715-58.3496Q75.6348-58.3496 75.4395-55.7129L73.8281-33.6426Q73.7305-32.5195 74.2676-31.9092Q74.8047-31.2988 75.8789-31.2988Q76.6602-31.2988 77.0996-31.5674Q77.5391-31.8359 78.1738-32.3242Q80.7617-35.3027 83.3252-36.499Q85.8887-37.6953 88.9648-37.6953Q94.3848-37.6953 97.8027-34.3018Q101.221-30.9082 101.221-25.4395Q101.221-19.9219 97.5342-16.3086Q93.8477-12.6953 88.2324-12.6953Q83.9844-12.6953 80.6641-14.9658Q77.3438-17.2363 76.3672-20.6543Q76.123-21.3867 75.6592-21.8018Q75.1953-22.2168 74.5117-22.2168Q73.7793-22.2168 73.3154-21.7041Q72.8516-21.1914 72.8516-20.4102Q72.8516-20.0684 72.876-19.7998Q72.9004-19.5312 72.9492-19.2383Q74.0723-14.9414 78.2959-12.1094Q82.5195-9.27734 87.9883-9.27734Z"/>
  </g>
  <g id="Ultralight-L" transform="matrix(1 0 0 1 487.592 1556)">
   <path d="M11.2793-35.1074Q11.2793-25.0977 14.3555-15.9668Q17.4316-6.83594 23.0225 0.78125Q28.6133 8.39844 36.2305 13.9893Q43.8477 19.5801 52.9541 22.6562Q62.0605 25.7324 72.0703 25.7324Q82.1289 25.7324 91.2354 22.6562Q100.342 19.5801 107.935 13.9893Q115.527 8.39844 121.143 0.78125Q126.758-6.83594 129.858-15.9668Q132.959-25.0977 132.959-35.1074Q132.959-46.3379 129.102-56.3477Q125.244-66.3574 118.408-74.4141Q111.572-82.4707 102.368-87.8418Q93.1641-93.2129 82.4707-95.0684L82.4707-105.908Q82.4707-106.787 82.0801-107.3Q81.6895-107.812 80.9814-107.837Q80.2734-107.861 79.3945-107.178L60.8887-94.2871Q59.7656-93.5059 59.7656-92.6025Q59.7656-91.6992 60.8887-90.918L79.3945-77.9785Q80.2734-77.3438 80.9814-77.3438Q81.6895-77.3438 82.0801-77.8564Q82.4707-78.3691 82.4707-79.248L82.4707-92.5293Q92.6758-90.625 101.416-85.4736Q110.156-80.3223 116.675-72.6318Q123.193-64.9414 126.807-55.3711Q130.42-45.8008 130.42-35.1074Q130.42-25.4395 127.466-16.7236Q124.512-8.00781 119.141-0.708008Q113.77 6.5918 106.494 11.9629Q99.2188 17.334 90.4785 20.2881Q81.7383 23.2422 72.0703 23.2422Q62.4512 23.2422 53.7109 20.2881Q44.9707 17.334 37.6709 11.9629Q30.3711 6.5918 25.0244-0.708008Q19.6777-8.00781 16.7236-16.7236Q13.7695-25.4395 13.7695-35.1074Q13.7695-45.9961 17.5293-55.7373Q21.2891-65.4785 28.0029-73.2178Q34.7168-80.957 43.6523-86.0352Q44.0918-86.2793 44.2383-86.792Q44.3848-87.3047 44.1406-87.793Q43.9453-88.1836 43.4814-88.3301Q43.0176-88.4766 42.4805-88.1836Q33.1543-82.959 26.1475-74.8535Q19.1406-66.748 15.21-56.5918Q11.2793-46.4355 11.2793-35.1074ZM53.8086-10.6445Q54.2969-10.6445 54.7363-11.084Q55.1758-11.5234 55.1758-12.207L55.1758-58.3008Q55.1758-58.8867 54.7119-59.3506Q54.248-59.8145 53.4668-59.8145Q52.832-59.8145 52.4414-59.668Q52.0508-59.5215 51.3184-59.082L39.3066-51.2695Q38.8672-50.9766 38.6963-50.708Q38.5254-50.4395 38.5254-50Q38.5254-49.4629 38.8916-49.0967Q39.2578-48.7305 39.8438-48.7305Q40.0879-48.7305 40.21-48.7793Q40.332-48.8281 40.5273-48.9746L51.9043-56.2988L52.3438-56.2988L52.3438-12.207Q52.3438-11.5234 52.7344-11.084Q53.125-10.6445 53.8086-10.6445ZM87.6953-9.42383Q95.3125-9.42383 100.049-13.8916Q104.785-18.3594 104.785-25.5371Q104.785-29.9805 102.759-33.4961Q100.732-37.0117 97.1924-39.0625Q93.6523-41.1133 89.0137-41.1133Q85.4004-41.1133 82.1289-39.5264Q78.8574-37.9395 76.8555-35.2539L76.4648-35.2539L78.2227-55.9082L101.66-55.9082Q102.344-55.9082 102.734-56.2988Q103.125-56.6895 103.125-57.2266Q103.125-57.8125 102.734-58.1543Q102.344-58.4961 101.66-58.4961L77.5391-58.4961Q75.4395-58.4961 75.293-56.4453L73.6328-33.4961Q73.584-32.666 73.9746-32.1777Q74.3652-31.6895 75.2441-31.6895Q75.8301-31.6895 76.1475-31.9092Q76.4648-32.1289 77.002-32.5684Q79.7363-35.791 82.4951-37.1094Q85.2539-38.4277 88.6719-38.4277Q94.4336-38.4277 98.0957-34.8145Q101.758-31.2012 101.758-25.4395Q101.758-19.6289 97.8516-15.8203Q93.9453-12.0117 87.9395-12.0117Q83.3984-12.0117 79.834-14.4531Q76.2695-16.8945 75.3418-20.5078Q75.2441-21.1914 74.8535-21.5088Q74.4629-21.8262 73.877-21.8262Q73.291-21.8262 72.9736-21.46Q72.6562-21.0938 72.6562-20.5078Q72.6562-20.2148 72.6318-20.0195Q72.6074-19.8242 72.6562-19.6289Q73.7305-15.0879 78.0273-12.2559Q82.3242-9.42383 87.6953-9.42383Z"/>
  </g>
  <g id="Black-M" transform="matrix(1 0 0 1 2871.32 1126)">
   <path d="M8.74023-35.2539Q8.74023-24.2676 12.8906-14.5996Q17.041-4.93164 24.3896 2.41699Q31.7383 9.76562 41.4062 13.916Q51.0742 18.0664 62.0605 18.0664Q73.0957 18.0664 82.7637 13.916Q92.4316 9.76562 99.7559 2.41699Q107.08-4.93164 111.255-14.5996Q115.43-24.2676 115.43-35.2539Q115.43-44.6289 112.378-53.0518Q109.326-61.4746 103.857-68.3594Q98.3887-75.2441 90.9668-80.0781Q83.5449-84.9121 74.8047-87.0117L74.8047-95.166Q74.8047-98.8281 72.0215-99.8047Q69.2383-100.781 65.918-98.291L45.8008-83.3984Q43.1641-81.4453 43.1885-78.6377Q43.2129-75.8301 45.8008-73.9258L65.918-58.9844Q69.1895-56.543 71.9971-57.4463Q74.8047-58.3496 74.8047-62.1094L74.8047-68.8965Q79.9316-66.9434 84.1797-63.6475Q88.4277-60.3516 91.5283-55.9326Q94.6289-51.5137 96.3135-46.2891Q97.998-41.0645 97.998-35.2539Q97.998-27.7832 95.2148-21.2891Q92.4316-14.7949 87.5-9.83887Q82.5684-4.88281 76.0498-2.09961Q69.5312 0.683594 62.0605 0.683594Q54.6387 0.683594 48.1201-2.09961Q41.6016-4.88281 36.6455-9.83887Q31.6895-14.7949 28.9062-21.2891Q26.123-27.7832 26.123-35.2539Q26.123-40.0391 27.2705-44.3115Q28.418-48.584 30.5908-52.4414Q32.7637-56.2988 35.8887-59.8145Q38.5254-62.8418 39.1113-66.4551Q39.6973-70.0684 36.8164-73.0469Q34.2773-75.6348 30.7129-75.4639Q27.1484-75.293 23.6816-72.1191Q19.2383-68.1641 15.8691-62.0117Q12.5-55.8594 10.6201-48.8281Q8.74023-41.7969 8.74023-35.2539ZM50.2441-12.9883Q52.7344-12.9883 54.248-14.502Q55.7617-16.0156 55.7617-18.6523L55.7617-46.6309Q55.7617-50.1465 53.8086-51.9531Q51.8555-53.7598 48.7793-53.7598Q47.0215-53.7598 45.3613-53.1006Q43.7012-52.4414 41.8457-50.6348L37.2559-46.2891Q35.7422-44.7754 35.0586-43.5791Q34.375-42.3828 34.375-40.8691Q34.375-39.0625 35.6201-37.8174Q36.8652-36.5723 38.6719-36.5723Q39.9414-36.5723 40.8691-37.0605Q41.7969-37.5488 42.627-38.7695L44.4824-41.5039L44.8242-41.5039L44.8242-18.6523Q44.8242-16.0156 46.2891-14.502Q47.7539-12.9883 50.2441-12.9883ZM73.4863-12.9883Q80.0293-12.9883 83.8623-16.8457Q87.6953-20.7031 87.6953-27.4414Q87.6953-33.252 84.4238-36.3525Q81.1523-39.4531 77.002-39.4531Q74.6582-39.4531 72.8271-38.501Q70.9961-37.5488 69.873-35.791L69.5801-35.791L70.166-44.1895L81.6406-44.1895Q83.8867-44.1895 85.1562-45.5078Q86.4258-46.8262 86.4258-48.877Q86.4258-50.9277 85.1807-52.1729Q83.9355-53.418 81.6406-53.418L66.5527-53.418Q61.4258-53.418 61.1328-47.3145L60.498-33.9355Q60.3516-31.4453 61.7188-30.0049Q63.0859-28.5645 65.4785-28.5645Q67.3828-28.5645 68.1641-28.9795Q68.9453-29.3945 69.6777-29.9805Q70.5078-30.6152 71.3867-31.0791Q72.2656-31.543 73.4863-31.543Q75.5859-31.543 76.6846-30.2002Q77.7832-28.8574 77.7832-26.9531Q77.7832-24.9512 76.6113-23.5596Q75.4395-22.168 73.6328-22.168Q71.8262-22.168 70.8008-23.0469Q69.7754-23.9258 68.7988-25Q68.2129-25.6348 67.4316-26.0986Q66.6504-26.5625 65.2832-26.5625Q63.3301-26.5625 62.0605-25.293Q60.791-24.0234 60.791-22.0703Q60.791-21.3379 60.8887-20.6787Q60.9863-20.0195 61.377-19.1895Q62.3535-17.0898 65.5518-15.0391Q68.75-12.9883 73.4863-12.9883Z"/>
  </g>
  <g id="Heavy-M" transform="matrix(1 0 0 1 2575.43 1126)">
   <path d="M8.74023-35.2539Q8.74023-24.4629 12.8418-14.9414Q16.9434-5.41992 24.1699 1.80664Q31.3965 9.0332 40.918 13.1348Q50.4395 17.2363 61.2305 17.2363Q72.0703 17.2363 81.5918 13.1348Q91.1133 9.0332 98.3154 1.80664Q105.518-5.41992 109.644-14.9414Q113.77-24.4629 113.77-35.2539Q113.77-44.5312 110.718-52.8809Q107.666-61.2305 102.173-68.042Q96.6797-74.8535 89.2822-79.5898Q81.8848-84.3262 73.1934-86.3281L73.1934-94.1895Q73.1934-97.6074 70.7031-98.5107Q68.2129-99.4141 65.2344-97.168L46.1914-83.2031Q43.75-81.4453 43.7744-78.9307Q43.7988-76.416 46.1914-74.707L65.1855-60.6934Q68.1641-58.4961 70.6787-59.3262Q73.1934-60.1562 73.1934-63.6719L73.1934-70.5078Q78.7598-68.6035 83.374-65.21Q87.9883-61.8164 91.3818-57.1777Q94.7754-52.5391 96.6309-46.9971Q98.4863-41.4551 98.4863-35.2539Q98.4863-27.4902 95.6055-20.752Q92.7246-14.0137 87.5977-8.88672Q82.4707-3.75977 75.7324-0.878906Q68.9941 2.00195 61.2305 2.00195Q53.5156 2.00195 46.7529-0.878906Q39.9902-3.75977 34.8633-8.88672Q29.7363-14.0137 26.8555-20.752Q23.9746-27.4902 23.9746-35.2539Q23.9746-40.5273 25.3662-45.2881Q26.7578-50.0488 29.3213-54.1992Q31.8848-58.3496 35.498-61.9141Q37.8906-64.502 38.4277-67.6514Q38.9648-70.8008 36.5234-73.4375Q34.375-75.7324 31.25-75.6836Q28.125-75.6348 25.0977-72.9492Q20.2148-68.8477 16.5283-62.6709Q12.8418-56.4941 10.791-49.3408Q8.74023-42.1875 8.74023-35.2539ZM48.8281-13.5254Q51.0742-13.5254 52.417-14.8926Q53.7598-16.2598 53.7598-18.6523L53.7598-47.2656Q53.7598-50.4395 52.0752-52.0264Q50.3906-53.6133 47.6562-53.6133Q46.0449-53.6133 44.5801-53.0273Q43.1152-52.4414 41.3574-50.8789L36.2793-46.4844Q34.9121-45.166 34.3018-44.0918Q33.6914-43.0176 33.6914-41.6504Q33.6914-39.9902 34.8389-38.8428Q35.9863-37.6953 37.6465-37.6953Q38.7695-37.6953 39.5996-38.1104Q40.4297-38.5254 41.2109-39.5996L43.75-42.4805L43.9941-42.4805L43.9941-18.6523Q43.9941-16.2598 45.3125-14.8926Q46.6309-13.5254 48.8281-13.5254ZM72.4609-13.3789Q78.8574-13.3789 82.666-17.1631Q86.4746-20.9473 86.4746-27.4902Q86.4746-33.2031 83.2031-36.4014Q79.9316-39.5996 75.5371-39.5996Q73.1934-39.5996 71.2646-38.623Q69.3359-37.6465 68.2617-35.8398L68.0664-35.8398L68.75-44.873L80.957-44.873Q82.9102-44.873 84.082-46.0693Q85.2539-47.2656 85.2539-49.1211Q85.2539-50.9766 84.1064-52.0996Q82.959-53.2227 80.957-53.2227L65.7227-53.2227Q60.9375-53.2227 60.5957-47.6074L59.8633-34.082Q59.7168-31.7383 60.9619-30.4199Q62.207-29.1016 64.4531-29.1016Q66.1621-29.1016 66.9434-29.4922Q67.7246-29.8828 68.5059-30.5176Q69.4824-31.2988 70.4346-31.7871Q71.3867-32.2754 72.6562-32.2754Q74.9512-32.2754 76.1963-30.7861Q77.4414-29.2969 77.4414-27.0996Q77.4414-24.8047 76.0742-23.2666Q74.707-21.7285 72.6074-21.7285Q70.752-21.7285 69.5312-22.6562Q68.3105-23.584 67.3828-24.8535Q66.7969-25.5859 66.04-26.0498Q65.2832-26.5137 64.0137-26.5137Q62.2559-26.5137 61.084-25.3662Q59.9121-24.2188 59.9121-22.4121Q59.9121-21.7285 60.0098-21.1182Q60.1074-20.5078 60.498-19.7754Q61.4746-17.5293 64.624-15.4541Q67.7734-13.3789 72.4609-13.3789Z"/>
  </g>
  <g id="Bold-M" transform="matrix(1 0 0 1 2279.65 1126)">
   <path d="M8.74023-35.2539Q8.74023-24.6582 12.7686-15.3076Q16.7969-5.95703 23.9258 1.14746Q31.0547 8.25195 40.3809 12.2803Q49.707 16.3086 60.3027 16.3086Q70.9473 16.3086 80.2734 12.2803Q89.5996 8.25195 96.7041 1.14746Q103.809-5.95703 107.861-15.3076Q111.914-24.6582 111.914-35.2539Q111.914-44.4336 108.838-52.71Q105.762-60.9863 100.293-67.7002Q94.8242-74.4141 87.4268-79.0527Q80.0293-83.6914 71.3867-85.5957L71.3867-93.1152Q71.3867-96.2891 69.2383-97.0947Q67.0898-97.9004 64.4531-95.9473L46.582-83.0566Q44.4336-81.4941 44.4336-79.2969Q44.4336-77.0996 46.582-75.5371L64.4043-62.5977Q67.041-60.6445 69.2139-61.4258Q71.3867-62.207 71.3867-65.4297L71.3867-72.2656Q77.4414-70.5078 82.4707-67.0166Q87.5-63.5254 91.2109-58.6182Q94.9219-53.7109 96.9727-47.8027Q99.0234-41.8945 99.0234-35.2539Q99.0234-27.1973 96.0205-20.1904Q93.0176-13.1836 87.7197-7.86133Q82.4219-2.53906 75.3906 0.463867Q68.3594 3.4668 60.3027 3.4668Q52.2949 3.4668 45.2637 0.463867Q38.2324-2.53906 32.9102-7.86133Q27.5879-13.1836 24.585-20.1904Q21.582-27.1973 21.582-35.2539Q21.582-41.1133 23.2422-46.3867Q24.9023-51.6602 27.9053-56.1768Q30.9082-60.6934 35.0586-64.3066Q37.1582-66.4062 37.6465-69.0186Q38.1348-71.6309 36.2305-73.877Q34.5215-75.8789 31.8604-75.9521Q29.1992-76.0254 26.6602-73.8281Q21.2891-69.5801 17.2607-63.3789Q13.2324-57.1777 10.9863-49.9023Q8.74023-42.627 8.74023-35.2539ZM47.3145-14.1113Q49.2676-14.1113 50.4395-15.332Q51.6113-16.5527 51.6113-18.6523L51.6113-48.0469Q51.6113-50.7324 50.1953-52.124Q48.7793-53.5156 46.3867-53.5156Q45.0195-53.5156 43.75-53.0029Q42.4805-52.4902 40.8691-51.123L35.2539-46.6797Q34.082-45.6543 33.5205-44.7021Q32.959-43.75 32.959-42.5781Q32.959-41.0645 34.0088-39.9902Q35.0586-38.916 36.5234-38.916Q37.5488-38.916 38.2568-39.2578Q38.9648-39.5996 39.6973-40.4785L42.9688-43.5547L43.0664-43.5547L43.0664-18.6523Q43.0664-16.5527 44.2139-15.332Q45.3613-14.1113 47.3145-14.1113ZM71.3379-13.8184Q77.6367-13.8184 81.3965-17.5537Q85.1562-21.2891 85.1562-27.5879Q85.1562-33.2031 81.8848-36.4746Q78.6133-39.7461 73.9258-39.7461Q71.582-39.7461 69.5557-38.7451Q67.5293-37.7441 66.4551-35.9375L66.4551-35.9375L67.1875-45.6543L80.2246-45.6543Q81.8848-45.6543 82.9102-46.7041Q83.9355-47.7539 83.9355-49.4141Q83.9355-51.0254 82.9102-52.0264Q81.8848-53.0273 80.2246-53.0273L64.8926-53.0273Q60.4004-53.0273 60.0586-47.9492L59.2285-34.2285Q59.082-32.0801 60.2051-30.9082Q61.3281-29.7363 63.3301-29.7363Q64.8438-29.7363 65.6006-30.1025Q66.3574-30.4688 67.2363-31.1523Q68.3594-32.0801 69.4092-32.5928Q70.459-33.1055 71.8262-33.1055Q74.2676-33.1055 75.708-31.4697Q77.1484-29.834 77.1484-27.2949Q77.1484-24.707 75.5615-22.9492Q73.9746-21.1914 71.5332-21.1914Q69.5312-21.1914 68.1396-22.2168Q66.748-23.2422 65.8203-24.707Q65.2344-25.4883 64.502-25.9766Q63.7695-26.4648 62.6465-26.4648Q61.0352-26.4648 60.0342-25.4395Q59.0332-24.4141 59.0332-22.8027Q59.0332-22.2168 59.1309-21.6309Q59.2285-21.0449 59.5215-20.4102Q60.498-18.0176 63.623-15.918Q66.748-13.8184 71.3379-13.8184Z"/>
  </g>
  <g id="Semibold-M" transform="matrix(1 0 0 1 1983.6 1126)">
   <path d="M8.74023-35.2539Q8.74023-24.8047 12.7197-15.5762Q16.6992-6.34766 23.7305 0.683594Q30.7617 7.71484 39.9902 11.6943Q49.2188 15.6738 59.668 15.6738Q70.1172 15.6738 79.3457 11.6943Q88.5742 7.71484 95.6055 0.683594Q102.637-6.34766 106.616-15.5762Q110.596-24.8047 110.596-35.2539Q110.596-44.3848 107.52-52.5879Q104.443-60.791 98.9746-67.4561Q93.5059-74.1211 86.1328-78.6621Q78.7598-83.2031 70.166-85.0586L70.166-92.3828Q70.166-95.3125 68.2373-96.0693Q66.3086-96.8262 63.8672-95.0684L46.875-82.9102Q44.873-81.4941 44.873-79.5166Q44.873-77.5391 46.875-76.123L63.8672-63.916Q66.2598-62.1582 68.2129-62.8906Q70.166-63.623 70.166-66.6016L70.166-73.4863Q76.5137-71.8262 81.8359-68.2373Q87.1582-64.6484 91.0889-59.5703Q95.0195-54.4922 97.1924-48.3398Q99.3652-42.1875 99.3652-35.2539Q99.3652-27.002 96.2891-19.7754Q93.2129-12.5488 87.7686-7.10449Q82.3242-1.66016 75.1221 1.41602Q67.9199 4.49219 59.668 4.49219Q51.416 4.49219 44.1895 1.41602Q36.9629-1.66016 31.5186-7.10449Q26.0742-12.5488 22.998-19.7754Q19.9219-27.002 19.9219-35.2539Q19.9219-41.5039 21.7529-47.1436Q23.584-52.7832 26.9043-57.5439Q30.2246-62.3047 34.7656-65.918Q36.6211-67.6758 37.085-69.9219Q37.5488-72.168 36.0352-74.1699Q34.5703-75.9766 32.251-76.123Q29.9316-76.2695 27.7344-74.4629Q22.0215-70.1172 17.749-63.8672Q13.4766-57.6172 11.1084-50.2686Q8.74023-42.9199 8.74023-35.2539ZM46.1914-14.502Q47.9492-14.502 48.999-15.6006Q50.0488-16.6992 50.0488-18.6035L50.0488-48.5352Q50.0488-50.9277 48.8281-52.1484Q47.6074-53.3691 45.5078-53.3691Q44.2383-53.3691 43.1152-52.9297Q41.9922-52.4902 40.4785-51.3184L34.4727-46.8262Q33.3984-45.9473 32.9102-45.0928Q32.4219-44.2383 32.4219-43.1641Q32.4219-41.748 33.374-40.7471Q34.3262-39.7461 35.7422-39.7461Q36.6211-39.7461 37.2559-40.0391Q37.8906-40.332 38.5742-41.1133L42.3828-44.2871L42.3828-44.2871L42.3828-18.6035Q42.3828-16.748 43.4326-15.625Q44.4824-14.502 46.1914-14.502ZM70.5078-14.1113Q76.709-14.1113 80.4443-17.7979Q84.1797-21.4844 84.1797-27.6367Q84.1797-33.1543 80.9082-36.499Q77.6367-39.8438 72.7539-39.8438Q70.4102-39.8438 68.3105-38.8184Q66.2109-37.793 65.1855-35.9375L65.2832-35.9375L66.0645-46.1426L79.6387-46.1426Q81.1035-46.1426 82.0557-47.0947Q83.0078-48.0469 83.0078-49.5605Q83.0078-51.0742 82.0557-51.9775Q81.1035-52.8809 79.6387-52.8809L64.209-52.8809Q59.9609-52.8809 59.668-48.1934L58.6914-34.3262Q58.5449-32.3242 59.5947-31.25Q60.6445-30.1758 62.5-30.1758Q63.916-30.1758 64.6484-30.4932Q65.3809-30.8105 66.3086-31.543Q67.5781-32.6172 68.6768-33.1543Q69.7754-33.6914 71.1426-33.6914Q73.7793-33.6914 75.3174-31.9336Q76.8555-30.1758 76.8555-27.4414Q76.8555-24.5605 75.1221-22.7051Q73.3887-20.8496 70.752-20.8496Q68.6523-20.8496 67.1387-21.8994Q65.625-22.9492 64.6973-24.6094Q64.1113-25.4395 63.4033-25.9277Q62.6953-26.416 61.6211-26.416Q60.1562-26.416 59.2529-25.4883Q58.3496-24.5605 58.3496-23.0469Q58.3496-22.5098 58.4473-21.9727Q58.5449-21.4355 58.7891-20.8008Q59.7656-18.3594 62.8662-16.2354Q65.9668-14.1113 70.5078-14.1113Z"/>
  </g>
  <g id="Medium-M" transform="matrix(1 0 0 1 1687.38 1126)">
   <path d="M8.74023-35.2539Q8.74023-24.9023 12.6953-15.7471Q16.6504-6.5918 23.6084 0.341797Q30.5664 7.27539 39.6973 11.2305Q48.8281 15.1855 59.1797 15.1855Q69.5312 15.1855 78.6621 11.2305Q87.793 7.27539 94.751 0.341797Q101.709-6.5918 105.664-15.7471Q109.619-24.9023 109.619-35.2539Q109.619-44.2871 106.543-52.4658Q103.467-60.6445 97.9736-67.2607Q92.4805-73.877 85.1318-78.3691Q77.7832-82.8613 69.1895-84.668L69.1895-91.7969Q69.1895-94.6289 67.4561-95.3125Q65.7227-95.9961 63.4766-94.3848L47.0703-82.8125Q45.2148-81.4941 45.2148-79.7119Q45.2148-77.9297 47.0703-76.5625L63.4277-64.8926Q65.6738-63.2812 67.4316-63.9893Q69.1895-64.6973 69.1895-67.5293L69.1895-74.4141Q75.8301-72.8027 81.3721-69.165Q86.9141-65.5273 91.0156-60.3271Q95.1172-55.127 97.3877-48.7549Q99.6582-42.3828 99.6582-35.2539Q99.6582-26.8066 96.5332-19.458Q93.4082-12.1094 87.8418-6.54297Q82.2754-0.976562 74.9512 2.12402Q67.627 5.22461 59.1797 5.22461Q50.7324 5.22461 43.3838 2.12402Q36.0352-0.976562 30.4688-6.54297Q24.9023-12.1094 21.7773-19.458Q18.6523-26.8066 18.6523-35.2539Q18.6523-41.7969 20.6299-47.7051Q22.6074-53.6133 26.1719-58.5693Q29.7363-63.5254 34.5215-67.1875Q36.2305-68.6523 36.6943-70.6299Q37.1582-72.6074 35.8398-74.3652Q34.6191-76.0254 32.5439-76.2695Q30.4688-76.5137 28.5156-74.9023Q22.5586-70.5078 18.1152-64.2334Q13.6719-57.959 11.2061-50.5615Q8.74023-43.1641 8.74023-35.2539ZM45.3613-14.8438Q46.9727-14.8438 47.9248-15.8447Q48.877-16.8457 48.877-18.6035L48.877-48.9258Q48.877-51.123 47.8027-52.2217Q46.7285-53.3203 44.8242-53.3203Q43.6523-53.3203 42.6514-52.9053Q41.6504-52.4902 40.2344-51.416L33.8867-46.9238Q32.959-46.1914 32.4951-45.3857Q32.0312-44.5801 32.0312-43.6523Q32.0312-42.2852 32.9346-41.3574Q33.8379-40.4297 35.1074-40.4297Q35.9375-40.4297 36.5234-40.6738Q37.1094-40.918 37.7441-41.5527L41.9434-44.873L41.9434-44.873L41.9434-18.6035Q41.9434-16.8945 42.8711-15.8691Q43.7988-14.8438 45.3613-14.8438ZM69.9219-14.3555Q76.0254-14.3555 79.7363-17.9932Q83.4473-21.6309 83.4473-27.6855Q83.4473-33.1543 80.1758-36.5479Q76.9043-39.9414 71.875-39.9414Q69.5312-39.9414 67.3828-38.8916Q65.2344-37.8418 64.2578-35.9863L64.4043-35.9863L65.2344-46.5332L79.248-46.5332Q80.5176-46.5332 81.4209-47.4121Q82.3242-48.291 82.3242-49.707Q82.3242-51.0742 81.4453-51.9287Q80.5664-52.7832 79.248-52.7832L63.7695-52.7832Q59.668-52.7832 59.3262-48.3398L58.3496-34.4238Q58.2031-32.4707 59.1797-31.4697Q60.1562-30.4688 61.9141-30.4688Q63.1836-30.4688 63.9404-30.7861Q64.6973-31.1035 65.6738-31.8848Q66.9434-33.0078 68.1152-33.5449Q69.2871-34.082 70.7031-34.082Q73.3887-34.082 75.0244-32.2754Q76.6602-30.4688 76.6602-27.4902Q76.6602-24.5117 74.8291-22.5342Q72.998-20.5566 70.166-20.5566Q68.0176-20.5566 66.4062-21.6553Q64.7949-22.7539 63.8672-24.5117Q63.3301-25.3906 62.6221-25.9033Q61.9141-26.416 60.8887-26.416Q59.5215-26.416 58.6914-25.5371Q57.8613-24.6582 57.8613-23.291Q57.8613-22.7539 57.959-22.2168Q58.0566-21.6797 58.252-21.1426Q59.2285-18.6035 62.3047-16.4795Q65.3809-14.3555 69.9219-14.3555Z"/>
  </g>
  <g id="Regular-M" transform="matrix(1 0 0 1 1391.3 1126)">
   <path d="M8.74023-35.2539Q8.74023-25.0488 12.6465-16.0156Q16.5527-6.98242 23.4375-0.12207Q30.3223 6.73828 39.3311 10.6445Q48.3398 14.5508 58.5449 14.5508Q68.75 14.5508 77.7588 10.6445Q86.7676 6.73828 93.6523-0.12207Q100.537-6.98242 104.443-16.0156Q108.35-25.0488 108.35-35.2539Q108.35-44.2383 105.273-52.3438Q102.197-60.4492 96.7041-67.0166Q91.2109-73.584 83.8623-78.0029Q76.5137-82.4219 67.9688-84.1309L67.9688-91.0645Q67.9688-93.7012 66.4551-94.3359Q64.9414-94.9707 62.9395-93.5547L47.3633-82.666Q45.6543-81.4941 45.6543-79.9316Q45.6543-78.3691 47.3633-77.1484L62.8906-66.2109Q64.8926-64.7461 66.4307-65.4053Q67.9688-66.0645 67.9688-68.7012L67.9688-75.6348Q74.9023-74.0723 80.7373-70.3613Q86.5723-66.6504 90.8936-61.2793Q95.2148-55.9082 97.6074-49.292Q100-42.6758 100-35.2539Q100-26.6113 96.8018-19.0674Q93.6035-11.5234 87.915-5.83496Q82.2266-0.146484 74.707 3.05176Q67.1875 6.25 58.5449 6.25Q49.9023 6.25 42.3584 3.05176Q34.8145-0.146484 29.126-5.83496Q23.4375-11.5234 20.2393-19.0674Q17.041-26.6113 17.041-35.2539Q17.041-42.1875 19.1895-48.4619Q21.3379-54.7363 25.1953-59.9121Q29.0527-65.0879 34.2285-68.7988Q35.7422-69.9219 36.1572-71.5332Q36.5723-73.1445 35.6445-74.6582Q34.7168-76.123 32.959-76.4404Q31.2012-76.7578 29.5898-75.5371Q23.291-70.9961 18.6035-64.7217Q13.916-58.4473 11.3281-50.9521Q8.74023-43.457 8.74023-35.2539ZM44.2871-15.2344Q45.7031-15.2344 46.5332-16.1377Q47.3633-17.041 47.3633-18.6035L47.3633-49.4141Q47.3633-51.3184 46.4844-52.2705Q45.6055-53.2227 43.9453-53.2227Q42.9199-53.2227 42.041-52.8564Q41.1621-52.4902 39.8438-51.6113L33.1543-47.0703Q32.3242-46.4844 31.9092-45.7764Q31.4941-45.0684 31.4941-44.2383Q31.4941-43.0176 32.3242-42.1387Q33.1543-41.2598 34.3262-41.2598Q35.0586-41.2598 35.5469-41.4551Q36.0352-41.6504 36.6699-42.1875L41.3574-45.6055L41.2598-45.6055L41.2598-18.6035Q41.2598-17.0898 42.0898-16.1621Q42.9199-15.2344 44.2871-15.2344ZM69.0918-14.6484Q75.1465-14.6484 78.833-18.2373Q82.5195-21.8262 82.5195-27.7344Q82.5195-33.1055 79.248-36.5723Q75.9766-40.0391 70.752-40.0391Q68.4082-40.0391 66.1865-38.9648Q63.9648-37.8906 62.9883-36.0352L63.2324-36.0352L64.1113-47.0703L78.7109-47.0703Q79.7852-47.0703 80.5908-47.8516Q81.3965-48.6328 81.3965-49.9023Q81.3965-51.123 80.5908-51.8799Q79.7852-52.6367 78.7109-52.6367L63.1348-52.6367Q59.2773-52.6367 58.9355-48.584L57.8613-34.5215Q57.7148-32.7148 58.5938-31.8115Q59.4727-30.9082 61.084-30.9082Q62.2559-30.9082 62.9883-31.2012Q63.7207-31.4941 64.7461-32.2754Q66.1621-33.5449 67.3828-34.1064Q68.6035-34.668 70.0684-34.668Q72.9004-34.668 74.6582-32.7393Q76.416-30.8105 76.416-27.6367Q76.416-24.4141 74.4141-22.3145Q72.4121-20.2148 69.3848-20.2148Q67.1875-20.2148 65.4297-21.3623Q63.6719-22.5098 62.7441-24.4141Q62.207-25.3418 61.5234-25.8545Q60.8398-26.3672 59.9121-26.3672Q58.6914-26.3672 57.9346-25.5859Q57.1777-24.8047 57.1777-23.5352Q57.1777-23.0469 57.2754-22.5586Q57.373-22.0703 57.5684-21.582Q58.5449-18.9453 61.5967-16.7969Q64.6484-14.6484 69.0918-14.6484Z"/>
  </g>
  <g id="Light-M" transform="matrix(1 0 0 1 1095.42 1126)">
   <path d="M8.74023-35.2051Q8.74023-25.1465 12.5732-16.2598Q16.4062-7.37305 23.1689-0.634766Q29.9316 6.10352 38.7939 9.93652Q47.6562 13.7695 57.7148 13.7695Q67.7734 13.7695 76.6357 9.93652Q85.498 6.10352 92.2607-0.634766Q99.0234-7.37305 102.856-16.2598Q106.689-25.1465 106.689-35.2051Q106.689-44.0918 103.638-52.0996Q100.586-60.1074 95.166-66.5771Q89.7461-73.0469 82.4707-77.3682Q75.1953-81.6895 66.6992-83.3496L66.6992-90.7227Q66.6992-92.8711 65.4541-93.4326Q64.209-93.9941 62.5-92.7734L47.3145-82.1289Q45.8496-81.1523 45.8496-79.8584Q45.8496-78.5645 47.3145-77.5391L62.4512-66.8945Q64.1602-65.625 65.4297-66.1865Q66.6992-66.748 66.6992-68.8965L66.6992-76.8555Q73.9258-75.3418 80.0537-71.5576Q86.1816-67.7734 90.7471-62.207Q95.3125-56.6406 97.8271-49.7803Q100.342-42.9199 100.342-35.2051Q100.342-26.3672 97.0459-18.6279Q93.75-10.8887 87.8906-5.0293Q82.0312 0.830078 74.3164 4.12598Q66.6016 7.42188 57.7148 7.42188Q48.877 7.42188 41.1377 4.12598Q33.3984 0.830078 27.5391-5.0293Q21.6797-10.8887 18.3838-18.6279Q15.0879-26.3672 15.0879-35.2051Q15.0879-42.627 17.4561-49.292Q19.8242-55.957 24.0967-61.4014Q28.3691-66.8457 34.1309-70.6055Q35.2539-71.4355 35.5713-72.6562Q35.8887-73.877 35.2051-75.0488Q34.5215-76.1719 33.1787-76.416Q31.8359-76.6602 30.6152-75.7812Q24.0234-71.3867 19.1162-65.1123Q14.209-58.8379 11.4746-51.2207Q8.74023-43.6035 8.74023-35.2051ZM43.457-15.5273Q44.5801-15.5273 45.2393-16.2598Q45.8984-16.9922 45.8984-18.2129L45.8984-50.5371Q45.8984-52.002 45.1904-52.7832Q44.4824-53.5645 43.1152-53.5645Q42.2852-53.5645 41.5771-53.2715Q40.8691-52.9785 39.7949-52.2461L32.2754-47.2656Q31.5918-46.7773 31.2744-46.2158Q30.957-45.6543 30.957-44.9707Q30.957-43.9941 31.6162-43.3105Q32.2754-42.627 33.252-42.627Q33.7891-42.627 34.1553-42.7734Q34.5215-42.9199 35.0098-43.3105L40.9668-47.4609L41.0156-47.4609L41.0156-18.2129Q41.0156-17.041 41.6748-16.2842Q42.334-15.5273 43.457-15.5273ZM68.7012-14.8438Q74.707-14.8438 78.3936-18.3838Q82.0801-21.9238 82.0801-27.7344Q82.0801-33.0566 78.7598-36.499Q75.4395-39.9414 70.166-39.9414Q67.6758-39.9414 65.3564-38.8428Q63.0371-37.7441 61.9141-35.791L61.9629-35.791L62.9883-48.3887L78.7109-48.3887Q79.5898-48.3887 80.249-48.999Q80.9082-49.6094 80.9082-50.6348Q80.9082-51.6113 80.249-52.2217Q79.5898-52.832 78.7109-52.832L62.1582-52.832Q58.9844-52.832 58.7402-49.5605L57.5684-34.3262Q57.4707-32.8613 58.1787-32.1289Q58.8867-31.3965 60.2051-31.3965Q61.1328-31.3965 61.7188-31.6406Q62.3047-31.8848 63.1348-32.5684Q64.7949-34.1797 66.2842-34.8877Q67.7734-35.5957 69.6289-35.5957Q72.9492-35.5957 75.0488-33.3984Q77.1484-31.2012 77.1484-27.6367Q77.1484-24.0234 74.8291-21.6553Q72.5098-19.2871 68.9453-19.2871Q66.3574-19.2871 64.2822-20.6543Q62.207-22.0215 61.377-24.2188Q60.9863-25 60.4248-25.4395Q59.8633-25.8789 59.0332-25.8789Q58.0566-25.8789 57.4707-25.2686Q56.8848-24.6582 56.8848-23.6328Q56.8848-23.2422 56.9336-22.8516Q56.9824-22.4609 57.1289-22.0703Q58.1055-19.1406 61.2305-16.9922Q64.3555-14.8438 68.7012-14.8438Z"/>
  </g>
  <g id="Thin-M" transform="matrix(1 0 0 1 799.782 1126)">
   <path d="M8.74023-35.1562Q8.74023-25.293 12.4756-16.6016Q16.2109-7.91016 22.8027-1.34277Q29.3945 5.22461 38.0859 8.98438Q46.7773 12.7441 56.5918 12.7441Q66.5039 12.7441 75.1709 8.98438Q83.8379 5.22461 90.4297-1.34277Q97.0215-7.91016 100.781-16.6016Q104.541-25.293 104.541-35.1562Q104.541-43.9453 101.514-51.8066Q98.4863-59.668 93.1152-65.9912Q87.7441-72.3145 80.5908-76.5381Q73.4375-80.7617 65.0391-82.3242L65.0391-90.2832Q65.0391-91.7969 64.1357-92.2119Q63.2324-92.627 61.9141-91.748L47.2168-81.4941Q46.1426-80.6641 46.1426-79.7363Q46.1426-78.8086 47.2168-78.0273L61.9141-67.7734Q63.1836-66.7969 64.1113-67.2363Q65.0391-67.6758 65.0391-69.1406L65.0391-78.4668Q72.7051-77.002 79.1992-73.1201Q85.6934-69.2383 90.5518-63.4277Q95.4102-57.6172 98.0957-50.415Q100.781-43.2129 100.781-35.1562Q100.781-26.0254 97.3389-18.0176Q93.8965-10.0098 87.8418-3.93066Q81.7871 2.14844 73.7793 5.56641Q65.7715 8.98438 56.5918 8.98438Q47.4609 8.98438 39.4775 5.56641Q31.4941 2.14844 25.415-3.93066Q19.3359-10.0098 15.8936-18.0176Q12.4512-26.0254 12.4512-35.1562Q12.4512-43.1641 15.1611-50.3662Q17.8711-57.5684 22.6807-63.3545Q27.4902-69.1406 33.9355-72.998Q34.6191-73.4375 34.8145-74.1699Q35.0098-74.9023 34.6191-75.5859Q34.2773-76.2207 33.4961-76.3916Q32.7148-76.5625 31.9824-76.0742Q25-71.875 19.7754-65.6006Q14.5508-59.3262 11.6455-51.5625Q8.74023-43.7988 8.74023-35.1562ZM42.4316-15.918Q43.1152-15.918 43.5791-16.4307Q44.043-16.9434 44.043-17.7246L44.043-52.0508Q44.043-52.9297 43.5547-53.4668Q43.0664-54.0039 42.1387-54.0039Q41.5527-54.0039 41.0645-53.7842Q40.5762-53.5645 39.7949-53.125L31.2012-47.5098Q30.7129-47.168 30.5176-46.8262Q30.3223-46.4844 30.3223-45.9961Q30.3223-45.3613 30.7617-44.9219Q31.2012-44.4824 31.8359-44.4824Q32.1777-44.4824 32.3975-44.5312Q32.6172-44.5801 32.9102-44.8242L40.5762-49.9023L40.7715-49.9023L40.7715-17.7246Q40.7715-16.9434 41.2354-16.4307Q41.6992-15.918 42.4316-15.918ZM68.3105-15.0879Q74.2188-15.0879 77.8809-18.5547Q81.543-22.0215 81.543-27.7344Q81.543-32.959 78.1982-36.4014Q74.8535-39.8438 69.4824-39.8438Q66.7969-39.8438 64.3555-38.6719Q61.9141-37.5 60.498-35.4492L60.3516-35.4492L61.6211-50.0977L78.7598-50.0977Q79.4434-50.0977 79.8828-50.5371Q80.3223-50.9766 80.3223-51.6113Q80.3223-52.2949 79.8828-52.6855Q79.4434-53.0762 78.7598-53.0762L60.9375-53.0762Q58.6914-53.0762 58.5449-50.7812L57.2754-34.082Q57.2266-33.1055 57.6904-32.5684Q58.1543-32.0312 59.082-32.0312Q59.7656-32.0312 60.1562-32.2266Q60.5469-32.4219 61.084-32.9102Q63.0371-35.0586 64.917-35.9619Q66.7969-36.8652 69.0918-36.8652Q73.1445-36.8652 75.6592-34.3018Q78.1738-31.7383 78.1738-27.6367Q78.1738-23.4863 75.4395-20.7764Q72.7051-18.0664 68.5059-18.0664Q65.332-18.0664 62.8662-19.751Q60.4004-21.4355 59.6191-23.9746Q59.4238-24.6094 59.0088-24.9512Q58.5938-25.293 58.0078-25.293Q57.3242-25.293 56.9336-24.8535Q56.543-24.4141 56.543-23.7305Q56.543-23.4863 56.5674-23.2178Q56.5918-22.9492 56.6895-22.6562Q57.5684-19.4336 60.8154-17.2607Q64.0625-15.0879 68.3105-15.0879Z"/>
  </g>
  <g id="Ultralight-M" transform="matrix(1 0 0 1 503.632 1126)">
   <path d="M8.74023-35.1074Q8.74023-25.3906 12.4268-16.7969Q16.1133-8.20312 22.6318-1.70898Q29.1504 4.78516 37.7197 8.49609Q46.2891 12.207 56.0547 12.207Q65.8203 12.207 74.3896 8.49609Q82.959 4.78516 89.4775-1.70898Q95.9961-8.20312 99.707-16.7969Q103.418-25.3906 103.418-35.1074Q103.418-43.8477 100.415-51.6602Q97.4121-59.4727 92.0898-65.7227Q86.7676-71.9727 79.6387-76.123Q72.5098-80.2734 64.209-81.7871L64.209-90.0879Q64.209-91.2598 63.4521-91.626Q62.6953-91.9922 61.6211-91.2109L47.168-81.1035Q46.2891-80.4688 46.2891-79.6875Q46.2891-78.9062 47.168-78.2715L61.6211-68.2129Q62.6953-67.4316 63.4521-67.7979Q64.209-68.1641 64.209-69.2871L64.209-79.2969Q72.0215-77.8809 78.7354-73.9258Q85.4492-69.9707 90.4541-64.0381Q95.459-58.1055 98.2178-50.7324Q100.977-43.3594 100.977-35.1074Q100.977-25.8301 97.4854-17.7002Q93.9941-9.57031 87.8174-3.39355Q81.6406 2.7832 73.5107 6.29883Q65.3809 9.81445 56.0547 9.81445Q46.7773 9.81445 38.6475 6.29883Q30.5176 2.7832 24.3164-3.39355Q18.1152-9.57031 14.624-17.7002Q11.1328-25.8301 11.1328-35.1074Q11.1328-43.457 13.9893-50.9033Q16.8457-58.3496 21.9482-64.3311Q27.0508-70.3125 33.8867-74.2188Q34.2773-74.4629 34.4238-74.9268Q34.5703-75.3906 34.3262-75.8301Q34.1309-76.2695 33.6426-76.3916Q33.1543-76.5137 32.666-76.2207Q25.5371-72.1191 20.1416-65.8447Q14.7461-59.5703 11.7432-51.7334Q8.74023-43.8965 8.74023-35.1074ZM41.7969-16.1621Q42.334-16.1621 42.6758-16.5283Q43.0176-16.8945 43.0176-17.4805L43.0176-52.832Q43.0176-53.418 42.6514-53.8086Q42.2852-54.1992 41.5527-54.1992Q41.0645-54.1992 40.6982-54.0527Q40.332-53.9062 39.7461-53.5645L30.6152-47.6074Q30.2246-47.4121 30.0781-47.1436Q29.9316-46.875 29.9316-46.4844Q29.9316-45.9961 30.2734-45.7031Q30.6152-45.4102 31.1035-45.4102Q31.2988-45.4102 31.4209-45.4346Q31.543-45.459 31.7383-45.6055L40.2832-51.123L40.625-51.123L40.625-17.4805Q40.625-16.8945 40.9424-16.5283Q41.2598-16.1621 41.7969-16.1621ZM68.0176-15.1855Q73.9258-15.1855 77.5879-18.6523Q81.25-22.1191 81.25-27.7344Q81.25-32.9102 77.8564-36.3525Q74.4629-39.7949 69.043-39.7949Q66.3086-39.7949 63.7939-38.5986Q61.2793-37.4023 59.7656-35.3027L59.4727-35.3027L60.8398-50.9766L78.7598-50.9766Q79.2969-50.9766 79.6387-51.2939Q79.9805-51.6113 79.9805-52.1484Q79.9805-52.6367 79.6387-52.9297Q79.2969-53.2227 78.7598-53.2227L60.2539-53.2227Q58.4473-53.2227 58.3496-51.4648L57.0801-33.9355Q57.0312-33.2031 57.373-32.7881Q57.7148-32.373 58.4961-32.373Q58.9844-32.373 59.2773-32.5439Q59.5703-32.7148 59.9609-33.1055Q62.1094-35.498 64.1602-36.499Q66.2109-37.5 68.7988-37.5Q73.1445-37.5 75.9033-34.7656Q78.6621-32.0312 78.6621-27.6367Q78.6621-23.2422 75.6836-20.3369Q72.7051-17.4316 68.1641-17.4316Q64.7461-17.4316 62.0605-19.2627Q59.375-21.0938 58.6914-23.877Q58.5449-24.3652 58.2275-24.6582Q57.9102-24.9512 57.373-24.9512Q56.8848-24.9512 56.5918-24.6338Q56.2988-24.3164 56.2988-23.8281Q56.2988-23.584 56.2988-23.3887Q56.2988-23.1934 56.3477-22.998Q57.2266-19.5801 60.5225-17.3828Q63.8184-15.1855 68.0176-15.1855Z"/>
  </g>
  <g id="Black-S" transform="matrix(1 0 0 1 2884.57 696)">
   <path d="M6.83594-35.2539Q6.83594-26.5625 10.1074-18.9697Q13.3789-11.377 19.165-5.59082Q24.9512 0.195312 32.5439 3.4668Q40.1367 6.73828 48.8281 6.73828Q57.5195 6.73828 65.1123 3.4668Q72.7051 0.195312 78.4912-5.59082Q84.2773-11.377 87.5488-18.9697Q90.8203-26.5625 90.8203-35.2539Q90.8203-42.627 88.4521-49.2432Q86.084-55.8594 81.7871-61.2793Q77.4902-66.6992 71.6797-70.4834Q65.8691-74.2676 59.0332-75.9766L59.0332-82.4707Q59.0332-85.3516 56.7871-86.1328Q54.541-86.9141 51.8066-84.9121L35.7422-72.998Q33.6426-71.4355 33.667-69.165Q33.6914-66.8945 35.7422-65.332L51.8066-53.3691Q54.4922-51.416 56.7627-52.124Q59.0332-52.832 59.0332-55.8105L59.0332-61.1816Q64.209-59.1309 68.1885-55.2734Q72.168-51.416 74.4141-46.2891Q76.6602-41.1621 76.6602-35.2539Q76.6602-29.4922 74.4873-24.4385Q72.3145-19.3848 68.5059-15.5762Q64.6973-11.7676 59.6436-9.59473Q54.5898-7.42188 48.8281-7.42188Q43.0664-7.42188 38.0127-9.59473Q32.959-11.7676 29.1504-15.5762Q25.3418-19.3848 23.1689-24.4385Q20.9961-29.4922 20.9961-35.2539Q20.9961-40.6738 22.876-45.2637Q24.7559-49.8535 28.2227-53.9551Q30.3711-56.4453 30.835-59.3994Q31.2988-62.3535 28.9062-64.7461Q26.8066-66.8457 23.9258-66.6748Q21.0449-66.5039 18.1641-63.916Q14.7949-60.8887 12.2559-56.0547Q9.7168-51.2207 8.27637-45.752Q6.83594-40.2832 6.83594-35.2539ZM39.7461-17.6758Q41.748-17.6758 42.9688-18.8965Q44.1895-20.1172 44.1895-22.2168L44.1895-44.043Q44.1895-46.875 42.6025-48.3398Q41.0156-49.8047 38.5254-49.8047Q37.1094-49.8047 35.7666-49.2676Q34.4238-48.7305 32.9102-47.2656L29.4434-43.8477Q27.0996-41.5039 27.0996-39.4531Q27.0996-38.0371 28.1006-37.0361Q29.1016-36.0352 30.5176-36.0352Q32.5684-36.0352 33.7402-37.8418L35.0586-39.9414L35.3516-39.9414L35.3516-22.2168Q35.3516-20.1172 36.5479-18.8965Q37.7441-17.6758 39.7461-17.6758ZM57.8613-17.6758Q63.0371-17.6758 66.04-20.7275Q69.043-23.7793 69.043-29.1016Q69.043-33.6914 66.4795-36.084Q63.916-38.4766 60.7422-38.4766Q58.9355-38.4766 57.4951-37.7441Q56.0547-37.0117 55.1758-35.6445L54.8828-35.6445L55.3223-42.1387L64.1602-42.1387Q66.0156-42.1387 67.0166-43.1885Q68.0176-44.2383 68.0176-45.8984Q68.0176-47.5586 67.0166-48.5596Q66.0156-49.5605 64.1602-49.5605L52.3438-49.5605Q48.291-49.5605 48.0469-44.6777L47.5586-34.1797Q47.4609-32.2266 48.5596-31.0547Q49.6582-29.8828 51.5625-29.8828Q53.125-29.8828 53.7109-30.2002Q54.2969-30.5176 54.834-30.957Q55.4688-31.4453 56.1523-31.8115Q56.8359-32.1777 57.7637-32.1777Q59.4238-32.1777 60.2539-31.1523Q61.084-30.127 61.084-28.7109Q61.084-27.1973 60.2051-26.1475Q59.3262-25.0977 57.959-25.0977Q56.5918-25.0977 55.8105-25.7812Q55.0293-26.4648 54.248-27.2461Q53.8086-27.7344 53.1982-28.0762Q52.5879-28.418 51.4648-28.418Q49.9023-28.418 48.877-27.3926Q47.8516-26.3672 47.8516-24.8047Q47.8516-24.2676 47.9248-23.7305Q47.998-23.1934 48.3398-22.5098Q49.1211-20.8984 51.6357-19.2871Q54.1504-17.6758 57.8613-17.6758Z"/>
  </g>
  <g id="Heavy-S" transform="matrix(1 0 0 1 2588.47 696)">
   <path d="M6.83594-35.2539Q6.83594-26.709 10.0586-19.2383Q13.2812-11.7676 18.9941-6.05469Q24.707-0.341797 32.2021 2.88086Q39.6973 6.10352 48.1934 6.10352Q56.7871 6.10352 64.2578 2.88086Q71.7285-0.341797 77.4414-6.05469Q83.1543-11.7676 86.377-19.2383Q89.5996-26.709 89.5996-35.2539Q89.5996-42.5781 87.2314-49.1455Q84.8633-55.7129 80.542-61.0596Q76.2207-66.4062 70.4346-70.1416Q64.6484-73.877 57.8125-75.4883L57.8125-81.6895Q57.8125-84.4238 55.7861-85.1562Q53.7598-85.8887 51.2695-84.082L36.084-72.9004Q34.1309-71.4844 34.1309-69.4336Q34.1309-67.3828 36.084-65.918L51.2695-54.7363Q53.7109-52.9785 55.7617-53.6377Q57.8125-54.2969 57.8125-57.1289L57.8125-62.4023Q63.4277-60.4492 67.7734-56.4453Q72.1191-52.4414 74.5605-46.9971Q77.002-41.5527 77.002-35.2539Q77.002-29.2969 74.7559-24.0479Q72.5098-18.7988 68.5791-14.8682Q64.6484-10.9375 59.4238-8.69141Q54.1992-6.44531 48.1934-6.44531Q42.2363-6.44531 37.0117-8.69141Q31.7871-10.9375 27.832-14.8682Q23.877-18.7988 21.6309-24.0479Q19.3848-29.2969 19.4336-35.2539Q19.4336-41.2598 21.6797-46.3135Q23.9258-51.3672 27.9297-55.5664Q29.8828-57.666 30.3223-60.2783Q30.7617-62.8906 28.7109-65.0391Q26.9043-66.9434 24.3408-66.8701Q21.7773-66.7969 19.2383-64.5508Q15.5273-61.377 12.7441-56.543Q9.96094-51.709 8.39844-46.1426Q6.83594-40.5762 6.83594-35.2539ZM38.623-18.0664Q40.4297-18.0664 41.5527-19.1895Q42.6758-20.3125 42.6758-22.2656L42.6758-44.4336Q42.6758-47.0215 41.2598-48.3398Q39.8438-49.6582 37.5977-49.6582Q36.3281-49.6582 35.1318-49.1699Q33.9355-48.6816 32.5195-47.3633L28.7109-43.9941Q26.5625-41.9434 26.5625-40.0391Q26.5625-38.7207 27.4902-37.7686Q28.418-36.8164 29.7852-36.8164Q31.5918-36.8164 32.7148-38.3789L34.4727-40.5273L34.6191-40.5273L34.6191-22.2656Q34.6191-20.3125 35.7178-19.1895Q36.8164-18.0664 38.623-18.0664ZM56.9824-18.0176Q62.1094-18.0176 65.0635-20.9961Q68.0176-23.9746 68.0176-29.1504Q68.0176-33.6914 65.4541-36.1572Q62.8906-38.623 59.5215-38.623Q57.7148-38.623 56.2256-37.8662Q54.7363-37.1094 53.9062-35.7422L53.7598-35.7422L54.1992-42.5293L63.5742-42.5293Q65.1855-42.5293 66.1133-43.5059Q67.041-44.4824 67.041-45.9961Q67.041-47.5586 66.1133-48.4619Q65.1855-49.3652 63.5742-49.3652L51.7578-49.3652Q47.8516-49.3652 47.6074-44.8242L47.0215-34.3262Q46.9238-32.4219 47.9492-31.3477Q48.9746-30.2734 50.7812-30.2734Q52.1973-30.2734 52.8076-30.5908Q53.418-30.9082 54.0527-31.3965Q54.7363-31.9336 55.4443-32.2998Q56.1523-32.666 57.1289-32.666Q58.8379-32.666 59.7656-31.5674Q60.6934-30.4688 60.6934-28.8574Q60.6934-27.1484 59.6924-25.9766Q58.6914-24.8047 57.1289-24.8047Q55.7129-24.8047 54.834-25.5127Q53.9551-26.2207 53.1738-27.1484Q52.7344-27.7344 52.124-28.0762Q51.5137-28.418 50.4883-28.418Q49.0234-28.418 48.0713-27.4902Q47.1191-26.5625 47.1191-25.0977Q47.1191-24.5605 47.2168-24.0479Q47.3145-23.5352 47.6074-22.9492Q48.3887-21.2402 50.8545-19.6289Q53.3203-18.0176 56.9824-18.0176Z"/>
  </g>
  <g id="Bold-S" transform="matrix(1 0 0 1 2292.42 696)">
   <path d="M6.83594-35.2539Q6.83594-26.9043 10.0342-19.5312Q13.2324-12.1582 18.8477-6.54297Q24.4629-0.927734 31.8115 2.27051Q39.1602 5.46875 47.5586 5.46875Q55.957 5.46875 63.3057 2.27051Q70.6543-0.927734 76.2695-6.54297Q81.8848-12.1582 85.083-19.5312Q88.2812-26.9043 88.2812-35.2539Q88.2812-42.4805 85.8887-48.999Q83.4961-55.5176 79.1748-60.8154Q74.8535-66.1133 69.043-69.7754Q63.2324-73.4375 56.4453-74.9512L56.4453-80.8105Q56.4453-83.3984 54.6631-84.0576Q52.8809-84.7168 50.6836-83.1055L36.4258-72.8027Q34.668-71.5332 34.668-69.7266Q34.668-67.9199 36.4258-66.6016L50.6348-56.2988Q52.832-54.6875 54.6387-55.3223Q56.4453-55.957 56.4453-58.5938L56.4453-63.7695Q62.5488-61.9141 67.2852-57.7393Q72.0215-53.5645 74.7314-47.7783Q77.4414-41.9922 77.4414-35.2539Q77.4414-29.0527 75.1221-23.6328Q72.8027-18.2129 68.7012-14.1113Q64.5996-10.0098 59.1797-7.69043Q53.7598-5.37109 47.5586-5.37109Q41.3574-5.37109 35.9131-7.69043Q30.4688-10.0098 26.3672-14.1113Q22.2656-18.2129 19.9463-23.6328Q17.627-29.0527 17.6758-35.2539Q17.6758-41.8945 20.3125-47.5098Q22.9492-53.125 27.5879-57.3242Q29.2969-59.082 29.7119-61.2793Q30.127-63.4766 28.5156-65.332Q27.0508-67.0898 24.8291-67.1387Q22.6074-67.1875 20.4102-65.332Q16.3574-61.9629 13.3057-57.1045Q10.2539-52.2461 8.54492-46.6064Q6.83594-40.9668 6.83594-35.2539ZM37.4512-18.5547Q39.0625-18.5547 40.0391-19.5801Q41.0156-20.6055 41.0156-22.3145L41.0156-44.9219Q41.0156-47.168 39.8438-48.3398Q38.6719-49.5117 36.6699-49.5117Q35.5469-49.5117 34.4971-49.0723Q33.4473-48.6328 32.1289-47.5098L27.9297-44.1406Q26.0254-42.4316 26.0254-40.6738Q26.0254-39.4531 26.9043-38.5498Q27.7832-37.6465 29.0039-37.6465Q30.5664-37.6465 31.6406-39.0137L33.8379-41.2109L33.9355-41.2109L33.9355-22.3145Q33.9355-20.6055 34.8877-19.5801Q35.8398-18.5547 37.4512-18.5547ZM56.1035-18.3594Q61.084-18.3594 64.0381-21.2891Q66.9922-24.2188 66.9922-29.248Q66.9922-33.6914 64.4287-36.2305Q61.8652-38.7695 58.252-38.7695Q56.4453-38.7695 54.8828-37.9883Q53.3203-37.207 52.5391-35.8398L52.5391-35.8398L53.0762-43.0176L62.9395-43.0176Q64.3555-43.0176 65.1855-43.8965Q66.0156-44.7754 66.0156-46.1426Q66.0156-47.5098 65.1855-48.3398Q64.3555-49.1699 62.9395-49.1699L51.1719-49.1699Q47.4609-49.1699 47.168-44.9707L46.5332-34.4727Q46.4355-32.7148 47.3633-31.7383Q48.291-30.7617 49.9512-30.7617Q51.2695-30.7617 51.8799-31.0303Q52.4902-31.2988 53.2227-31.8848Q54.0039-32.5195 54.7607-32.8857Q55.5176-33.252 56.4453-33.252Q58.3008-33.252 59.3018-32.0557Q60.3027-30.8594 60.3027-29.0039Q60.3027-27.0996 59.1553-25.8057Q58.0078-24.5117 56.25-24.5117Q54.834-24.5117 53.833-25.2441Q52.832-25.9766 52.0508-27.0508Q51.5625-27.6855 50.9766-28.0762Q50.3906-28.4668 49.4141-28.4668Q48.0957-28.4668 47.2656-27.6123Q46.4355-26.7578 46.4355-25.4395Q46.4355-24.9512 46.5088-24.4629Q46.582-23.9746 46.8262-23.4375Q47.6562-21.6309 50.0732-19.9951Q52.4902-18.3594 56.1035-18.3594Z"/>
  </g>
  <g id="Semibold-S" transform="matrix(1 0 0 1 1996.2 696)">
   <path d="M6.83594-35.2539Q6.83594-27.002 9.98535-19.7266Q13.1348-12.4512 18.7012-6.88477Q24.2676-1.31836 31.543 1.83105Q38.8184 4.98047 47.0703 4.98047Q55.3711 4.98047 62.6465 1.83105Q69.9219-1.31836 75.4639-6.88477Q81.0059-12.4512 84.1553-19.7266Q87.3047-27.002 87.3047-35.2539Q87.3047-42.4316 84.9121-48.9014Q82.5195-55.3711 78.1982-60.6445Q73.877-65.918 68.0664-69.5068Q62.2559-73.0957 55.5176-74.5605L55.5176-80.2246Q55.5176-82.666 53.9062-83.3008Q52.2949-83.9355 50.2441-82.4707L36.6699-72.7539Q35.0586-71.582 35.0342-69.9219Q35.0098-68.2617 36.6699-67.041L50.1953-57.3242Q52.2461-55.8594 53.8818-56.4697Q55.5176-57.0801 55.5176-59.6191L55.5176-64.6973Q61.9629-62.8906 66.9678-58.6182Q71.9727-54.3457 74.8291-48.3154Q77.6855-42.2852 77.6855-35.2539Q77.6855-28.8574 75.3174-23.3154Q72.9492-17.7734 68.75-13.5498Q64.5508-9.32617 59.0088-6.95801Q53.4668-4.58984 47.0703-4.58984Q40.7227-4.58984 35.1318-6.95801Q29.541-9.32617 25.3418-13.5498Q21.1426-17.7734 18.7744-23.3154Q16.4062-28.8574 16.4551-35.2539Q16.4551-42.2852 19.3848-48.291Q22.3145-54.2969 27.3438-58.5449Q28.9062-60.0586 29.2969-61.9629Q29.6875-63.8672 28.3691-65.5273Q27.1484-67.1387 25.1465-67.2607Q23.1445-67.3828 21.2402-65.8203Q16.8945-62.3535 13.6719-57.4707Q10.4492-52.5879 8.64258-46.875Q6.83594-41.1621 6.83594-35.2539ZM36.5234-18.8965Q38.0371-18.8965 38.916-19.8242Q39.7949-20.752 39.7949-22.3633L39.7949-45.2637Q39.7949-47.2656 38.7695-48.3154Q37.7441-49.3652 35.9375-49.3652Q34.9121-49.3652 33.96-48.9746Q33.0078-48.584 31.7871-47.6074L27.3438-44.2383Q25.5859-42.7734 25.5859-41.1133Q25.5859-39.9902 26.3916-39.1113Q27.1973-38.2324 28.3691-38.2324Q29.7363-38.2324 30.8105-39.4043L33.3496-41.6504L33.3496-41.6504L33.3496-22.3633Q33.3496-20.752 34.2041-19.8242Q35.0586-18.8965 36.5234-18.8965ZM55.4199-18.6035Q60.3027-18.6035 63.2324-21.4844Q66.1621-24.3652 66.1621-29.248Q66.1621-33.6426 63.5986-36.2549Q61.0352-38.8672 57.2754-38.8672Q55.4688-38.8672 53.8818-38.0615Q52.2949-37.2559 51.5137-35.8887L51.6602-35.8887L52.1973-43.3105L62.4512-43.3105Q63.6719-43.3105 64.4531-44.1162Q65.2344-44.9219 65.2344-46.1914Q65.2344-47.5098 64.4531-48.2666Q63.6719-49.0234 62.4512-49.0234L50.6836-49.0234Q47.0703-49.0234 46.7773-45.0684L46.0938-34.5703Q45.9961-32.8613 46.875-31.9824Q47.7539-31.1035 49.2676-31.1035Q50.4883-31.1035 51.123-31.3477Q51.7578-31.5918 52.5391-32.2266Q53.418-32.9102 54.1748-33.2764Q54.9316-33.6426 55.9082-33.6426Q57.8125-33.6426 58.8867-32.373Q59.9609-31.1035 59.9609-29.1016Q59.9609-27.0508 58.7158-25.6836Q57.4707-24.3164 55.5664-24.3164Q54.1504-24.3164 53.0762-25.0488Q52.002-25.7812 51.1719-26.9531Q50.6836-27.6855 50.0977-28.0762Q49.5117-28.4668 48.6328-28.4668Q47.4121-28.4668 46.6309-27.6855Q45.8496-26.9043 45.8496-25.6348Q45.8496-25.1465 45.9229-24.6826Q45.9961-24.2188 46.2402-23.7305Q47.0215-21.875 49.4385-20.2393Q51.8555-18.6035 55.4199-18.6035Z"/>
  </g>
  <g id="Medium-S" transform="matrix(1 0 0 1 1699.83 696)">
   <path d="M6.83594-35.2539Q6.83594-27.0996 9.96094-19.873Q13.0859-12.6465 18.6035-7.12891Q24.1211-1.61133 31.3232 1.51367Q38.5254 4.63867 46.7285 4.63867Q54.9316 4.63867 62.1338 1.51367Q69.3359-1.61133 74.8535-7.12891Q80.3711-12.6465 83.4961-19.873Q86.6211-27.0996 86.6211-35.2539Q86.6211-42.3828 84.2041-48.8525Q81.7871-55.3223 77.4658-60.5225Q73.1445-65.7227 67.334-69.2871Q61.5234-72.8516 54.7852-74.3164L54.7852-79.7363Q54.7852-82.1289 53.2959-82.7148Q51.8066-83.3008 49.9023-81.9336L36.8652-72.6562Q35.3027-71.582 35.3027-70.0684Q35.3027-68.5547 36.8652-67.4316L49.9023-58.1543Q51.7578-56.7871 53.2715-57.3486Q54.7852-57.9102 54.7852-60.3516L54.7852-65.3809Q61.4746-63.6719 66.6992-59.3018Q71.9238-54.9316 74.9023-48.7305Q77.8809-42.5293 77.8809-35.2539Q77.8809-28.7109 75.4883-23.0713Q73.0957-17.4316 68.8232-13.1348Q64.5508-8.83789 58.8867-6.4209Q53.2227-4.00391 46.7285-4.00391Q40.2344-4.00391 34.5459-6.4209Q28.8574-8.83789 24.585-13.1348Q20.3125-17.4316 17.8955-23.0713Q15.4785-28.7109 15.5273-35.2539Q15.5273-42.627 18.6523-48.9014Q21.7773-55.1758 27.1484-59.4727Q28.6133-60.791 29.0039-62.4756Q29.3945-64.1602 28.2715-65.7227Q27.1973-67.1875 25.3906-67.3828Q23.584-67.5781 21.8262-66.2109Q17.334-62.6465 13.9648-57.7637Q10.5957-52.8809 8.71582-47.1191Q6.83594-41.3574 6.83594-35.2539ZM35.8887-19.1406Q37.3047-19.1406 38.1104-20.0195Q38.916-20.8984 38.916-22.3633L38.916-45.5078Q38.916-47.3633 38.0127-48.3154Q37.1094-49.2676 35.4492-49.2676Q34.4727-49.2676 33.5938-48.9258Q32.7148-48.584 31.543-47.6562L26.9043-44.3359Q25.293-43.0176 25.293-41.4551Q25.293-40.3809 26.0742-39.5264Q26.8555-38.6719 27.9297-38.6719Q29.1992-38.6719 30.2734-39.7461L33.0078-42.041L32.959-42.041L32.959-22.3633Q32.959-20.8984 33.7402-20.0195Q34.5215-19.1406 35.8887-19.1406ZM54.9316-18.7988Q59.7656-18.7988 62.6709-21.6553Q65.5762-24.5117 65.5762-29.2969Q65.5762-33.6426 63.0127-36.3037Q60.4492-38.9648 56.5918-38.9648Q54.7852-38.9648 53.1494-38.1592Q51.5137-37.3535 50.8301-35.9375L50.9766-35.9375L51.5625-43.5547L62.1094-43.5547Q63.1836-43.5547 63.9404-44.3115Q64.6973-45.0684 64.6973-46.2402Q64.6973-47.4609 63.9404-48.1934Q63.1836-48.9258 62.1094-48.9258L50.3418-48.9258Q46.8262-48.9258 46.582-45.1172L45.8496-34.668Q45.7031-33.0078 46.5332-32.1777Q47.3633-31.3477 48.8281-31.3477Q50-31.3477 50.6348-31.5674Q51.2695-31.7871 52.0996-32.4707Q53.0273-33.2031 53.8086-33.5693Q54.5898-33.9355 55.5664-33.9355Q57.5195-33.9355 58.6426-32.6416Q59.7656-31.3477 59.7656-29.1992Q59.7656-27.002 58.4473-25.5615Q57.1289-24.1211 55.127-24.1211Q53.6621-24.1211 52.5146-24.9023Q51.3672-25.6836 50.5371-26.9043Q50.0977-27.6367 49.4873-28.0762Q48.877-28.5156 48.0469-28.5156Q46.875-28.5156 46.167-27.7588Q45.459-27.002 45.459-25.8301Q45.459-25.3418 45.5566-24.8779Q45.6543-24.4141 45.8008-23.9746Q46.6309-22.1191 48.999-20.459Q51.3672-18.7988 54.9316-18.7988Z"/>
  </g>
  <g id="Regular-S" transform="matrix(1 0 0 1 1403.58 696)">
   <path d="M6.83594-35.2539Q6.83594-27.1973 9.93652-20.0684Q13.0371-12.9395 18.4814-7.4707Q23.9258-2.00195 31.0547 1.07422Q38.1836 4.15039 46.2402 4.15039Q54.3457 4.15039 61.4746 1.07422Q68.6035-2.00195 74.0479-7.4707Q79.4922-12.9395 82.5928-20.0684Q85.6934-27.1973 85.6934-35.2539Q85.6934-42.334 83.2764-48.7549Q80.8594-55.1758 76.5137-60.3516Q72.168-65.5273 66.3818-69.043Q60.5957-72.5586 53.8574-73.9258L53.8574-79.1504Q53.8574-81.3965 52.5391-81.958Q51.2207-82.5195 49.5117-81.2988L37.1094-72.6074Q35.6934-71.6309 35.6689-70.2637Q35.6445-68.8965 37.1094-67.8711L49.4629-59.1797Q51.1719-57.959 52.5146-58.4961Q53.8574-59.0332 53.8574-61.377L53.8574-66.3086Q60.8887-64.6484 66.3818-60.1807Q71.875-55.7129 75.0244-49.2676Q78.1738-42.8223 78.1738-35.2539Q78.1738-28.5645 75.708-22.7783Q73.2422-16.9922 68.8721-12.5977Q64.502-8.20312 58.7158-5.7373Q52.9297-3.27148 46.2402-3.27148Q39.5996-3.27148 33.7891-5.7373Q27.9785-8.20312 23.584-12.5977Q19.1895-16.9922 16.7236-22.7783Q14.2578-28.5645 14.3066-35.2539Q14.3066-43.0664 17.7246-49.707Q21.1426-56.3477 26.9043-60.6934Q28.2227-61.7188 28.5889-63.1348Q28.9551-64.5508 28.125-65.918Q27.2949-67.2852 25.708-67.5537Q24.1211-67.8223 22.6562-66.6992Q17.8711-63.0371 14.3311-58.1299Q10.791-53.2227 8.81348-47.4121Q6.83594-41.6016 6.83594-35.2539ZM35.0586-19.4336Q36.3281-19.4336 37.0605-20.2393Q37.793-21.0449 37.793-22.4121L37.793-45.8008Q37.793-47.4609 37.0117-48.3154Q36.2305-49.1699 34.7656-49.1699Q33.8867-49.1699 33.1299-48.8525Q32.373-48.5352 31.25-47.7539L26.3672-44.4336Q24.9023-43.3594 24.9023-41.8945Q24.9023-40.8691 25.6348-40.0635Q26.3672-39.2578 27.3926-39.2578Q28.4668-39.2578 29.4922-40.1367L32.5684-42.4805L32.4219-42.4805L32.4219-22.4121Q32.4219-21.0449 33.1299-20.2393Q33.8379-19.4336 35.0586-19.4336ZM54.2969-19.043Q59.082-19.043 61.9629-21.8506Q64.8438-24.6582 64.8438-29.3457Q64.8438-33.6426 62.2803-36.3525Q59.7168-39.0625 55.6641-39.0625Q53.9062-39.0625 52.2217-38.2324Q50.5371-37.4023 49.8535-35.9863L50.1465-35.9863L50.7324-43.8477L61.6699-43.8477Q62.5977-43.8477 63.2812-44.5557Q63.9648-45.2637 63.9648-46.3379Q63.9648-47.4609 63.2812-48.1201Q62.5977-48.7793 61.6699-48.7793L49.9023-48.7793Q46.5332-48.7793 46.2402-45.2148L45.459-34.7656Q45.3125-33.1543 46.0938-32.3975Q46.875-31.6406 48.2422-31.6406Q49.3164-31.6406 49.9512-31.8604Q50.5859-32.0801 51.5137-32.8125Q52.4902-33.5938 53.2959-33.96Q54.1016-34.3262 55.0781-34.3262Q57.0801-34.3262 58.2764-32.959Q59.4727-31.5918 59.4727-29.2969Q59.4727-26.9531 58.0566-25.4395Q56.6406-23.9258 54.4922-23.9258Q53.0273-23.9258 51.8066-24.707Q50.5859-25.4883 49.7559-26.8066Q49.2676-27.6367 48.6816-28.0762Q48.0957-28.5156 47.3145-28.5156Q46.2402-28.5156 45.5811-27.832Q44.9219-27.1484 44.9219-26.0254Q44.9219-25.5859 45.0195-25.1465Q45.1172-24.707 45.2637-24.3164Q46.0938-22.3633 48.4375-20.7031Q50.7812-19.043 54.2969-19.043Z"/>
  </g>
  <g id="Light-S" transform="matrix(1 0 0 1 1107.6 696)">
   <path d="M6.83594-35.2051Q6.83594-27.2949 9.86328-20.2881Q12.8906-13.2812 18.2373-7.93457Q23.584-2.58789 30.5908 0.439453Q37.5977 3.4668 45.5078 3.4668Q53.4668 3.4668 60.4736 0.439453Q67.4805-2.58789 72.8271-7.93457Q78.1738-13.2812 81.2012-20.2881Q84.2285-27.2949 84.2285-35.2051Q84.2285-42.2363 81.8359-48.5596Q79.4434-54.8828 75.1465-59.9609Q70.8496-65.0391 65.1367-68.4814Q59.4238-71.9238 52.7344-73.2422L52.7344-78.8574Q52.7344-80.6641 51.6602-81.1523Q50.5859-81.6406 49.1211-80.6152L37.0605-72.168Q35.8398-71.3379 35.8398-70.2148Q35.8398-69.0918 37.0605-68.2129L49.0723-59.7656Q50.5371-58.7402 51.6357-59.2041Q52.7344-59.668 52.7344-61.5234L52.7344-67.3828Q60.1562-65.7715 65.9668-61.1572Q71.7773-56.543 75.1221-49.8291Q78.4668-43.1152 78.4668-35.2051Q78.4668-28.3691 75.9033-22.3877Q73.3398-16.4062 68.8477-11.8652Q64.3555-7.32422 58.374-4.78516Q52.3926-2.24609 45.5078-2.24609Q38.6719-2.24609 32.6904-4.78516Q26.709-7.32422 22.168-11.8652Q17.627-16.4062 15.0879-22.3877Q12.5488-28.3691 12.5488-35.2051Q12.5488-43.6523 16.4307-50.7568Q20.3125-57.8613 26.8066-62.2559Q27.7832-63.0371 28.0762-64.1357Q28.3691-65.2344 27.7344-66.2598Q27.0996-67.334 25.9033-67.5293Q24.707-67.7246 23.584-66.8945Q18.5059-63.3789 14.7705-58.4717Q11.0352-53.5645 8.93555-47.6562Q6.83594-41.748 6.83594-35.2051ZM34.375-19.6777Q35.3516-19.6777 35.9375-20.3369Q36.5234-20.9961 36.5234-22.0703L36.5234-46.7773Q36.5234-48.0957 35.8887-48.7793Q35.2539-49.4629 34.082-49.4629Q33.3496-49.4629 32.7393-49.2188Q32.1289-48.9746 31.25-48.3398L25.6348-44.5801Q24.4629-43.75 24.4629-42.5781Q24.4629-41.748 25.0488-41.1133Q25.6348-40.4785 26.4648-40.4785Q27.2949-40.4785 28.0762-41.1133L32.2754-44.0918L32.2266-44.0918L32.2266-22.0703Q32.2266-20.9961 32.8125-20.3369Q33.3984-19.6777 34.375-19.6777ZM54.0039-19.1895Q58.7402-19.1895 61.6211-21.9727Q64.502-24.7559 64.502-29.3457Q64.502-33.5449 61.8896-36.2549Q59.2773-38.9648 55.1758-38.9648Q53.3203-38.9648 51.5381-38.1104Q49.7559-37.2559 48.9258-35.791L49.0723-35.791L49.7559-45.0195L61.7188-45.0195Q62.4512-45.0195 63.0127-45.5811Q63.5742-46.1426 63.5742-47.0215Q63.5742-47.9004 63.0127-48.4131Q62.4512-48.9258 61.7188-48.9258L49.0723-48.9258Q46.3379-48.9258 46.0938-46.0449L45.2148-34.6191Q45.1172-33.3008 45.752-32.6904Q46.3867-32.0801 47.5098-32.0801Q48.3398-32.0801 48.8525-32.2754Q49.3652-32.4707 50.0977-33.0566Q51.3184-34.1797 52.3682-34.668Q53.418-35.1562 54.7363-35.1562Q57.1777-35.1562 58.667-33.5449Q60.1562-31.9336 60.1562-29.2969Q60.1562-26.6113 58.4473-24.8535Q56.7383-23.0957 54.1504-23.0957Q52.3438-23.0957 50.8301-24.0967Q49.3164-25.0977 48.584-26.6602Q48.2422-27.3438 47.7539-27.71Q47.2656-28.0762 46.582-28.0762Q45.752-28.0762 45.2148-27.5391Q44.6777-27.002 44.6777-26.123Q44.6777-25.7324 44.751-25.3906Q44.8242-25.0488 44.9219-24.7559Q45.7031-22.5586 48.1201-20.874Q50.5371-19.1895 54.0039-19.1895Z"/>
  </g>
  <g id="Thin-S" transform="matrix(1 0 0 1 811.867 696)">
   <path d="M6.83594-35.2051Q6.83594-27.3926 9.79004-20.5811Q12.7441-13.7695 17.9199-8.54492Q23.0957-3.32031 29.9316-0.390625Q36.7676 2.53906 44.5312 2.53906Q52.3438 2.53906 59.1553-0.390625Q65.9668-3.32031 71.1914-8.54492Q76.416-13.7695 79.3457-20.5811Q82.2754-27.3926 82.2754-35.2051Q82.2754-42.0898 79.9316-48.291Q77.5879-54.4922 73.3643-59.4727Q69.1406-64.4531 63.501-67.7734Q57.8613-71.0938 51.2695-72.3145L51.2695-78.4668Q51.2695-79.7363 50.4883-80.1025Q49.707-80.4688 48.584-79.6875L37.0117-71.5332Q36.084-70.9473 36.084-70.1416Q36.084-69.3359 37.0117-68.6523L48.584-60.5469Q49.707-59.7656 50.4883-60.1318Q51.2695-60.498 51.2695-61.7676L51.2695-68.8477Q59.1309-67.2852 65.3809-62.4756Q71.6309-57.666 75.2441-50.5859Q78.8574-43.5059 78.8574-35.2051Q78.8574-28.0762 76.1963-21.8506Q73.5352-15.625 68.8232-10.9131Q64.1113-6.20117 57.8857-3.54004Q51.6602-0.878906 44.5312-0.878906Q37.4512-0.878906 31.2256-3.54004Q25-6.20117 20.2881-10.9131Q15.5762-15.625 12.915-21.8506Q10.2539-28.0762 10.2051-35.2051Q10.2051-44.4336 14.7217-52.124Q19.2383-59.8145 26.6113-64.3555Q27.2461-64.7949 27.417-65.4541Q27.5879-66.1133 27.1973-66.748Q26.8555-67.334 26.1475-67.4805Q25.4395-67.627 24.7559-67.1387Q19.3848-63.8184 15.3564-58.9111Q11.3281-54.0039 9.08203-47.9492Q6.83594-41.8945 6.83594-35.2051ZM33.3984-20.0195Q33.9844-20.0195 34.3994-20.459Q34.8145-20.8984 34.8145-21.6309L34.8145-48.1445Q34.8145-48.9258 34.3994-49.3896Q33.9844-49.8535 33.1543-49.8535Q32.6172-49.8535 32.2021-49.6826Q31.7871-49.5117 31.1523-49.0723L24.6094-44.7754Q23.8281-44.2871 23.8281-43.457Q23.8281-42.9199 24.2188-42.5049Q24.6094-42.0898 25.1465-42.0898Q25.6836-42.0898 26.123-42.4805L31.7871-46.2402L31.9336-46.2402L31.9336-21.6309Q31.9336-20.8984 32.3242-20.459Q32.7148-20.0195 33.3984-20.0195ZM53.5156-19.3848Q58.2031-19.3848 61.084-22.1191Q63.9648-24.8535 63.9648-29.3457Q63.9648-33.4473 61.3281-36.1572Q58.6914-38.8672 54.541-38.8672Q52.4902-38.8672 50.5859-37.9639Q48.6816-37.0605 47.6074-35.498L47.5586-35.498L48.4863-46.5332L61.6699-46.5332Q62.207-46.5332 62.5977-46.9238Q62.9883-47.3145 62.9883-47.9004Q62.9883-48.4863 62.5977-48.8281Q62.207-49.1699 61.6699-49.1699L47.9004-49.1699Q45.9961-49.1699 45.8496-47.168L44.873-34.375Q44.8242-33.4961 45.2393-33.0566Q45.6543-32.6172 46.4844-32.6172Q47.0703-32.6172 47.3877-32.7881Q47.7051-32.959 48.2422-33.3496Q49.707-34.9121 51.0742-35.5957Q52.4414-36.2793 54.1992-36.2793Q57.2266-36.2793 59.1309-34.3506Q61.0352-32.4219 61.0352-29.2969Q61.0352-26.123 58.96-24.0723Q56.8848-22.0215 53.7109-22.0215Q51.3672-22.0215 49.4873-23.291Q47.6074-24.5605 46.9727-26.4648Q46.7773-27.002 46.4355-27.2705Q46.0938-27.5391 45.6055-27.5391Q45.0195-27.5391 44.6533-27.1729Q44.2871-26.8066 44.2871-26.2207Q44.2871-25.9277 44.3115-25.708Q44.3359-25.4883 44.4336-25.293Q45.166-22.8027 47.6807-21.0938Q50.1953-19.3848 53.5156-19.3848Z"/>
  </g>
  <g id="Ultralight-S" transform="matrix(1 0 0 1 515.644 696)">
   <path d="M6.83594-35.1562Q6.83594-27.4902 9.74121-20.7275Q12.6465-13.9648 17.7734-8.83789Q22.9004-3.71094 29.6387-0.830078Q36.377 2.05078 44.043 2.05078Q51.7578 2.05078 58.4717-0.830078Q65.1855-3.71094 70.3369-8.83789Q75.4883-13.9648 78.3936-20.7275Q81.2988-27.4902 81.2988-35.1562Q81.2988-41.9922 78.9795-48.1201Q76.6602-54.248 72.4609-59.1797Q68.2617-64.1113 62.6465-67.3828Q57.0312-70.6543 50.4883-71.8262L50.4883-78.2715Q50.4883-79.248 49.8779-79.541Q49.2676-79.834 48.3398-79.1992L36.9629-71.2402Q36.1816-70.7031 36.1816-70.0684Q36.1816-69.4336 36.9629-68.8477L48.3398-60.9375Q49.2676-60.2539 49.8779-60.5713Q50.4883-60.8887 50.4883-61.8652L50.4883-69.5801Q58.6426-68.0664 65.0879-63.1348Q71.5332-58.2031 75.293-50.9521Q79.0527-43.7012 79.0527-35.1562Q79.0527-27.9297 76.3184-21.582Q73.584-15.2344 68.7988-10.4248Q64.0137-5.61523 57.666-2.90527Q51.3184-0.195312 44.043-0.195312Q36.8164-0.195312 30.4688-2.90527Q24.1211-5.61523 19.3115-10.4248Q14.502-15.2344 11.792-21.582Q9.08203-27.9297 9.0332-35.1562Q9.0332-44.8242 13.8672-52.832Q18.7012-60.8398 26.5625-65.4297Q26.9531-65.6738 27.0752-66.1133Q27.1973-66.5527 26.9531-66.9922Q26.7578-67.3828 26.2939-67.4805Q25.8301-67.5781 25.3906-67.2852Q19.8242-64.0137 15.6494-59.1064Q11.4746-54.1992 9.15527-48.0957Q6.83594-41.9922 6.83594-35.1562ZM32.9102-20.2148Q33.3496-20.2148 33.667-20.5322Q33.9844-20.8496 33.9844-21.4355L33.9844-48.7793Q33.9844-49.3652 33.6426-49.707Q33.3008-50.0488 32.7148-50.0488Q32.2754-50.0488 31.958-49.9268Q31.6406-49.8047 31.1523-49.4629L24.1211-44.873Q23.5352-44.5312 23.5352-43.9453Q23.5352-43.5059 23.8037-43.2129Q24.0723-42.9199 24.5117-42.9199Q24.8535-42.9199 25.1953-43.1152L31.5918-47.3633L31.8359-47.3633L31.8359-21.4355Q31.8359-20.8496 32.1289-20.5322Q32.4219-20.2148 32.9102-20.2148ZM53.3203-19.4824Q58.0078-19.4824 60.8643-22.2168Q63.7207-24.9512 63.7207-29.3457Q63.7207-33.3984 61.0596-36.1084Q58.3984-38.8184 54.1992-38.8184Q52.0996-38.8184 50.1465-37.8906Q48.1934-36.9629 46.9727-35.3516L46.8262-35.3516L47.8027-47.3633L61.7188-47.3633Q62.1582-47.3633 62.4512-47.6318Q62.7441-47.9004 62.7441-48.3398Q62.7441-48.7793 62.4512-49.0234Q62.1582-49.2676 61.7188-49.2676L47.3633-49.2676Q45.8496-49.2676 45.752-47.7539L44.7266-34.2773Q44.7266-33.5938 45.0195-33.252Q45.3125-32.9102 45.9473-32.9102Q46.3867-32.9102 46.6553-33.0566Q46.9238-33.2031 47.2656-33.4961Q48.877-35.3027 50.4395-36.0596Q52.002-36.8164 53.9551-36.8164Q57.3242-36.8164 59.4238-34.7168Q61.5234-32.6172 61.5234-29.2969Q61.5234-25.9277 59.2285-23.7061Q56.9336-21.4844 53.4668-21.4844Q50.8789-21.4844 48.8281-22.876Q46.7773-24.2676 46.1914-26.3672Q46.0938-26.8066 45.8252-27.0264Q45.5566-27.2461 45.1172-27.2461Q44.6777-27.2461 44.4092-26.9775Q44.1406-26.709 44.1406-26.2695Q44.1406-26.0254 44.1406-25.8545Q44.1406-25.6836 44.2383-25.5859Q44.9219-22.9492 47.4854-21.2158Q50.0488-19.4824 53.3203-19.4824Z"/>
  </g>
 </g>
</svg>
