<?xml version="1.0" encoding="UTF-8"?>
<!--Generator: Apple Native CoreSVG 149-->
<!DOCTYPE svg
PUBLIC "-//W3C//DTD SVG 1.1//EN"
       "http://www.w3.org/Graphics/SVG/1.1/DTD/svg11.dtd">
<svg version="1.1" xmlns="http://www.w3.org/2000/svg" xmlns:xlink="http://www.w3.org/1999/xlink" width="3300" height="2200">
 <!--glyph: "uni10014A.medium", point size: 100.0, font version: "17.0d9e1", template writer version: "59"-->
 <g id="Notes">
  <rect height="2200" id="artboard" style="fill:white;opacity:1" width="3300" x="0" y="0"/>
  <line style="fill:none;stroke:black;opacity:1;stroke-width:0.5;" x1="263" x2="3036" y1="292" y2="292"/>
  <text style="stroke:none;fill:black;font-family:sans-serif;font-size:13;font-weight:bold;" transform="matrix(1 0 0 1 263 322)">Weight/Scale Variations</text>
  <text style="stroke:none;fill:black;font-family:sans-serif;font-size:13;text-anchor:middle;" transform="matrix(1 0 0 1 559.711 322)">Ultralight</text>
  <text style="stroke:none;fill:black;font-family:sans-serif;font-size:13;text-anchor:middle;" transform="matrix(1 0 0 1 856.422 322)">Thin</text>
  <text style="stroke:none;fill:black;font-family:sans-serif;font-size:13;text-anchor:middle;" transform="matrix(1 0 0 1 1153.13 322)">Light</text>
  <text style="stroke:none;fill:black;font-family:sans-serif;font-size:13;text-anchor:middle;" transform="matrix(1 0 0 1 1449.84 322)">Regular</text>
  <text style="stroke:none;fill:black;font-family:sans-serif;font-size:13;text-anchor:middle;" transform="matrix(1 0 0 1 1746.56 322)">Medium</text>
  <text style="stroke:none;fill:black;font-family:sans-serif;font-size:13;text-anchor:middle;" transform="matrix(1 0 0 1 2043.27 322)">Semibold</text>
  <text style="stroke:none;fill:black;font-family:sans-serif;font-size:13;text-anchor:middle;" transform="matrix(1 0 0 1 2339.98 322)">Bold</text>
  <text style="stroke:none;fill:black;font-family:sans-serif;font-size:13;text-anchor:middle;" transform="matrix(1 0 0 1 2636.69 322)">Heavy</text>
  <text style="stroke:none;fill:black;font-family:sans-serif;font-size:13;text-anchor:middle;" transform="matrix(1 0 0 1 2933.4 322)">Black</text>
  <line style="fill:none;stroke:black;opacity:1;stroke-width:0.5;" x1="263" x2="3036" y1="1903" y2="1903"/>
  <g transform="matrix(1 0 0 1 263 1933)">
   <path d="M9.24805 0.830078Q10.8691 0.830078 12.2949 0.214844Q13.7207-0.400391 14.8096-1.49414Q15.8984-2.58789 16.5186-4.01367Q17.1387-5.43945 17.1387-7.05078Q17.1387-8.66211 16.5186-10.0879Q15.8984-11.5137 14.8047-12.6074Q13.7109-13.7012 12.2852-14.3164Q10.8594-14.9316 9.23828-14.9316Q7.62695-14.9316 6.20117-14.3164Q4.77539-13.7012 3.69141-12.6074Q2.60742-11.5137 1.9873-10.0879Q1.36719-8.66211 1.36719-7.05078Q1.36719-5.43945 1.9873-4.01367Q2.60742-2.58789 3.69629-1.49414Q4.78516-0.400391 6.21094 0.214844Q7.63672 0.830078 9.24805 0.830078ZM9.24805-0.654297Q7.91992-0.654297 6.7627-1.14746Q5.60547-1.64062 4.73145-2.51953Q3.85742-3.39844 3.36426-4.56055Q2.87109-5.72266 2.87109-7.05078Q2.87109-8.37891 3.35938-9.54102Q3.84766-10.7031 4.72168-11.582Q5.5957-12.4609 6.75293-12.9541Q7.91016-13.4473 9.23828-13.4473Q10.5762-13.4473 11.7334-12.9541Q12.8906-12.4609 13.7695-11.582Q14.6484-10.7031 15.1465-9.54102Q15.6445-8.37891 15.6445-7.05078Q15.6445-5.72266 15.1514-4.56055Q14.6582-3.39844 13.7842-2.51953Q12.9102-1.64062 11.748-1.14746Q10.5859-0.654297 9.24805-0.654297ZM5.83984-7.04102Q5.83984-6.71875 6.04492-6.51855Q6.25-6.31836 6.5918-6.31836L8.50586-6.31836L8.50586-4.39453Q8.50586-4.0625 8.70605-3.85742Q8.90625-3.65234 9.22852-3.65234Q9.56055-3.65234 9.76562-3.85742Q9.9707-4.0625 9.9707-4.39453L9.9707-6.31836L11.8945-6.31836Q12.2266-6.31836 12.4316-6.51855Q12.6367-6.71875 12.6367-7.04102Q12.6367-7.37305 12.4316-7.57812Q12.2266-7.7832 11.8945-7.7832L9.9707-7.7832L9.9707-9.69727Q9.9707-10.0391 9.76562-10.2441Q9.56055-10.4492 9.22852-10.4492Q8.90625-10.4492 8.70605-10.2441Q8.50586-10.0391 8.50586-9.69727L8.50586-7.7832L6.5918-7.7832Q6.25-7.7832 6.04492-7.57812Q5.83984-7.37305 5.83984-7.04102Z"/>
  </g>
  <g transform="matrix(1 0 0 1 281.867 1933)">
   <path d="M11.709 2.91016Q13.75 2.91016 15.5518 2.12891Q17.3535 1.34766 18.7305-0.0292969Q20.1074-1.40625 20.8887-3.20801Q21.6699-5.00977 21.6699-7.05078Q21.6699-9.0918 20.8887-10.8936Q20.1074-12.6953 18.7305-14.0723Q17.3535-15.4492 15.5469-16.2305Q13.7402-17.0117 11.6992-17.0117Q9.6582-17.0117 7.85645-16.2305Q6.05469-15.4492 4.68262-14.0723Q3.31055-12.6953 2.5293-10.8936Q1.74805-9.0918 1.74805-7.05078Q1.74805-5.00977 2.5293-3.20801Q3.31055-1.40625 4.6875-0.0292969Q6.06445 1.34766 7.86621 2.12891Q9.66797 2.91016 11.709 2.91016ZM11.709 1.25Q9.98047 1.25 8.47656 0.605469Q6.97266-0.0390625 5.83496-1.17676Q4.69727-2.31445 4.05762-3.81836Q3.41797-5.32227 3.41797-7.05078Q3.41797-8.7793 4.05762-10.2832Q4.69727-11.7871 5.83008-12.9297Q6.96289-14.0723 8.4668-14.7119Q9.9707-15.3516 11.6992-15.3516Q13.4277-15.3516 14.9316-14.7119Q16.4355-14.0723 17.5781-12.9297Q18.7207-11.7871 19.3652-10.2832Q20.0098-8.7793 20.0098-7.05078Q20.0098-5.32227 19.3701-3.81836Q18.7305-2.31445 17.5928-1.17676Q16.4551-0.0390625 14.9463 0.605469Q13.4375 1.25 11.709 1.25ZM7.39258-7.04102Q7.39258-6.68945 7.62695-6.46484Q7.86133-6.24023 8.23242-6.24023L10.8789-6.24023L10.8789-3.57422Q10.8789-3.21289 11.1035-2.9834Q11.3281-2.75391 11.6797-2.75391Q12.0508-2.75391 12.2852-2.9834Q12.5195-3.21289 12.5195-3.57422L12.5195-6.24023L15.1758-6.24023Q15.5371-6.24023 15.7715-6.46484Q16.0059-6.68945 16.0059-7.04102Q16.0059-7.41211 15.7715-7.6416Q15.5371-7.87109 15.1758-7.87109L12.5195-7.87109L12.5195-10.5176Q12.5195-10.8984 12.2852-11.1279Q12.0508-11.3574 11.6797-11.3574Q11.3281-11.3574 11.1035-11.1279Q10.8789-10.8984 10.8789-10.5176L10.8789-7.87109L8.23242-7.87109Q7.85156-7.87109 7.62207-7.6416Q7.39258-7.41211 7.39258-7.04102Z"/>
  </g>
  <g transform="matrix(1 0 0 1 305.646 1933)">
   <path d="M14.9707 5.66406Q17.0605 5.66406 18.96 5.01465Q20.8594 4.36523 22.4512 3.19336Q24.043 2.02148 25.2197 0.429688Q26.3965-1.16211 27.0459-3.06641Q27.6953-4.9707 27.6953-7.05078Q27.6953-9.14062 27.0459-11.04Q26.3965-12.9395 25.2197-14.5312Q24.043-16.123 22.4512-17.2998Q20.8594-18.4766 18.9551-19.126Q17.0508-19.7754 14.9609-19.7754Q12.8711-19.7754 10.9717-19.126Q9.07227-18.4766 7.48535-17.2998Q5.89844-16.123 4.72168-14.5312Q3.54492-12.9395 2.90039-11.04Q2.25586-9.14062 2.25586-7.05078Q2.25586-4.9707 2.90527-3.06641Q3.55469-1.16211 4.72656 0.429688Q5.89844 2.02148 7.49023 3.19336Q9.08203 4.36523 10.9814 5.01465Q12.8809 5.66406 14.9707 5.66406ZM14.9707 3.84766Q13.1641 3.84766 11.5283 3.2959Q9.89258 2.74414 8.53516 1.74805Q7.17773 0.751953 6.17676-0.610352Q5.17578-1.97266 4.62891-3.6084Q4.08203-5.24414 4.08203-7.05078Q4.08203-8.86719 4.62891-10.5029Q5.17578-12.1387 6.17188-13.501Q7.16797-14.8633 8.52539-15.8594Q9.88281-16.8555 11.5186-17.4023Q13.1543-17.9492 14.9609-17.9492Q16.7773-17.9492 18.4131-17.4023Q20.0488-16.8555 21.4111-15.8594Q22.7734-14.8633 23.7695-13.501Q24.7656-12.1387 25.3174-10.5029Q25.8691-8.86719 25.8691-7.05078Q25.8789-5.24414 25.332-3.6084Q24.7852-1.97266 23.7842-0.610352Q22.7832 0.751953 21.4209 1.74805Q20.0586 2.74414 18.4229 3.2959Q16.7871 3.84766 14.9707 3.84766ZM9.45312-7.04102Q9.45312-6.66016 9.71191-6.41113Q9.9707-6.16211 10.3711-6.16211L14.0625-6.16211L14.0625-2.46094Q14.0625-2.06055 14.3115-1.80664Q14.5605-1.55273 14.9414-1.55273Q15.3516-1.55273 15.6055-1.80664Q15.8594-2.06055 15.8594-2.46094L15.8594-6.16211L19.5605-6.16211Q19.9609-6.16211 20.2148-6.41113Q20.4688-6.66016 20.4688-7.04102Q20.4688-7.45117 20.2148-7.70508Q19.9609-7.95898 19.5605-7.95898L15.8594-7.95898L15.8594-11.6504Q15.8594-12.0605 15.6055-12.3145Q15.3516-12.5684 14.9414-12.5684Q14.5605-12.5684 14.3115-12.3096Q14.0625-12.0508 14.0625-11.6504L14.0625-7.95898L10.3711-7.95898Q9.96094-7.95898 9.70703-7.70508Q9.45312-7.45117 9.45312-7.04102Z"/>
  </g>
  <text style="stroke:none;fill:black;font-family:sans-serif;font-size:13;font-weight:bold;" transform="matrix(1 0 0 1 263 1953)">Design Variations</text>
  <text style="stroke:none;fill:black;font-family:sans-serif;font-size:13;" transform="matrix(1 0 0 1 263 1971)">Symbols are supported in up to nine weights and three scales.</text>
  <text style="stroke:none;fill:black;font-family:sans-serif;font-size:13;" transform="matrix(1 0 0 1 263 1989)">For optimal layout with text and other symbols, vertically align</text>
  <text style="stroke:none;fill:black;font-family:sans-serif;font-size:13;" transform="matrix(1 0 0 1 263 2007)">symbols with the adjacent text.</text>
  <line style="fill:none;stroke:#00AEEF;stroke-width:0.5;opacity:1.0;" x1="776" x2="776" y1="1919" y2="1933"/>
  <g transform="matrix(1 0 0 1 776 1933)">
   <path d="M3.31055 0.15625Q3.70117 0.15625 3.91602-0.00976562Q4.13086-0.175781 4.26758-0.585938L5.52734-4.0332L11.2891-4.0332L12.5488-0.585938Q12.6855-0.175781 12.9004-0.00976562Q13.1152 0.15625 13.4961 0.15625Q13.8867 0.15625 14.1162-0.0585938Q14.3457-0.273438 14.3457-0.644531Q14.3457-0.869141 14.2383-1.17188L9.6582-13.3691Q9.48242-13.8184 9.17969-14.043Q8.87695-14.2676 8.4082-14.2676Q7.5-14.2676 7.17773-13.3789L2.59766-1.16211Q2.49023-0.859375 2.49023-0.634766Q2.49023-0.263672 2.70996-0.0537109Q2.92969 0.15625 3.31055 0.15625ZM6.00586-5.51758L8.37891-12.0898L8.42773-12.0898L10.8008-5.51758Z"/>
  </g>
  <line style="fill:none;stroke:#00AEEF;stroke-width:0.5;opacity:1.0;" x1="793.197" x2="793.197" y1="1919" y2="1933"/>
  <text style="stroke:none;fill:black;font-family:sans-serif;font-size:13;font-weight:bold;" transform="matrix(1 0 0 1 776 1953)">Margins</text>
  <text style="stroke:none;fill:black;font-family:sans-serif;font-size:13;" transform="matrix(1 0 0 1 776 1971)">Leading and trailing margins on the left and right side of each symbol</text>
  <text style="stroke:none;fill:black;font-family:sans-serif;font-size:13;" transform="matrix(1 0 0 1 776 1989)">can be adjusted by modifying the x-location of the margin guidelines.</text>
  <text style="stroke:none;fill:black;font-family:sans-serif;font-size:13;" transform="matrix(1 0 0 1 776 2007)">Modifications are automatically applied proportionally to all</text>
  <text style="stroke:none;fill:black;font-family:sans-serif;font-size:13;" transform="matrix(1 0 0 1 776 2025)">scales and weights.</text>
  <g transform="matrix(1 0 0 1 1289 1933)">
   <path d="M2.8418 1.86523L4.54102 3.57422Q5.18555 4.22852 5.90332 4.17969Q6.62109 4.13086 7.31445 3.35938L18.0078-8.42773L17.041-9.4043L6.42578 2.27539Q6.16211 2.57812 5.89355 2.61719Q5.625 2.65625 5.27344 2.30469L4.10156 1.14258Q3.75 0.791016 3.79395 0.522461Q3.83789 0.253906 4.14062-0.0195312L15.6152-10.8203L14.6387-11.7871L3.04688-0.898438Q2.30469-0.214844 2.25098 0.498047Q2.19727 1.21094 2.8418 1.86523ZM9.25781-16.3281Q8.94531-16.0254 8.90625-15.6348Q8.86719-15.2441 9.04297-14.9512Q9.21875-14.6777 9.55566-14.541Q9.89258-14.4043 10.3809-14.5215Q11.4746-14.7754 12.5977-14.7314Q13.7207-14.6875 14.7949-13.9844L14.209-12.5293Q13.9551-11.9043 14.0674-11.4404Q14.1797-10.9766 14.5801-10.5664L16.875-8.25195Q17.2363-7.88086 17.5781-7.82227Q17.9199-7.76367 18.3398-7.8418L19.4043-8.03711L20.0684-7.36328L20.0293-6.80664Q20-6.43555 20.1221-6.12305Q20.2441-5.81055 20.6055-5.44922L21.3672-4.70703Q21.7285-4.3457 22.1533-4.33105Q22.5781-4.31641 22.9297-4.66797L25.8398-7.58789Q26.1914-7.93945 26.1816-8.35449Q26.1719-8.76953 25.8105-9.13086L25.0391-9.89258Q24.6875-10.2539 24.3799-10.3857Q24.0723-10.5176 23.7109-10.4883L23.1348-10.4395L22.4902-11.0742L22.7344-12.1973Q22.832-12.6172 22.6953-12.9834Q22.5586-13.3496 22.1191-13.7891L19.9219-15.9766Q18.6719-17.2168 17.2607-17.8369Q15.8496-18.457 14.4189-18.4814Q12.9883-18.5059 11.665-17.959Q10.3418-17.4121 9.25781-16.3281ZM10.752-15.957Q11.6602-16.6211 12.7002-16.9043Q13.7402-17.1875 14.8047-17.085Q15.8691-16.9824 16.8701-16.5137Q17.8711-16.0449 18.7012-15.2051L21.1328-12.793Q21.3086-12.6172 21.3525-12.4512Q21.3965-12.2852 21.3379-12.0312L21.0156-10.5469L22.5195-9.0625L23.5059-9.12109Q23.6914-9.13086 23.7891-9.09668Q23.8867-9.0625 24.0332-8.91602L24.6094-8.33984L22.168-5.89844L21.5918-6.47461Q21.4453-6.62109 21.4062-6.71875Q21.3672-6.81641 21.377-7.01172L21.4453-7.98828L19.9512-9.47266L18.4277-9.21875Q18.1836-9.16992 18.042-9.2041Q17.9004-9.23828 17.7148-9.41406L15.7129-11.416Q15.5176-11.5918 15.4932-11.7529Q15.4688-11.9141 15.5859-12.1875L16.4648-14.2773Q15.293-15.3711 13.8281-15.791Q12.3633-16.2109 10.8398-15.7617Q10.7227-15.7324 10.6885-15.8057Q10.6543-15.8789 10.752-15.957Z"/>
  </g>
  <text style="stroke:none;fill:black;font-family:sans-serif;font-size:13;font-weight:bold;" transform="matrix(1 0 0 1 1289 1953)">Exporting</text>
  <text style="stroke:none;fill:black;font-family:sans-serif;font-size:13;" transform="matrix(1 0 0 1 1289 1971)">Symbols should be outlined when exporting to ensure the</text>
  <text style="stroke:none;fill:black;font-family:sans-serif;font-size:13;" transform="matrix(1 0 0 1 1289 1989)">design is preserved when submitting to Xcode.</text>
  <text id="template-version" style="stroke:none;fill:black;font-family:sans-serif;font-size:13;text-anchor:end;" transform="matrix(1 0 0 1 3036 1933)">Template v.2.0</text>
  <text style="stroke:none;fill:black;font-family:sans-serif;font-size:13;text-anchor:end;" transform="matrix(1 0 0 1 3036 1951)">Requires Xcode 13 or greater</text>
  <text id="descriptive-name" style="stroke:none;fill:black;font-family:sans-serif;font-size:13;text-anchor:end;" transform="matrix(1 0 0 1 3036 1969)">Generated from arrow.up.left.and.arrow.down.right</text>
  <text style="stroke:none;fill:black;font-family:sans-serif;font-size:13;text-anchor:end;" transform="matrix(1 0 0 1 3036 1987)">Typeset at 100 points</text>
  <text style="stroke:none;fill:black;font-family:sans-serif;font-size:13;" transform="matrix(1 0 0 1 263 726)">Small</text>
  <text style="stroke:none;fill:black;font-family:sans-serif;font-size:13;" transform="matrix(1 0 0 1 263 1156)">Medium</text>
  <text style="stroke:none;fill:black;font-family:sans-serif;font-size:13;" transform="matrix(1 0 0 1 263 1586)">Large</text>
 </g>
 <g id="Guides">
  <g id="H-reference" style="fill:#27AAE1;stroke:none;" transform="matrix(1 0 0 1 339 696)">
   <path d="M0.976562 0L3.66211 0L29.3457-67.1387L30.0293-67.1387L30.0293-70.459L28.125-70.459ZM11.6699-24.4629L46.9727-24.4629L46.2402-26.709L12.4512-26.709ZM55.127 0L57.7637 0L30.6152-70.459L29.4434-70.459L29.4434-67.1387Z"/>
  </g>
  <line id="Baseline-S" style="fill:none;stroke:#27AAE1;opacity:1;stroke-width:0.5;" x1="263" x2="3036" y1="696" y2="696"/>
  <line id="Capline-S" style="fill:none;stroke:#27AAE1;opacity:1;stroke-width:0.5;" x1="263" x2="3036" y1="625.541" y2="625.541"/>
  <g id="H-reference" style="fill:#27AAE1;stroke:none;" transform="matrix(1 0 0 1 339 1126)">
   <path d="M0.976562 0L3.66211 0L29.3457-67.1387L30.0293-67.1387L30.0293-70.459L28.125-70.459ZM11.6699-24.4629L46.9727-24.4629L46.2402-26.709L12.4512-26.709ZM55.127 0L57.7637 0L30.6152-70.459L29.4434-70.459L29.4434-67.1387Z"/>
  </g>
  <line id="Baseline-M" style="fill:none;stroke:#27AAE1;opacity:1;stroke-width:0.5;" x1="263" x2="3036" y1="1126" y2="1126"/>
  <line id="Capline-M" style="fill:none;stroke:#27AAE1;opacity:1;stroke-width:0.5;" x1="263" x2="3036" y1="1055.54" y2="1055.54"/>
  <g id="H-reference" style="fill:#27AAE1;stroke:none;" transform="matrix(1 0 0 1 339 1556)">
   <path d="M0.976562 0L3.66211 0L29.3457-67.1387L30.0293-67.1387L30.0293-70.459L28.125-70.459ZM11.6699-24.4629L46.9727-24.4629L46.2402-26.709L12.4512-26.709ZM55.127 0L57.7637 0L30.6152-70.459L29.4434-70.459L29.4434-67.1387Z"/>
  </g>
  <line id="Baseline-L" style="fill:none;stroke:#27AAE1;opacity:1;stroke-width:0.5;" x1="263" x2="3036" y1="1556" y2="1556"/>
  <line id="Capline-L" style="fill:none;stroke:#27AAE1;opacity:1;stroke-width:0.5;" x1="263" x2="3036" y1="1485.54" y2="1485.54"/>
  <line id="left-margin" style="fill:none;stroke:#00AEEF;stroke-width:0.5;opacity:1.0;" x1="1390.86" x2="1390.86" y1="1030.79" y2="1150.12"/>
  <line id="right-margin" style="fill:none;stroke:#00AEEF;stroke-width:0.5;opacity:1.0;" x1="1508.83" x2="1508.83" y1="1030.79" y2="1150.12"/>
 </g>
 <g id="Symbols">
  <g id="Black-L" transform="matrix(1 0 0 1 2854.54 1556)">
   <path d="M26.8555-39.1602Q31.4453-39.1602 34.5215-42.041Q37.5977-44.9219 37.5977-49.5117L37.5977-50.5371L36.084-63.0371L44.043-54.4922L57.8613-40.5762Q60.9863-37.4512 65.5762-37.4512Q70.5078-37.4512 73.584-40.6494Q76.6602-43.8477 76.6602-48.7793Q76.6602-50.9277 75.7812-52.7588Q74.9023-54.5898 73.3887-56.1035L59.4727-69.9707L50.8789-77.9297L63.7207-76.416L66.2598-76.416Q70.8496-76.416 73.7549-79.4922Q76.6602-82.5684 76.6602-87.1582Q76.6602-91.7969 73.7549-94.873Q70.8496-97.9492 66.2598-97.9492L31.9336-97.9492Q24.4141-97.9492 20.2393-93.7744Q16.0645-89.5996 16.0645-82.0312L16.0645-49.5117Q16.0645-44.9707 19.165-42.0654Q22.2656-39.1602 26.8555-39.1602ZM91.4551 27.6855L125.732 27.6855Q133.301 27.6855 137.476 23.5107Q141.65 19.3359 141.65 11.8164L141.65-20.7031Q141.65-25.293 138.55-28.1982Q135.449-31.1035 130.859-31.1035Q126.27-31.1035 123.169-28.1982Q120.068-25.293 120.068-20.7031L120.068-19.7266L121.631-7.22656L113.623-15.7715L99.8047-29.6875Q96.7285-32.8125 92.1387-32.8125Q87.1582-32.8125 84.082-29.6143Q81.0059-26.416 81.0059-21.4844Q81.0059-19.3359 81.8848-17.4805Q82.7637-15.625 84.2773-14.1113L98.2422-0.244141L106.787 7.66602L93.9453 6.15234L91.4551 6.15234Q86.8652 6.15234 83.96 9.22852Q81.0547 12.3047 81.0547 16.8945Q81.0547 21.5332 83.96 24.6094Q86.8652 27.6855 91.4551 27.6855Z"/>
  </g>
  <g id="Heavy-L" transform="matrix(1 0 0 1 2558.56 1556)">
   <path d="M25.4883-40.4785Q29.4922-40.4785 32.1533-43.0176Q34.8145-45.5566 34.8145-49.5605L34.8145-52.3926L33.3984-67.041L43.75-56.0547L59.0332-40.6738Q61.7676-37.9395 65.7715-37.9395Q70.0684-37.9395 72.7539-40.6982Q75.4395-43.457 75.4395-47.7539Q75.4395-49.6582 74.6826-51.2695Q73.9258-52.8809 72.6074-54.248L57.2266-69.5801L46.1914-79.9316L61.1328-78.5156L65.0879-78.5156Q69.0918-78.5156 71.6553-81.1768Q74.2188-83.8379 74.2188-87.8418Q74.2188-91.8945 71.6553-94.5801Q69.0918-97.2656 65.0879-97.2656L30.2246-97.2656Q23.5352-97.2656 19.7998-93.5303Q16.0645-89.7949 16.0645-83.0566L16.0645-49.5605Q16.0645-45.6055 18.75-43.042Q21.4355-40.4785 25.4883-40.4785ZM91.1621 26.9043L125.977 26.9043Q132.715 26.9043 136.45 23.1934Q140.186 19.4824 140.186 12.793L140.186-20.7031Q140.186-24.707 137.5-27.2705Q134.814-29.834 130.762-29.834Q126.758-29.834 124.072-27.2705Q121.387-24.707 121.387-20.7031L121.387-17.9199L122.852-3.32031L112.451-14.2578L97.168-29.6875Q94.4824-32.373 90.4785-32.373Q86.1816-32.373 83.4717-29.6143Q80.7617-26.8555 80.7617-22.5586Q80.7617-20.6543 81.5186-19.0186Q82.2754-17.3828 83.5938-16.0645L99.0234-0.683594L110.01 9.61914L95.0684 8.20312L91.1621 8.20312Q87.1582 8.20312 84.5947 10.8643Q82.0312 13.5254 82.0312 17.5293Q82.0312 21.582 84.5947 24.2432Q87.1582 26.9043 91.1621 26.9043Z"/>
  </g>
  <g id="Bold-L" transform="matrix(1 0 0 1 2262.66 1556)">
   <path d="M23.9258-41.9922Q27.2949-41.9922 29.5166-44.1406Q31.7383-46.2891 31.7383-49.6582L31.7383-54.4922L30.4199-71.4844L43.457-57.8125L60.4004-40.7715Q62.6465-38.4766 65.9668-38.4766Q69.5312-38.4766 71.8262-40.7715Q74.1211-43.0664 74.1211-46.6797Q74.1211-48.2422 73.4863-49.6338Q72.8516-51.0254 71.7285-52.1484L54.7363-69.1406L41.0156-82.1777L58.2031-80.8594L63.7695-80.8594Q67.1387-80.8594 69.3115-83.0566Q71.4844-85.2539 71.4844-88.623Q71.4844-92.041 69.3115-94.2627Q67.1387-96.4844 63.7695-96.4844L28.3203-96.4844Q22.5098-96.4844 19.2871-93.2617Q16.0645-90.0391 16.0645-84.2285L16.0645-49.6582Q16.0645-46.3379 18.3105-44.165Q20.5566-41.9922 23.9258-41.9922ZM90.8691 26.0742L126.27 26.0742Q132.129 26.0742 135.352 22.8516Q138.574 19.6289 138.574 13.8672L138.574-20.7031Q138.574-24.0723 136.328-26.2451Q134.082-28.418 130.713-28.418Q127.344-28.418 125.122-26.2451Q122.9-24.0723 122.9-20.7031L122.9-15.918L124.219 1.12305L111.133-12.5977L94.2383-29.6387Q91.9922-31.9336 88.6719-31.9336Q85.0586-31.9336 82.7881-29.6387Q80.5176-27.3438 80.5176-23.7305Q80.5176-22.168 81.1279-20.7764Q81.7383-19.3848 82.8613-18.2617L99.9023-1.2207L113.623 11.7676L96.3867 10.4492L90.8691 10.4492Q87.5 10.4492 85.3271 12.6709Q83.1543 14.8926 83.1543 18.2617Q83.1543 21.6309 85.3027 23.8525Q87.4512 26.0742 90.8691 26.0742Z"/>
  </g>
  <g id="Semibold-L" transform="matrix(1 0 0 1 1966.53 1556)">
   <path d="M22.8516-43.0176Q25.7324-43.0176 27.6611-44.8975Q29.5898-46.7773 29.5898-49.707L29.5898-55.9082L28.3203-74.5605L43.2617-59.0332L61.2793-40.8203Q63.2324-38.8672 66.0645-38.8672Q69.1895-38.8672 71.167-40.7959Q73.1445-42.7246 73.1445-45.8984Q73.1445-47.2656 72.6318-48.4863Q72.1191-49.707 71.1426-50.6836L52.9785-68.8477L37.4023-83.6914L56.2012-82.4219L62.8418-82.4219Q65.7715-82.4219 67.6758-84.3262Q69.5801-86.2305 69.5801-89.1602Q69.5801-92.0898 67.6758-93.9941Q65.7715-95.8984 62.8418-95.8984L26.9531-95.8984Q21.8262-95.8984 18.9453-93.042Q16.0645-90.1855 16.0645-85.0098L16.0645-49.707Q16.0645-46.8262 17.9932-44.9219Q19.9219-43.0176 22.8516-43.0176ZM90.625 25.4883L126.465 25.4883Q131.689 25.4883 134.546 22.6074Q137.402 19.7266 137.402 14.5996L137.402-20.7031Q137.402-23.584 135.474-25.4883Q133.545-27.3926 130.615-27.3926Q127.734-27.3926 125.806-25.5127Q123.877-23.6328 123.877-20.7031L123.877-14.5508L125.146 4.15039L110.205-11.4258L92.1875-29.6387Q90.2832-31.5918 87.4023-31.5918Q84.2773-31.5918 82.2998-29.6387Q80.3223-27.6855 80.3223-24.5605Q80.3223-23.1445 80.835-21.9238Q81.3477-20.7031 82.3242-19.7266L100.488-1.5625L116.064 13.2812L97.2656 12.0117L90.625 12.0117Q87.6953 12.0117 85.791 13.916Q83.8867 15.8203 83.8867 18.75Q83.8867 21.6797 85.7666 23.584Q87.6465 25.4883 90.625 25.4883Z"/>
  </g>
  <g id="Medium-L" transform="matrix(1 0 0 1 1670.24 1556)">
   <path d="M22.0703-43.7988Q24.6094-43.7988 26.2695-45.4834Q27.9297-47.168 27.9297-49.7559L27.9297-56.9824L26.7578-76.9043L43.0664-59.9609L61.9629-40.8691Q63.6719-39.1113 66.1621-39.1113Q68.8965-39.1113 70.6787-40.8203Q72.4609-42.5293 72.4609-45.3125Q72.4609-46.5332 71.9971-47.6074Q71.5332-48.6816 70.6543-49.5605L51.6602-68.6035L34.668-84.8633L54.6875-83.6426L62.1582-83.6426Q64.7461-83.6426 66.4551-85.3027Q68.1641-86.9629 68.1641-89.5508Q68.1641-92.1387 66.4551-93.8232Q64.7461-95.5078 62.1582-95.5078L25.9766-95.5078Q21.2891-95.5078 18.6768-92.8955Q16.0645-90.2832 16.0645-85.5957L16.0645-49.7559Q16.0645-47.2168 17.7734-45.5078Q19.4824-43.7988 22.0703-43.7988ZM90.4297 25.0488L126.611 25.0488Q131.348 25.0488 133.96 22.4365Q136.572 19.8242 136.572 15.1367L136.572-20.7031Q136.572-23.2422 134.863-24.9512Q133.154-26.6602 130.566-26.6602Q128.027-26.6602 126.343-24.9756Q124.658-23.291 124.658-20.7031L124.658-13.4766L125.879 6.44531L109.521-10.5469L90.625-29.5898Q88.9648-31.3477 86.4746-31.3477Q83.6914-31.3477 81.9336-29.6387Q80.1758-27.9297 80.1758-25.1465Q80.1758-23.9258 80.6396-22.8271Q81.1035-21.7285 81.9336-20.8984L100.977-1.85547L117.969 14.4043L97.9004 13.1836L90.4297 13.1836Q87.8906 13.1836 86.1816 14.8438Q84.4727 16.5039 84.4727 19.0918Q84.4727 21.6797 86.1572 23.3643Q87.8418 25.0488 90.4297 25.0488Z"/>
  </g>
  <g id="Regular-L" transform="matrix(1 0 0 1 1374.09 1556)">
   <path d="M20.9961-44.8242Q23.0957-44.8242 24.4629-46.2402Q25.8301-47.6562 25.8301-49.8047L25.8301-58.3984L24.707-79.9316L42.8711-61.1328L62.8906-40.918Q64.2578-39.502 66.3086-39.502Q68.5547-39.502 70.0439-40.8691Q71.5332-42.2363 71.5332-44.5312Q71.5332-45.5566 71.167-46.4844Q70.8008-47.4121 70.0684-48.1445L49.9512-68.3105L31.1035-86.377L52.6855-85.2539L61.2793-85.2539Q63.3789-85.2539 64.8438-86.5967Q66.3086-87.9395 66.3086-90.0879Q66.3086-92.2363 64.8682-93.6035Q63.4277-94.9707 61.2793-94.9707L24.6582-94.9707Q20.6055-94.9707 18.335-92.7002Q16.0645-90.4297 16.0645-86.377L16.0645-49.8047Q16.0645-47.7051 17.4561-46.2646Q18.8477-44.8242 20.9961-44.8242ZM90.2344 24.4629L126.807 24.4629Q130.908 24.4629 133.179 22.1924Q135.449 19.9219 135.449 15.8691L135.449-20.7031Q135.449-22.8027 134.058-24.2432Q132.666-25.6836 130.518-25.6836Q128.418-25.6836 127.051-24.2676Q125.684-22.8516 125.684-20.7031L125.684-12.1094L126.807 9.42383L108.594-9.375L88.623-29.5898Q87.2559-31.0059 85.2051-31.0059Q82.959-31.0059 81.4697-29.6387Q79.9805-28.2715 79.9805-25.9766Q79.9805-24.9512 80.3467-24.0234Q80.7129-23.0957 81.4453-22.3633L101.562-2.19727L120.41 15.8691L98.7793 14.7461L90.2344 14.7461Q88.0859 14.7461 86.6455 16.0889Q85.2051 17.4316 85.2051 19.5801Q85.2051 21.7285 86.6211 23.0957Q88.0371 24.4629 90.2344 24.4629Z"/>
  </g>
  <g id="Light-L" transform="matrix(1 0 0 1 1077.86 1556)">
   <path d="M19.7754-45.4102Q21.3379-45.4102 22.3633-46.4844Q23.3887-47.5586 23.3887-49.1699L23.3887-62.2559L22.5098-83.2031L42.7734-62.5488L63.7207-41.4062Q64.7461-40.332 66.3086-40.332Q67.9688-40.332 69.0674-41.3574Q70.166-42.3828 70.166-44.1406Q70.166-44.873 69.8975-45.5566Q69.6289-46.2402 69.0918-46.8262L47.998-67.9688L27.3438-88.0859L48.291-87.1094L61.377-87.1094Q62.9395-87.1094 64.0625-88.1348Q65.1855-89.1602 65.1855-90.7715Q65.1855-92.4316 64.1113-93.457Q63.0371-94.4824 61.377-94.4824L22.5586-94.4824Q19.5312-94.4824 17.7979-92.749Q16.0645-91.0156 16.0645-87.9883L16.0645-49.1699Q16.0645-47.6074 17.0898-46.5088Q18.1152-45.4102 19.7754-45.4102ZM89.1602 23.9746L127.979 23.9746Q131.055 23.9746 132.764 22.2412Q134.473 20.5078 134.473 17.4805L134.473-21.2891Q134.473-22.9004 133.472-23.999Q132.471-25.0977 130.811-25.0977Q129.199-25.0977 128.174-24.0234Q127.148-22.9492 127.148-21.2891L127.148-8.25195L128.027 12.6953L107.715-7.95898L86.8164-29.0527Q85.791-30.127 84.2773-30.127Q82.5684-30.127 81.4697-29.1016Q80.3711-28.0762 80.3711-26.3672Q80.3711-25.5859 80.6396-24.9023Q80.9082-24.2188 81.4941-23.6816L102.588-2.53906L123.242 17.5781L102.197 16.6504L89.1602 16.6504Q87.5488 16.6504 86.4746 17.6514Q85.4004 18.6523 85.3516 20.3125Q85.3516 21.9238 86.4258 22.9492Q87.5 23.9746 89.1602 23.9746Z"/>
  </g>
  <g id="Thin-L" transform="matrix(1 0 0 1 781.764 1556)">
   <path d="M18.1152-46.1426Q19.043-46.1426 19.6289-46.7529Q20.2148-47.3633 20.2148-48.3398L20.2148-67.3828L19.6289-87.5488L42.6758-64.3555L64.8438-42.0898Q65.4297-41.4551 66.2598-41.4551Q67.2363-41.4551 67.8223-42.041Q68.4082-42.627 68.4082-43.6035Q68.4082-43.9941 68.2617-44.3604Q68.1152-44.7266 67.7734-45.0684L45.3613-67.4805L22.3145-90.332L42.5293-89.5996L61.5234-89.5996Q62.4023-89.5996 63.0615-90.1855Q63.7207-90.7715 63.7207-91.6992Q63.7207-92.6758 63.1104-93.2373Q62.5-93.7988 61.5234-93.7988L19.7754-93.7988Q18.1152-93.7988 17.0898-92.7979Q16.0645-91.7969 16.0645-90.0879L16.0645-48.3398Q16.0645-47.4609 16.6016-46.8018Q17.1387-46.1426 18.1152-46.1426ZM87.793 23.3887L129.492 23.3887Q131.201 23.3887 132.227 22.3633Q133.252 21.3379 133.252 19.6777L133.252-22.1191Q133.252-22.998 132.715-23.6572Q132.178-24.3164 131.201-24.3164Q130.225-24.3164 129.663-23.6816Q129.102-23.0469 129.102-22.1191L129.102-3.125L129.639 17.041L106.592-6.05469L84.4727-28.418Q83.8867-28.9551 83.0566-28.9551Q82.0801-28.9551 81.4941-28.3936Q80.9082-27.832 80.9082-26.8555Q80.9082-26.4648 81.0547-26.0742Q81.2012-25.6836 81.4941-25.3906L103.906-2.97852L127.002 19.873L106.738 19.1406L87.793 19.1406Q86.9141 19.1406 86.2793 19.7021Q85.6445 20.2637 85.5957 21.2891Q85.5957 22.2168 86.2061 22.8027Q86.8164 23.3887 87.793 23.3887Z"/>
  </g>
  <g id="Ultralight-L" transform="matrix(1 0 0 1 485.395 1556)">
   <path d="M17.2852-46.5332Q17.8711-46.5332 18.2129-46.9238Q18.5547-47.3145 18.5547-47.9492L18.5547-69.9707L18.1641-89.7461L42.627-65.332L65.3809-42.4316Q65.7715-42.041 66.2598-42.041Q66.8457-42.041 67.1631-42.3828Q67.4805-42.7246 67.4805-43.3594Q67.4805-43.5547 67.3828-43.75Q67.2852-43.9453 67.1387-44.1406L44.043-67.2852L19.7754-91.4551L39.5508-90.8691L61.6211-90.8691Q62.1094-90.8691 62.5488-91.2109Q62.9883-91.5527 62.9883-92.1875Q62.9883-92.8223 62.6221-93.1396Q62.2559-93.457 61.6211-93.457L18.3594-93.457Q17.3828-93.457 16.7236-92.8223Q16.0645-92.1875 16.0645-91.2109L16.0645-47.9492Q16.0645-47.3633 16.3574-46.9482Q16.6504-46.5332 17.2852-46.5332ZM87.0605 23.0469L130.322 23.0469Q131.299 23.0469 131.934 22.3877Q132.568 21.7285 132.568 20.752L132.568-22.5098Q132.568-23.0957 132.3-23.5107Q132.031-23.9258 131.396-23.9258Q130.762-23.9258 130.42-23.5352Q130.078-23.1445 130.078-22.5098L130.078-0.488281L130.469 19.2871L106.006-5.12695L83.252-28.0273Q82.9102-28.3691 82.4219-28.3691Q81.8359-28.3691 81.4941-28.0518Q81.1523-27.7344 81.1523-27.0996Q81.1523-26.9043 81.25-26.6846Q81.3477-26.4648 81.543-26.2695L104.59-3.17383L128.955 21.0449L109.082 20.4102L87.0605 20.4102Q86.5234 20.4102 86.1328 20.752Q85.7422 21.0938 85.6934 21.7773Q85.6934 22.3633 86.0596 22.7051Q86.4258 23.0469 87.0605 23.0469Z"/>
  </g>
  <g id="Black-M" transform="matrix(1 0 0 1 2871.83 1126)">
   <path d="M21.582-37.3047Q25.4395-37.3047 28.0762-39.7217Q30.7129-42.1387 30.7129-46.0449L30.7129-46.7773L29.541-54.4922L34.375-49.3164L44.1406-39.4531Q46.7773-36.8164 50.6836-36.8164Q54.834-36.8164 57.4219-39.5508Q60.0098-42.2852 60.0098-46.4844Q60.0098-48.2422 59.2529-49.7803Q58.4961-51.3184 57.2266-52.5879L47.3633-62.4023L42.1387-67.1875L50.1465-66.0156L52.3926-66.0156Q56.25-66.0156 58.6914-68.6279Q61.1328-71.2402 61.1328-75.0977Q61.1328-79.0527 58.6914-81.6406Q56.25-84.2285 52.3926-84.2285L25.5371-84.2285Q19.3359-84.2285 15.8936-80.8105Q12.4512-77.3926 12.4512-71.1914L12.4512-46.0449Q12.4512-42.1875 15.0879-39.7461Q17.7246-37.3047 21.582-37.3047ZM70.752 14.0137L97.6562 14.0137Q103.809 14.0137 107.251 10.5713Q110.693 7.12891 110.693 0.927734L110.693-24.2188Q110.693-28.0762 108.057-30.4932Q105.42-32.9102 101.562-32.9102Q97.7051-32.9102 95.0684-30.4932Q92.4316-28.0762 92.4316-24.2188L92.4316-23.4375L93.6035-15.7715L88.7695-20.9473L79.0039-30.7617Q76.3672-33.3984 72.4609-33.3984Q68.3105-33.3984 65.7227-30.6885Q63.1348-27.9785 63.1348-23.7793Q63.1348-22.0215 63.8916-20.4834Q64.6484-18.9453 65.918-17.6758L75.7812-7.86133L81.0059-3.07617L72.998-4.24805L70.752-4.24805Q66.8945-4.24805 64.4531-1.61133Q62.0117 1.02539 62.0117 4.88281Q62.0117 8.78906 64.4531 11.4014Q66.8945 14.0137 70.752 14.0137Z"/>
  </g>
  <g id="Heavy-M" transform="matrix(1 0 0 1 2575.73 1126)">
   <path d="M20.5078-38.4766Q23.877-38.4766 26.1963-40.625Q28.5156-42.7734 28.5156-46.2402L28.5156-47.7539L27.3926-57.666L34.1309-50.5371L45.1172-39.4531Q47.4121-37.1094 50.8301-37.1094Q54.4922-37.1094 56.8115-39.502Q59.1309-41.8945 59.1309-45.5566Q59.1309-47.168 58.4717-48.5352Q57.8125-49.9023 56.6895-51.0254L45.5566-62.0605L38.3789-68.75L48.5352-67.627L51.2207-67.627Q54.6387-67.627 56.8115-69.9219Q58.9844-72.2168 58.9844-75.6348Q58.9844-79.1016 56.8115-81.3721Q54.6387-83.6426 51.2207-83.6426L24.3164-83.6426Q18.7012-83.6426 15.5762-80.542Q12.4512-77.4414 12.4512-71.8262L12.4512-46.2402Q12.4512-42.8223 14.7705-40.6494Q17.0898-38.4766 20.5078-38.4766ZM70.7031 13.3789L97.6562 13.3789Q103.223 13.3789 106.348 10.2539Q109.473 7.12891 109.473 1.51367L109.473-24.0723Q109.473-27.4902 107.153-29.6387Q104.834-31.7871 101.416-31.7871Q98.0469-31.7871 95.7275-29.6387Q93.4082-27.4902 93.4082-24.0723L93.4082-22.5098L94.5312-12.6465L87.793-19.7754L76.8066-30.8594Q74.5117-33.1543 71.0449-33.1543Q67.4316-33.1543 65.1123-30.7861Q62.793-28.418 62.793-24.7559Q62.793-23.1934 63.4521-21.8018Q64.1113-20.4102 65.2344-19.2871L76.3184-8.25195L83.5449-1.5625L73.3887-2.68555L70.7031-2.68555Q67.2852-2.68555 65.1123-0.366211Q62.9395 1.95312 62.9395 5.32227Q62.9395 8.78906 65.1123 11.084Q67.2852 13.3789 70.7031 13.3789Z"/>
  </g>
  <g id="Bold-M" transform="matrix(1 0 0 1 2279.7 1126)">
   <path d="M19.2871-39.8438Q22.168-39.8438 24.1211-41.6992Q26.0742-43.5547 26.0742-46.4844L26.0742-48.877L25-61.2793L33.8379-51.9043L46.2402-39.4043Q48.1445-37.4512 51.0254-37.4512Q54.1504-37.4512 56.1279-39.4531Q58.1055-41.4551 58.1055-44.5801Q58.1055-45.9473 57.5684-47.1436Q57.0312-48.3398 56.0547-49.3164L43.6035-61.7188L34.2285-70.5566L46.7773-69.4824L49.9023-69.4824Q52.832-69.4824 54.7119-71.4111Q56.5918-73.3398 56.5918-76.2207Q56.5918-79.1992 54.7119-81.1279Q52.832-83.0566 49.9023-83.0566L22.9492-83.0566Q17.9688-83.0566 15.21-80.2979Q12.4512-77.5391 12.4512-72.6074L12.4512-46.4844Q12.4512-43.6035 14.4043-41.7236Q16.3574-39.8438 19.2871-39.8438ZM70.6543 12.6953L97.6562 12.6953Q102.588 12.6953 105.347 9.93652Q108.105 7.17773 108.105 2.19727L108.105-23.9258Q108.105-26.8066 106.152-28.6865Q104.199-30.5664 101.27-30.5664Q98.3887-30.5664 96.4355-28.7109Q94.4824-26.8555 94.4824-23.9258L94.4824-21.4844L95.6055-9.13086L86.7188-18.5059L74.3652-30.957Q72.4121-32.9102 69.5312-32.9102Q66.4062-32.9102 64.4287-30.9326Q62.4512-28.9551 62.4512-25.8301Q62.4512-24.4629 62.9883-23.2666Q63.5254-22.0703 64.502-21.0938L76.9531-8.69141L86.377 0.146484L73.8281-0.927734L70.6543-0.927734Q67.7246-0.927734 65.8447 1.02539Q63.9648 2.97852 63.9648 5.85938Q63.9648 8.78906 65.8447 10.7422Q67.7246 12.6953 70.6543 12.6953Z"/>
  </g>
  <g id="Semibold-M" transform="matrix(1 0 0 1 1983.45 1126)">
   <path d="M18.4082-40.7227Q20.9961-40.7227 22.6807-42.3828Q24.3652-44.043 24.3652-46.6309L24.3652-49.6582L23.291-63.7207L33.5938-52.832L46.9727-39.4043Q48.6328-37.6953 51.1719-37.6953Q53.9062-37.6953 55.6641-39.4043Q57.4219-41.1133 57.4219-43.8477Q57.4219-45.0684 56.9336-46.167Q56.4453-47.2656 55.6152-48.0957L42.1875-61.4746L31.2988-71.7285L45.5078-70.7031L48.9746-70.7031Q51.5625-70.7031 53.2227-72.3877Q54.8828-74.0723 54.8828-76.6113Q54.8828-79.1992 53.2471-80.9082Q51.6113-82.6172 48.9746-82.6172L21.9727-82.6172Q17.4805-82.6172 14.9658-80.1025Q12.4512-77.5879 12.4512-73.0957L12.4512-46.6309Q12.4512-44.0918 14.1602-42.4072Q15.8691-40.7227 18.4082-40.7227ZM70.6055 12.1582L97.6074 12.1582Q102.148 12.1582 104.663 9.66797Q107.178 7.17773 107.178 2.63672L107.178-23.8281Q107.178-26.3672 105.444-28.0273Q103.711-29.6875 101.172-29.6875Q98.6328-29.6875 96.9238-28.0273Q95.2148-26.3672 95.2148-23.8281L95.2148-20.752L96.2891-6.68945L85.9863-17.5781L72.6562-31.0059Q70.9961-32.7148 68.4082-32.7148Q65.7227-32.7148 63.9404-31.0059Q62.1582-29.2969 62.1582-26.5625Q62.1582-25.3418 62.6465-24.2676Q63.1348-23.1934 63.9648-22.3145L77.3926-8.98438L88.2812 1.31836L74.1211 0.292969L70.6055 0.292969Q68.0176 0.292969 66.3574 1.97754Q64.6973 3.66211 64.6973 6.20117Q64.6973 8.78906 66.3574 10.4736Q68.0176 12.1582 70.6055 12.1582Z"/>
  </g>
  <g id="Medium-M" transform="matrix(1 0 0 1 1687.11 1126)">
   <path d="M17.7734-41.4062Q20.0684-41.4062 21.5576-42.9199Q23.0469-44.4336 23.0469-46.7285L23.0469-50.2441L22.0703-65.5762L33.4473-53.5645L47.5586-39.3555Q49.0234-37.8418 51.2207-37.8418Q53.7109-37.8418 55.2979-39.3555Q56.8848-40.8691 56.8848-43.3105Q56.8848-44.4336 56.4697-45.4346Q56.0547-46.4355 55.3223-47.168L41.1621-61.2793L29.1016-72.6562L44.5801-71.6797L48.291-71.6797Q50.5859-71.6797 52.124-73.1689Q53.6621-74.6582 53.6621-76.9531Q53.6621-79.248 52.1484-80.7617Q50.6348-82.2754 48.291-82.2754L21.2402-82.2754Q17.0898-82.2754 14.7705-79.9561Q12.4512-77.6367 12.4512-73.4863L12.4512-46.7285Q12.4512-44.4824 13.9648-42.9443Q15.4785-41.4062 17.7734-41.4062ZM70.5566 11.8164L97.6074 11.8164Q101.807 11.8164 104.126 9.49707Q106.445 7.17773 106.445 3.02734L106.445-23.7305Q106.445-25.9766 104.907-27.4902Q103.369-29.0039 101.074-29.0039Q98.8281-29.0039 97.3145-27.5146Q95.8008-26.0254 95.8008-23.7305L95.8008-20.2148L96.8262-4.88281L85.4004-16.8945L71.3379-31.1035Q69.873-32.6172 67.627-32.6172Q65.1855-32.6172 63.5742-31.1035Q61.9629-29.5898 61.9629-27.1484Q61.9629-26.0254 62.3779-25.0244Q62.793-24.0234 63.5742-23.291L77.6855-9.17969L89.7949 2.19727L74.3164 1.2207L70.5566 1.2207Q68.2617 1.2207 66.748 2.70996Q65.2344 4.19922 65.2344 6.49414Q65.2344 8.78906 66.748 10.3027Q68.2617 11.8164 70.5566 11.8164Z"/>
  </g>
  <g id="Regular-M" transform="matrix(1 0 0 1 1390.86 1126)">
   <path d="M16.9434-42.334Q18.8965-42.334 20.1416-43.6279Q21.3867-44.9219 21.3867-46.875L21.3867-50.9766L20.4102-68.0176L33.252-54.4922L48.291-39.3555Q49.5117-38.0859 51.3672-38.0859Q53.4668-38.0859 54.834-39.3311Q56.2012-40.5762 56.2012-42.627Q56.2012-43.6035 55.8594-44.4824Q55.5176-45.3613 54.8828-45.9961L39.7949-61.0352L26.2695-73.877L43.3594-72.9004L47.4121-72.9004Q49.3652-72.9004 50.6836-74.1455Q52.002-75.3906 52.002-77.3438Q52.002-79.2969 50.708-80.5664Q49.4141-81.8359 47.4121-81.8359L20.3125-81.8359Q16.6016-81.8359 14.5264-79.7607Q12.4512-77.6855 12.4512-73.9746L12.4512-46.875Q12.4512-44.9707 13.7207-43.6523Q14.9902-42.334 16.9434-42.334ZM70.5078 11.3281L97.6074 11.3281Q101.367 11.3281 103.442 9.25293Q105.518 7.17773 105.518 3.4668L105.518-23.6328Q105.518-25.5371 104.224-26.8555Q102.93-28.1738 100.977-28.1738Q99.0723-28.1738 97.8027-26.8799Q96.5332-25.5859 96.5332-23.6328L96.5332-19.5312L97.5586-2.49023L84.668-16.0156L69.6777-31.1523Q68.457-32.4219 66.5527-32.4219Q64.502-32.4219 63.1104-31.1768Q61.7188-29.9316 61.7188-27.8809Q61.7188-26.9043 62.0605-26.0254Q62.4023-25.1465 63.0859-24.5117L78.125-9.47266L91.6992 3.36914L74.6094 2.39258L70.5078 2.39258Q68.5547 2.39258 67.2363 3.6377Q65.918 4.88281 65.918 6.83594Q65.918 8.78906 67.2363 10.0586Q68.5547 11.3281 70.5078 11.3281Z"/>
  </g>
  <g id="Light-M" transform="matrix(1 0 0 1 1094.56 1126)">
   <path d="M15.8203-42.8711Q17.334-42.8711 18.2861-43.8477Q19.2383-44.8242 19.2383-46.3379L19.2383-54.4434L18.457-70.9473L33.2031-55.7617L49.0234-39.7949Q49.9512-38.8184 51.3672-38.8184Q52.9297-38.8184 53.9551-39.7705Q54.9805-40.7227 54.9805-42.2852Q54.9805-43.0176 54.7363-43.6768Q54.4922-44.3359 54.0039-44.8242L38.0371-60.7422L22.8516-75.3906L39.4043-74.6094L47.5098-74.6094Q48.9746-74.6094 50-75.5371Q51.0254-76.4648 51.0254-77.9785Q51.0254-79.4434 50.0488-80.4199Q49.0723-81.3965 47.5098-81.3965L18.4082-81.3965Q15.625-81.3965 14.0381-79.8096Q12.4512-78.2227 12.4512-75.3906L12.4512-46.3379Q12.4512-44.873 13.4033-43.8721Q14.3555-42.8711 15.8203-42.8711ZM69.5801 10.8887L98.6328 10.8887Q101.465 10.8887 103.076 9.30176Q104.688 7.71484 104.688 4.93164L104.688-24.1699Q104.688-25.6348 103.711-26.6357Q102.734-27.6367 101.27-27.6367Q99.8047-27.6367 98.8281-26.6602Q97.8516-25.6836 97.8516-24.1699L97.8516-16.0645L98.6816 0.439453L83.8867-14.7461L68.0664-30.6641Q67.1387-31.6406 65.7227-31.6406Q64.1602-31.6406 63.1104-30.7129Q62.0605-29.7852 62.0605-28.2227Q62.0605-27.4902 62.3291-26.8311Q62.5977-26.1719 63.1348-25.6836L79.0527-9.76562L94.2383 4.93164L77.6855 4.10156L69.5801 4.10156Q68.1152 4.10156 67.0898 5.05371Q66.0645 6.00586 66.0645 7.4707Q66.0645 8.98438 67.0654 9.93652Q68.0664 10.8887 69.5801 10.8887Z"/>
  </g>
  <g id="Thin-M" transform="matrix(1 0 0 1 798.414 1126)">
   <path d="M14.3555-43.5059Q15.2832-43.5059 15.8203-44.0918Q16.3574-44.6777 16.3574-45.5566L16.3574-59.0332L15.8203-74.8535L33.1055-57.4219L50-40.4297Q50.5859-39.8438 51.3184-39.8438Q52.2949-39.8438 52.832-40.3809Q53.3691-40.918 53.3691-41.7969Q53.3691-42.2363 53.2227-42.5781Q53.0762-42.9199 52.832-43.2129L35.6934-60.3516L18.3594-77.4414L34.2285-76.8555L47.6562-76.8555Q48.4863-76.8555 49.0967-77.3926Q49.707-77.9297 49.707-78.8086Q49.707-79.6875 49.1455-80.2246Q48.584-80.7617 47.6562-80.7617L15.918-80.7617Q14.3555-80.7617 13.4033-79.834Q12.4512-78.9062 12.4512-77.2949L12.4512-45.5566Q12.4512-44.7266 12.9639-44.1162Q13.4766-43.5059 14.3555-43.5059ZM68.3105 10.3027L100.049 10.3027Q101.66 10.3027 102.612 9.375Q103.564 8.44727 103.564 6.83594L103.564-24.9023Q103.564-25.7324 103.027-26.3428Q102.49-26.9531 101.611-26.9531Q100.732-26.9531 100.171-26.3672Q99.6094-25.7812 99.6094-24.9023L99.6094-11.4258L100.146 4.3457L82.8613-13.0859L65.9668-30.0781Q65.4297-30.6152 64.5996-30.6152Q63.7207-30.6152 63.1348-30.0781Q62.5488-29.541 62.5488-28.6621Q62.5488-28.2227 62.6953-27.8564Q62.8418-27.4902 63.1348-27.2461L80.2246-10.1562L97.6074 6.93359L81.7871 6.34766L68.3105 6.34766Q67.4805 6.34766 66.8945 6.90918Q66.3086 7.4707 66.2598 8.34961Q66.2598 9.22852 66.8457 9.76562Q67.4316 10.3027 68.3105 10.3027Z"/>
  </g>
  <g id="Ultralight-M" transform="matrix(1 0 0 1 501.996 1126)">
   <path d="M13.623-43.8965Q14.209-43.8965 14.5508-44.2383Q14.8926-44.5801 14.8926-45.2148L14.8926-61.377L14.502-76.8066L33.0566-58.252L50.5371-40.7227Q50.8789-40.332 51.3184-40.332Q51.9043-40.332 52.2461-40.6738Q52.5879-41.0156 52.5879-41.6016Q52.5879-41.8457 52.4902-42.041Q52.3926-42.2363 52.2461-42.4316L34.5215-60.1074L16.0645-78.4668L31.543-77.9785L47.7539-77.9785Q48.2422-77.9785 48.6572-78.3203Q49.0723-78.6621 49.0723-79.248Q49.0723-79.7852 48.7061-80.127Q48.3398-80.4688 47.7539-80.4688L14.6484-80.4688Q13.6719-80.4688 13.0615-79.8828Q12.4512-79.2969 12.4512-78.2715L12.4512-45.2148Q12.4512-44.6289 12.7441-44.2627Q13.0371-43.8965 13.623-43.8965ZM67.6758 10.0098L100.732 10.0098Q101.709 10.0098 102.344 9.39941Q102.979 8.78906 102.979 7.8125L102.979-25.2441Q102.979-25.8301 102.661-26.1963Q102.344-26.5625 101.807-26.5625Q101.221-26.5625 100.879-26.2207Q100.537-25.8789 100.537-25.2441L100.537-9.08203L100.879 6.34766L82.373-12.207L64.8926-29.7363Q64.5508-30.127 64.0625-30.127Q63.5254-30.127 63.1592-29.7852Q62.793-29.4434 62.793-28.8574Q62.793-28.6133 62.8906-28.3936Q62.9883-28.1738 63.1836-28.0762L80.8594-10.3516L99.3164 8.00781L83.8867 7.51953L67.6758 7.51953Q67.1875 7.51953 66.7969 7.86133Q66.4062 8.20312 66.3574 8.78906Q66.3574 9.375 66.7236 9.69238Q67.0898 10.0098 67.6758 10.0098Z"/>
  </g>
  <g id="Black-S" transform="matrix(1 0 0 1 2884.99 696)">
   <path d="M17.1875-36.5234Q20.3613-36.5234 22.4854-38.501Q24.6094-40.4785 24.6094-43.6035L24.6094-44.1895L23.6816-49.5117L27.002-45.9473L34.3262-38.5742Q36.4746-36.4258 39.6484-36.4258Q43.0664-36.4258 45.1416-38.6475Q47.2168-40.8691 47.2168-44.2871Q47.2168-45.7031 46.6064-46.9482Q45.9961-48.1934 44.9707-49.2188L37.5488-56.5918L33.9844-59.8633L39.5508-58.9355L41.4062-58.9355Q44.5801-58.9355 46.5332-61.084Q48.4863-63.2324 48.4863-66.3574Q48.4863-69.5312 46.5332-71.6553Q44.5801-73.7793 41.4062-73.7793L20.2637-73.7793Q15.2832-73.7793 12.5244-71.0205Q9.76562-68.2617 9.76562-63.2812L9.76562-43.6035Q9.76562-40.4785 11.9141-38.501Q14.0625-36.5234 17.1875-36.5234ZM55.4199 3.51562L76.5625 3.51562Q81.543 3.51562 84.3018 0.756836Q87.0605-2.00195 87.0605-6.98242L87.0605-26.6602Q87.0605-29.834 84.9365-31.7871Q82.8125-33.7402 79.6387-33.7402Q76.5137-33.7402 74.3652-31.7871Q72.2168-29.834 72.2168-26.6602L72.2168-26.0742L73.1445-20.752L69.8242-24.3164L62.5-31.6895Q60.3516-33.8379 57.1777-33.8379Q53.7598-33.8379 51.6846-31.6162Q49.6094-29.3945 49.6094-25.9766Q49.6094-24.5605 50.2197-23.3154Q50.8301-22.0703 51.8555-21.0449L59.2773-13.6719L62.8418-10.4004L57.2754-11.3281L55.4199-11.3281Q52.2949-11.3281 50.3174-9.2041Q48.3398-7.08008 48.3398-3.90625Q48.3398-0.732422 50.3174 1.3916Q52.2949 3.51562 55.4199 3.51562Z"/>
  </g>
  <g id="Heavy-S" transform="matrix(1 0 0 1 2588.74 696)">
   <path d="M16.4062-37.5Q19.2383-37.5 21.1182-39.2822Q22.998-41.0645 22.998-43.8477L22.998-44.5801L22.0703-51.8555L26.8066-46.8262L35.0586-38.4766Q36.9629-36.5723 39.7949-36.5723Q42.8711-36.5723 44.7266-38.5498Q46.582-40.5273 46.582-43.5547Q46.582-44.873 46.0449-45.9961Q45.5078-47.1191 44.5801-48.0469L36.2305-56.3477L31.2012-61.0352L38.6719-60.1074L40.3809-60.1074Q43.2129-60.1074 44.9951-62.0117Q46.7773-63.916 46.7773-66.748Q46.7773-69.5801 44.9951-71.46Q43.2129-73.3398 40.3809-73.3398L19.4336-73.3398Q14.8438-73.3398 12.3047-70.8008Q9.76562-68.2617 9.76562-63.6719L9.76562-43.8477Q9.76562-41.0645 11.6699-39.2822Q13.5742-37.5 16.4062-37.5ZM55.4688 3.02734L76.416 3.02734Q81.0059 3.02734 83.5693 0.488281Q86.1328-2.05078 86.1328-6.64062L86.1328-26.4648Q86.1328-29.2969 84.2285-31.0791Q82.3242-32.8613 79.4922-32.8613Q76.709-32.8613 74.7803-31.0791Q72.8516-29.2969 72.8516-26.4648L72.8516-25.7324L73.7793-18.457L69.0918-23.4863L60.8398-31.8359Q58.8867-33.7402 56.1035-33.7402Q53.0273-33.7402 51.1475-31.7627Q49.2676-29.7852 49.2676-26.7578Q49.2676-25.4883 49.8047-24.3408Q50.3418-23.1934 51.2695-22.2656L59.6191-13.9648L64.6973-9.27734L57.2266-10.2051L55.4688-10.2051Q52.6855-10.2051 50.9033-8.3252Q49.1211-6.44531 49.1211-3.61328Q49.1211-0.732422 50.9033 1.14746Q52.6855 3.02734 55.4688 3.02734Z"/>
  </g>
  <g id="Bold-S" transform="matrix(1 0 0 1 2292.57 696)">
   <path d="M15.5273-38.5742Q17.9688-38.5742 19.6045-40.1367Q21.2402-41.6992 21.2402-44.1406L21.2402-45.0684L20.3125-54.4922L26.5625-47.8516L35.8887-38.4277Q37.5488-36.7676 39.9902-36.7676Q42.627-36.7676 44.2871-38.4521Q45.9473-40.1367 45.9473-42.7734Q45.9473-43.8965 45.4834-44.9219Q45.0195-45.9473 44.1895-46.7285L34.8145-56.1035L28.125-62.3535L37.7441-61.4258L39.2578-61.4258Q41.748-61.4258 43.3105-63.0615Q44.873-64.6973 44.873-67.1387Q44.873-69.6289 43.3105-71.2646Q41.748-72.9004 39.2578-72.9004L18.5547-72.9004Q14.4043-72.9004 12.085-70.5811Q9.76562-68.2617 9.76562-64.1113L9.76562-44.1406Q9.76562-41.6992 11.4258-40.1367Q13.0859-38.5742 15.5273-38.5742ZM55.5664 2.49023L76.2695 2.49023Q80.4688 2.49023 82.7637 0.170898Q85.0586-2.14844 85.0586-6.29883L85.0586-26.2695Q85.0586-28.7109 83.4229-30.2734Q81.7871-31.8359 79.3457-31.8359Q76.9043-31.8359 75.2686-30.2979Q73.6328-28.7598 73.6328-26.2695L73.6328-25.3418L74.5605-15.918L68.3105-22.5586L58.9355-31.9824Q57.3242-33.6426 54.8828-33.6426Q52.2461-33.6426 50.5859-31.958Q48.9258-30.2734 48.9258-27.6367Q48.9258-26.5137 49.3896-25.4883Q49.8535-24.4629 50.6348-23.6816L60.0586-14.3066L66.748-8.05664L57.1289-8.98438L55.5664-8.98438Q53.125-8.98438 51.5625-7.34863Q50-5.71289 49.9512-3.27148Q49.9512-0.78125 51.5381 0.854492Q53.125 2.49023 55.5664 2.49023Z"/>
  </g>
  <g id="Semibold-S" transform="matrix(1 0 0 1 1996.22 696)">
   <path d="M14.8926-39.3066Q17.0898-39.3066 18.5303-40.6982Q19.9707-42.0898 19.9707-44.2871L19.9707-45.3613L19.0918-56.2988L26.416-48.5352L36.4746-38.3301Q37.8906-36.8652 40.0879-36.8652Q42.4316-36.8652 43.9453-38.3545Q45.459-39.8438 45.459-42.1875Q45.459-43.2617 45.0439-44.1895Q44.6289-45.1172 43.8965-45.8008L33.7891-55.9082L25.9766-63.2324L37.0605-62.3535L38.4766-62.3535Q40.6738-62.3535 42.1143-63.7939Q43.5547-65.2344 43.5547-67.4316Q43.5547-69.6289 42.1143-71.0938Q40.6738-72.5586 38.4766-72.5586L17.9199-72.5586Q14.0625-72.5586 11.9141-70.4102Q9.76562-68.2617 9.76562-64.4043L9.76562-44.2871Q9.76562-42.1387 11.2305-40.7227Q12.6953-39.3066 14.8926-39.3066ZM55.6152 2.09961L76.1719 2.09961Q80.0293 2.09961 82.1777-0.0244141Q84.3262-2.14844 84.3262-6.05469L84.3262-26.123Q84.3262-28.3203 82.8613-29.7363Q81.3965-31.1523 79.1992-31.1523Q77.0508-31.1523 75.5859-29.7363Q74.1211-28.3203 74.1211-26.123L74.1211-25.0977L75.0488-14.1113L67.7246-21.9238L57.6172-32.0801Q56.2012-33.5938 54.0039-33.5938Q51.6602-33.5938 50.1465-32.1045Q48.6328-30.6152 48.6328-28.2227Q48.6328-27.1973 49.0479-26.2695Q49.4629-25.3418 50.1953-24.6094L60.3027-14.502L68.1152-7.22656L57.0801-8.10547L55.6152-8.10547Q53.418-8.10547 52.002-6.66504Q50.5859-5.22461 50.5371-3.02734Q50.5371-0.78125 51.9775 0.65918Q53.418 2.09961 55.6152 2.09961Z"/>
  </g>
  <g id="Medium-S" transform="matrix(1 0 0 1 1699.78 696)">
   <path d="M14.4043-39.8438Q16.4551-39.8438 17.749-41.1377Q19.043-42.4316 19.043-44.4336L19.043-45.6055L18.1641-57.666L26.2695-49.0234L36.8652-38.2812Q38.1836-36.9629 40.1855-36.9629Q42.2852-36.9629 43.7012-38.3057Q45.1172-39.6484 45.1172-41.748Q45.1172-42.7246 44.7266-43.6035Q44.3359-44.4824 43.7012-45.1172L33.0078-55.8105L24.3164-63.916L36.5234-63.0371L37.8906-63.0371Q39.8926-63.0371 41.2354-64.3311Q42.5781-65.625 42.5781-67.627Q42.5781-69.6289 41.2354-70.9717Q39.8926-72.3145 37.8906-72.3145L17.4805-72.3145Q13.8184-72.3145 11.792-70.2881Q9.76562-68.2617 9.76562-64.5996L9.76562-44.4336Q9.76562-42.4805 11.084-41.1621Q12.4023-39.8438 14.4043-39.8438ZM55.6641 1.85547L76.0742 1.85547Q79.7363 1.85547 81.7627-0.170898Q83.7891-2.19727 83.7891-5.85938L83.7891-26.0254Q83.7891-27.9785 82.4707-29.2969Q81.1523-30.6152 79.1016-30.6152Q77.1484-30.6152 75.8301-29.3213Q74.5117-28.0273 74.5117-26.0254L74.5117-24.8535L75.4395-12.793L67.2852-21.4355L56.6406-32.1777Q55.3223-33.4961 53.3691-33.4961Q51.2207-33.4961 49.8291-32.1777Q48.4375-30.8594 48.4375-28.7109Q48.4375-27.7344 48.8037-26.8555Q49.1699-25.9766 49.8535-25.3418L60.498-14.6973L69.1895-6.54297L57.0312-7.42188L55.6641-7.42188Q53.6621-7.42188 52.3438-6.12793Q51.0254-4.83398 50.9766-2.83203Q50.9766-0.830078 52.3193 0.512695Q53.6621 1.85547 55.6641 1.85547Z"/>
  </g>
  <g id="Regular-S" transform="matrix(1 0 0 1 1403.43 696)">
   <path d="M13.8184-40.5762Q15.5762-40.5762 16.6992-41.7236Q17.8223-42.8711 17.8223-44.6289L17.8223-45.8984L16.9434-59.4727L26.123-49.707L37.4512-38.2324Q38.5742-37.0605 40.2832-37.0605Q42.1387-37.0605 43.3838-38.208Q44.6289-39.3555 44.6289-41.2109Q44.6289-42.0898 44.3115-42.8711Q43.9941-43.6523 43.4082-44.2383L32.0312-55.6152L22.2168-64.7949L35.8887-63.916L37.1094-63.916Q38.8672-63.916 40.0635-65.0391Q41.2598-66.1621 41.2598-67.9199Q41.2598-69.6777 40.0635-70.8252Q38.8672-71.9727 37.1094-71.9727L16.8457-71.9727Q13.4766-71.9727 11.6211-70.1172Q9.76562-68.2617 9.76562-64.8926L9.76562-44.6289Q9.76562-42.9199 10.9131-41.748Q12.0605-40.5762 13.8184-40.5762ZM55.7129 1.46484L75.9766 1.46484Q79.3457 1.46484 81.2012-0.390625Q83.0566-2.24609 83.0566-5.61523L83.0566-25.8789Q83.0566-27.5879 81.9092-28.7598Q80.7617-29.9316 79.0039-29.9316Q77.2949-29.9316 76.1475-28.7842Q75-27.6367 75-25.8789L75-24.6094L75.9277-11.0352L66.748-20.8008L55.3711-32.2754Q54.248-33.4473 52.5391-33.4473Q50.6836-33.4473 49.4385-32.2998Q48.1934-31.1523 48.1934-29.2969Q48.1934-28.418 48.5107-27.6367Q48.8281-26.8555 49.4141-26.2695L60.791-14.8926L70.6055-5.71289L56.9824-6.5918L55.7129-6.5918Q53.9551-6.5918 52.7832-5.46875Q51.6113-4.3457 51.5625-2.58789Q51.5625-0.830078 52.7588 0.317383Q53.9551 1.46484 55.7129 1.46484Z"/>
  </g>
  <g id="Light-S" transform="matrix(1 0 0 1 1107.09 696)">
   <path d="M12.8418-41.0156Q14.209-41.0156 15.0635-41.8945Q15.918-42.7734 15.918-44.1406L15.918-48.9746L15.2344-62.0605L26.0742-50.8301L38.1348-38.623Q38.9648-37.7441 40.2832-37.7441Q41.6992-37.7441 42.627-38.5986Q43.5547-39.4531 43.5547-40.918Q43.5547-41.5527 43.3105-42.1387Q43.0664-42.7246 42.627-43.1641L30.4688-55.3223L19.2383-66.1621L32.4219-65.4297L37.207-65.4297Q38.5254-65.4297 39.4531-66.2842Q40.3809-67.1387 40.3809-68.457Q40.3809-69.8242 39.4531-70.7031Q38.5254-71.582 37.207-71.582L15.1855-71.582Q12.5977-71.582 11.1816-70.1416Q9.76562-68.7012 9.76562-66.1621L9.76562-44.1406Q9.76562-42.8223 10.6201-41.9189Q11.4746-41.0156 12.8418-41.0156ZM54.8828 1.07422L76.9043 1.07422Q79.4434 1.07422 80.8838-0.341797Q82.3242-1.75781 82.3242-4.3457L82.3242-26.3672Q82.3242-27.6855 81.4697-28.5645Q80.6152-29.4434 79.248-29.4434Q77.9297-29.4434 77.0508-28.5889Q76.1719-27.7344 76.1719-26.3672L76.1719-21.5332L76.9043-8.39844L66.0645-19.6777L53.9551-31.8359Q53.0762-32.7637 51.8066-32.7637Q50.3906-32.7637 49.4629-31.8848Q48.5352-31.0059 48.5352-29.5898Q48.5352-28.9551 48.7549-28.3447Q48.9746-27.7344 49.4629-27.2949L61.5723-15.1367L72.8516-4.3457L59.7168-5.07812L54.8828-5.07812Q53.5645-5.07812 52.6611-4.22363Q51.7578-3.36914 51.709-2.00195Q51.709-0.683594 52.6123 0.195312Q53.5156 1.07422 54.8828 1.07422Z"/>
  </g>
  <g id="Thin-S" transform="matrix(1 0 0 1 810.866 696)">
   <path d="M11.5723-41.6504Q12.3535-41.6504 12.8662-42.1631Q13.3789-42.6758 13.3789-43.457L13.3789-52.9785L12.9395-65.5273L25.9766-52.2949L39.0137-39.1602Q39.502-38.623 40.2344-38.623Q41.0645-38.623 41.6016-39.1357Q42.1387-39.6484 42.1387-40.5273Q42.1387-40.8691 42.0166-41.2109Q41.8945-41.5527 41.6016-41.7969L28.4668-54.9805L15.2344-67.9199L27.7832-67.3828L37.3047-67.3828Q38.0859-67.3828 38.6475-67.8955Q39.209-68.4082 39.209-69.2383Q39.209-70.0195 38.6719-70.5322Q38.1348-71.0449 37.3047-71.0449L12.9883-71.0449Q11.4746-71.0449 10.6201-70.1904Q9.76562-69.3359 9.76562-67.8223L9.76562-43.457Q9.76562-42.7246 10.2539-42.1875Q10.7422-41.6504 11.5723-41.6504ZM53.7598 0.537109L78.125 0.537109Q79.6387 0.537109 80.4932-0.317383Q81.3477-1.17188 81.3477-2.63672L81.3477-27.002Q81.3477-27.7832 80.8594-28.3203Q80.3711-28.8574 79.541-28.8574Q78.7598-28.8574 78.2471-28.3447Q77.7344-27.832 77.7344-27.002L77.7344-17.4805L78.1738-4.93164L65.1367-18.1641L52.0996-31.2988Q51.5625-31.8359 50.8301-31.8359Q50-31.8359 49.4629-31.3477Q48.9258-30.8594 48.9258-29.9805Q48.9258-29.5898 49.0723-29.248Q49.2188-28.9062 49.4629-28.6621L62.6465-15.4785L75.8301-2.53906L63.3301-3.07617L53.7598-3.07617Q53.0273-3.07617 52.4658-2.56348Q51.9043-2.05078 51.8555-1.26953Q51.8555-0.439453 52.417 0.0488281Q52.9785 0.537109 53.7598 0.537109Z"/>
  </g>
  <g id="Ultralight-S" transform="matrix(1 0 0 1 514.423 696)">
   <path d="M10.8887-41.9434Q11.4258-41.9434 11.7432-42.2607Q12.0605-42.5781 12.0605-43.1152L12.0605-55.0781L11.7676-67.2852L25.9277-53.0762L39.4531-39.4531Q39.7949-39.1113 40.2344-39.1113Q40.7715-39.1113 41.0889-39.4043Q41.4062-39.6973 41.4062-40.2832Q41.4062-40.4785 41.333-40.6982Q41.2598-40.918 41.1133-41.0645L27.3926-54.7852L13.2324-68.8477L25.4395-68.4082L37.4023-68.4082Q37.8906-68.4082 38.2568-68.75Q38.623-69.0918 38.623-69.5801Q38.623-70.1172 38.2568-70.4346Q37.8906-70.752 37.4023-70.752L11.8652-70.752Q10.8887-70.752 10.3271-70.1904Q9.76562-69.6289 9.76562-68.7012L9.76562-43.1152Q9.76562-42.627 10.0586-42.2852Q10.3516-41.9434 10.8887-41.9434ZM53.2227 0.292969L78.7598 0.292969Q79.6875 0.292969 80.249-0.268555Q80.8105-0.830078 80.8105-1.75781L80.8105-27.3438Q80.8105-27.832 80.542-28.1738Q80.2734-28.5156 79.6875-28.5156Q79.1504-28.5156 78.8574-28.1982Q78.5645-27.8809 78.5645-27.3438L78.5645-15.3809L78.8574-3.17383L64.6484-17.3828L51.1719-31.0059Q50.7812-31.3477 50.3418-31.3477Q49.8047-31.3477 49.4873-31.0547Q49.1699-30.7617 49.1699-30.1758Q49.1699-29.9805 49.2432-29.7607Q49.3164-29.541 49.5117-29.3457L63.1836-15.6738L77.3926-1.61133L65.1367-2.05078L53.2227-2.05078Q52.7344-2.05078 52.3682-1.7334Q52.002-1.41602 51.9531-0.878906Q51.9531-0.341797 52.3193-0.0244141Q52.6855 0.292969 53.2227 0.292969Z"/>
  </g>
 </g>
</svg>
